<svg width="88" height="56" viewBox="0 0 88 56" fill="none" xmlns="http://www.w3.org/2000/svg">
<mask id="path-1-outside-1_3667_7862" maskUnits="userSpaceOnUse" x="0" y="0" width="88" height="56" fill="black">
<rect fill="white" width="88" height="56"/>
<path d="M85.5838 52.0658H81.0332L85.1495 37.0706C85.1451 37.052 85.1451 37.0326 85.1495 37.014C85.1541 36.9639 85.1541 36.9134 85.1495 36.8632C85.1542 36.8194 85.1542 36.7752 85.1495 36.7313V36.5899C85.1495 36.5428 85.1495 36.4957 85.1495 36.4485C85.1541 36.4268 85.1541 36.4043 85.1495 36.3826V36.3072C85.1536 36.2664 85.1536 36.2254 85.1495 36.1846C85.1495 36.1281 85.1495 36.081 85.0834 36.0338V35.9773L80.3912 28.2205C80.2714 28.0324 80.1099 27.8744 79.9191 27.7587L69.2411 20.6239V17.3534C69.2408 17.1624 69.2023 16.9733 69.1278 16.7973L64.3505 5.72293C64.2288 5.43392 64.0124 5.19469 63.7369 5.04432L56.7976 1.18006C56.5098 1.02245 56.1772 0.966022 55.8534 1.01983L45.9307 2.57496H45.8835C45.7513 2.5927 45.6233 2.63421 45.5059 2.69749C45.439 2.72814 45.3756 2.76607 45.3171 2.81059C45.2801 2.84275 45.2454 2.87739 45.2132 2.91427L37.7924 10.5108H31.7123C31.3897 10.5113 31.0769 10.621 30.8248 10.8219L19.637 19.7757C19.5097 19.8863 19.4013 20.0168 19.316 20.1621L13.6512 30.3788H6.5892L6.23043 30.4354H6.17378C6.07025 30.469 5.97178 30.5166 5.88111 30.5767H5.8339L5.76781 30.6333C5.67385 30.7051 5.58833 30.7873 5.5129 30.8783C5.43825 30.9897 5.37798 31.1101 5.33352 31.2365L1.07553 44.0922C0.961417 44.4356 0.981655 44.8093 1.13218 45.1384L4.3894 52.0658H2.41618C2.04059 52.0658 1.68038 52.2148 1.41479 52.4799C1.1492 52.745 1 53.1046 1 53.4796C1 53.8545 1.1492 54.2141 1.41479 54.4793C1.68038 54.7444 2.04059 54.8933 2.41618 54.8933H85.5838C85.9594 54.8933 86.3196 54.7444 86.5852 54.4793C86.8508 54.2141 87 53.8545 87 53.4796C87 53.1046 86.8508 52.745 86.5852 52.4799C86.3196 52.2148 85.9594 52.0658 85.5838 52.0658ZM78.1158 29.9358L81.5713 35.7605L65.8139 39.3797L58.2043 32.5749C57.9226 32.3249 57.553 32.1969 57.1767 32.219C56.8005 32.2411 56.4484 32.4115 56.198 32.6927C55.9477 32.9739 55.8194 33.3429 55.8415 33.7185C55.8637 34.0941 56.0344 34.4455 56.3161 34.6955L64.0484 41.5569V52.0658H51.7937L49.9055 47.3533L54.1068 44.752C54.342 44.6058 54.5291 44.3939 54.6449 44.1427C54.7607 43.8914 54.8001 43.6117 54.7583 43.3382L53.0966 32.5937L67.8155 23.0744L78.1158 29.9358ZM24.2159 52.0658L26.1797 41.4627L29.4653 36.6088L32.4959 43.9697L29.5408 52.0847L24.2159 52.0658ZM13.9156 33.3194L21.0437 39.5023H13.0848L9.19497 33.3194H13.9156ZM16.2381 31.5852L20.6755 23.5834L27.9924 33.6682L24.5181 38.8048L16.2381 31.5852ZM39.6334 28.8897L41.5217 36.9952C41.6175 37.3488 41.847 37.6515 42.1619 37.8395C42.4769 38.0275 42.8526 38.0862 43.21 38.0031C43.5674 37.92 43.8785 37.7017 44.0778 37.3941C44.2771 37.0866 44.3491 36.7138 44.2785 36.3543L42.5885 29.163L50.2737 32.8482L51.8032 42.8481L47.819 45.2892L35.0356 42.6785L31.5046 34.196L39.6334 28.8897ZM34.9128 45.5437L47.1014 48.0225L48.7631 52.0658H32.562L34.9128 45.5437ZM61.9808 7.27806L66.4465 17.6456V20.6145L51.4538 30.2846L41.8427 25.6475L39.8411 12.4524L46.0535 6.09993L53.1249 15.2611L45.9307 20.5391C45.7801 20.6475 45.6524 20.7846 45.5551 20.9426C45.4579 21.1005 45.3929 21.2761 45.3639 21.4592C45.3349 21.6423 45.3426 21.8294 45.3864 22.0095C45.4302 22.1897 45.5093 22.3594 45.6192 22.5089C45.7511 22.6882 45.923 22.8343 46.1213 22.9357C46.3196 23.0371 46.5388 23.0911 46.7616 23.0933C47.0649 23.0919 47.3596 22.9927 47.6018 22.8105L55.3625 17.1555L59.2334 18.3525C59.3705 18.3973 59.514 18.4196 59.6583 18.4184C60.0093 18.4384 60.3553 18.3272 60.6288 18.1066C60.9023 17.886 61.0838 17.5716 61.138 17.2248C61.1922 16.8779 61.1151 16.5234 60.9219 16.2301C60.7287 15.9368 60.433 15.7258 60.0925 15.6381L55.9667 14.3563L48.7631 4.9972L55.8534 3.88504L61.9808 7.27806ZM32.241 13.4138H37.1598L39.0481 25.9114L30.0978 31.7172L22.4599 21.2177L32.241 13.4138ZM7.02349 35.1856L11.1115 41.67C11.2379 41.8734 11.4146 42.041 11.6246 42.1565C11.8346 42.2721 12.0708 42.3317 12.3106 42.3298H23.1208L21.3175 52.0658H9.11L11.9424 47.523C12.1377 47.2017 12.1972 46.8162 12.1078 46.4512C12.0183 46.0863 11.7873 45.7717 11.4656 45.5767C11.1438 45.3817 10.7577 45.3223 10.392 45.4116C10.0264 45.5008 9.71128 45.7314 9.51597 46.0527L6.81579 50.4918L3.98342 44.441L7.02349 35.1856ZM66.843 52.0658V42.0847L81.8073 38.6069L78.0875 52.0658H66.843Z"/>
</mask>
<path d="M85.5838 52.0658H81.0332L85.1495 37.0706C85.1451 37.052 85.1451 37.0326 85.1495 37.014C85.1541 36.9639 85.1541 36.9134 85.1495 36.8632C85.1542 36.8194 85.1542 36.7752 85.1495 36.7313V36.5899C85.1495 36.5428 85.1495 36.4957 85.1495 36.4485C85.1541 36.4268 85.1541 36.4043 85.1495 36.3826V36.3072C85.1536 36.2664 85.1536 36.2254 85.1495 36.1846C85.1495 36.1281 85.1495 36.081 85.0834 36.0338V35.9773L80.3912 28.2205C80.2714 28.0324 80.1099 27.8744 79.9191 27.7587L69.2411 20.6239V17.3534C69.2408 17.1624 69.2023 16.9733 69.1278 16.7973L64.3505 5.72293C64.2288 5.43392 64.0124 5.19469 63.7369 5.04432L56.7976 1.18006C56.5098 1.02245 56.1772 0.966022 55.8534 1.01983L45.9307 2.57496H45.8835C45.7513 2.5927 45.6233 2.63421 45.5059 2.69749C45.439 2.72814 45.3756 2.76607 45.3171 2.81059C45.2801 2.84275 45.2454 2.87739 45.2132 2.91427L37.7924 10.5108H31.7123C31.3897 10.5113 31.0769 10.621 30.8248 10.8219L19.637 19.7757C19.5097 19.8863 19.4013 20.0168 19.316 20.1621L13.6512 30.3788H6.5892L6.23043 30.4354H6.17378C6.07025 30.469 5.97178 30.5166 5.88111 30.5767H5.8339L5.76781 30.6333C5.67385 30.7051 5.58833 30.7873 5.5129 30.8783C5.43825 30.9897 5.37798 31.1101 5.33352 31.2365L1.07553 44.0922C0.961417 44.4356 0.981655 44.8093 1.13218 45.1384L4.3894 52.0658H2.41618C2.04059 52.0658 1.68038 52.2148 1.41479 52.4799C1.1492 52.745 1 53.1046 1 53.4796C1 53.8545 1.1492 54.2141 1.41479 54.4793C1.68038 54.7444 2.04059 54.8933 2.41618 54.8933H85.5838C85.9594 54.8933 86.3196 54.7444 86.5852 54.4793C86.8508 54.2141 87 53.8545 87 53.4796C87 53.1046 86.8508 52.745 86.5852 52.4799C86.3196 52.2148 85.9594 52.0658 85.5838 52.0658ZM78.1158 29.9358L81.5713 35.7605L65.8139 39.3797L58.2043 32.5749C57.9226 32.3249 57.553 32.1969 57.1767 32.219C56.8005 32.2411 56.4484 32.4115 56.198 32.6927C55.9477 32.9739 55.8194 33.3429 55.8415 33.7185C55.8637 34.0941 56.0344 34.4455 56.3161 34.6955L64.0484 41.5569V52.0658H51.7937L49.9055 47.3533L54.1068 44.752C54.342 44.6058 54.5291 44.3939 54.6449 44.1427C54.7607 43.8914 54.8001 43.6117 54.7583 43.3382L53.0966 32.5937L67.8155 23.0744L78.1158 29.9358ZM24.2159 52.0658L26.1797 41.4627L29.4653 36.6088L32.4959 43.9697L29.5408 52.0847L24.2159 52.0658ZM13.9156 33.3194L21.0437 39.5023H13.0848L9.19497 33.3194H13.9156ZM16.2381 31.5852L20.6755 23.5834L27.9924 33.6682L24.5181 38.8048L16.2381 31.5852ZM39.6334 28.8897L41.5217 36.9952C41.6175 37.3488 41.847 37.6515 42.1619 37.8395C42.4769 38.0275 42.8526 38.0862 43.21 38.0031C43.5674 37.92 43.8785 37.7017 44.0778 37.3941C44.2771 37.0866 44.3491 36.7138 44.2785 36.3543L42.5885 29.163L50.2737 32.8482L51.8032 42.8481L47.819 45.2892L35.0356 42.6785L31.5046 34.196L39.6334 28.8897ZM34.9128 45.5437L47.1014 48.0225L48.7631 52.0658H32.562L34.9128 45.5437ZM61.9808 7.27806L66.4465 17.6456V20.6145L51.4538 30.2846L41.8427 25.6475L39.8411 12.4524L46.0535 6.09993L53.1249 15.2611L45.9307 20.5391C45.7801 20.6475 45.6524 20.7846 45.5551 20.9426C45.4579 21.1005 45.3929 21.2761 45.3639 21.4592C45.3349 21.6423 45.3426 21.8294 45.3864 22.0095C45.4302 22.1897 45.5093 22.3594 45.6192 22.5089C45.7511 22.6882 45.923 22.8343 46.1213 22.9357C46.3196 23.0371 46.5388 23.0911 46.7616 23.0933C47.0649 23.0919 47.3596 22.9927 47.6018 22.8105L55.3625 17.1555L59.2334 18.3525C59.3705 18.3973 59.514 18.4196 59.6583 18.4184C60.0093 18.4384 60.3553 18.3272 60.6288 18.1066C60.9023 17.886 61.0838 17.5716 61.138 17.2248C61.1922 16.8779 61.1151 16.5234 60.9219 16.2301C60.7287 15.9368 60.433 15.7258 60.0925 15.6381L55.9667 14.3563L48.7631 4.9972L55.8534 3.88504L61.9808 7.27806ZM32.241 13.4138H37.1598L39.0481 25.9114L30.0978 31.7172L22.4599 21.2177L32.241 13.4138ZM7.02349 35.1856L11.1115 41.67C11.2379 41.8734 11.4146 42.041 11.6246 42.1565C11.8346 42.2721 12.0708 42.3317 12.3106 42.3298H23.1208L21.3175 52.0658H9.11L11.9424 47.523C12.1377 47.2017 12.1972 46.8162 12.1078 46.4512C12.0183 46.0863 11.7873 45.7717 11.4656 45.5767C11.1438 45.3817 10.7577 45.3223 10.392 45.4116C10.0264 45.5008 9.71128 45.7314 9.51597 46.0527L6.81579 50.4918L3.98342 44.441L7.02349 35.1856ZM66.843 52.0658V42.0847L81.8073 38.6069L78.0875 52.0658H66.843Z" fill="#17A0B5"/>
<path d="M85.5838 52.0658H81.0332L85.1495 37.0706C85.1451 37.052 85.1451 37.0326 85.1495 37.014C85.1541 36.9639 85.1541 36.9134 85.1495 36.8632C85.1542 36.8194 85.1542 36.7752 85.1495 36.7313V36.5899C85.1495 36.5428 85.1495 36.4957 85.1495 36.4485C85.1541 36.4268 85.1541 36.4043 85.1495 36.3826V36.3072C85.1536 36.2664 85.1536 36.2254 85.1495 36.1846C85.1495 36.1281 85.1495 36.081 85.0834 36.0338V35.9773L80.3912 28.2205C80.2714 28.0324 80.1099 27.8744 79.9191 27.7587L69.2411 20.6239V17.3534C69.2408 17.1624 69.2023 16.9733 69.1278 16.7973L64.3505 5.72293C64.2288 5.43392 64.0124 5.19469 63.7369 5.04432L56.7976 1.18006C56.5098 1.02245 56.1772 0.966022 55.8534 1.01983L45.9307 2.57496H45.8835C45.7513 2.5927 45.6233 2.63421 45.5059 2.69749C45.439 2.72814 45.3756 2.76607 45.3171 2.81059C45.2801 2.84275 45.2454 2.87739 45.2132 2.91427L37.7924 10.5108H31.7123C31.3897 10.5113 31.0769 10.621 30.8248 10.8219L19.637 19.7757C19.5097 19.8863 19.4013 20.0168 19.316 20.1621L13.6512 30.3788H6.5892L6.23043 30.4354H6.17378C6.07025 30.469 5.97178 30.5166 5.88111 30.5767H5.8339L5.76781 30.6333C5.67385 30.7051 5.58833 30.7873 5.5129 30.8783C5.43825 30.9897 5.37798 31.1101 5.33352 31.2365L1.07553 44.0922C0.961417 44.4356 0.981655 44.8093 1.13218 45.1384L4.3894 52.0658H2.41618C2.04059 52.0658 1.68038 52.2148 1.41479 52.4799C1.1492 52.745 1 53.1046 1 53.4796C1 53.8545 1.1492 54.2141 1.41479 54.4793C1.68038 54.7444 2.04059 54.8933 2.41618 54.8933H85.5838C85.9594 54.8933 86.3196 54.7444 86.5852 54.4793C86.8508 54.2141 87 53.8545 87 53.4796C87 53.1046 86.8508 52.745 86.5852 52.4799C86.3196 52.2148 85.9594 52.0658 85.5838 52.0658ZM78.1158 29.9358L81.5713 35.7605L65.8139 39.3797L58.2043 32.5749C57.9226 32.3249 57.553 32.1969 57.1767 32.219C56.8005 32.2411 56.4484 32.4115 56.198 32.6927C55.9477 32.9739 55.8194 33.3429 55.8415 33.7185C55.8637 34.0941 56.0344 34.4455 56.3161 34.6955L64.0484 41.5569V52.0658H51.7937L49.9055 47.3533L54.1068 44.752C54.342 44.6058 54.5291 44.3939 54.6449 44.1427C54.7607 43.8914 54.8001 43.6117 54.7583 43.3382L53.0966 32.5937L67.8155 23.0744L78.1158 29.9358ZM24.2159 52.0658L26.1797 41.4627L29.4653 36.6088L32.4959 43.9697L29.5408 52.0847L24.2159 52.0658ZM13.9156 33.3194L21.0437 39.5023H13.0848L9.19497 33.3194H13.9156ZM16.2381 31.5852L20.6755 23.5834L27.9924 33.6682L24.5181 38.8048L16.2381 31.5852ZM39.6334 28.8897L41.5217 36.9952C41.6175 37.3488 41.847 37.6515 42.1619 37.8395C42.4769 38.0275 42.8526 38.0862 43.21 38.0031C43.5674 37.92 43.8785 37.7017 44.0778 37.3941C44.2771 37.0866 44.3491 36.7138 44.2785 36.3543L42.5885 29.163L50.2737 32.8482L51.8032 42.8481L47.819 45.2892L35.0356 42.6785L31.5046 34.196L39.6334 28.8897ZM34.9128 45.5437L47.1014 48.0225L48.7631 52.0658H32.562L34.9128 45.5437ZM61.9808 7.27806L66.4465 17.6456V20.6145L51.4538 30.2846L41.8427 25.6475L39.8411 12.4524L46.0535 6.09993L53.1249 15.2611L45.9307 20.5391C45.7801 20.6475 45.6524 20.7846 45.5551 20.9426C45.4579 21.1005 45.3929 21.2761 45.3639 21.4592C45.3349 21.6423 45.3426 21.8294 45.3864 22.0095C45.4302 22.1897 45.5093 22.3594 45.6192 22.5089C45.7511 22.6882 45.923 22.8343 46.1213 22.9357C46.3196 23.0371 46.5388 23.0911 46.7616 23.0933C47.0649 23.0919 47.3596 22.9927 47.6018 22.8105L55.3625 17.1555L59.2334 18.3525C59.3705 18.3973 59.514 18.4196 59.6583 18.4184C60.0093 18.4384 60.3553 18.3272 60.6288 18.1066C60.9023 17.886 61.0838 17.5716 61.138 17.2248C61.1922 16.8779 61.1151 16.5234 60.9219 16.2301C60.7287 15.9368 60.433 15.7258 60.0925 15.6381L55.9667 14.3563L48.7631 4.9972L55.8534 3.88504L61.9808 7.27806ZM32.241 13.4138H37.1598L39.0481 25.9114L30.0978 31.7172L22.4599 21.2177L32.241 13.4138ZM7.02349 35.1856L11.1115 41.67C11.2379 41.8734 11.4146 42.041 11.6246 42.1565C11.8346 42.2721 12.0708 42.3317 12.3106 42.3298H23.1208L21.3175 52.0658H9.11L11.9424 47.523C12.1377 47.2017 12.1972 46.8162 12.1078 46.4512C12.0183 46.0863 11.7873 45.7717 11.4656 45.5767C11.1438 45.3817 10.7577 45.3223 10.392 45.4116C10.0264 45.5008 9.71128 45.7314 9.51597 46.0527L6.81579 50.4918L3.98342 44.441L7.02349 35.1856ZM66.843 52.0658V42.0847L81.8073 38.6069L78.0875 52.0658H66.843Z" stroke="#17A0B5" stroke-width="0.6" mask="url(#path-1-outside-1_3667_7862)"/>
</svg>
