<svg width="21" height="16" viewBox="0 0 21 16" fill="none" xmlns="http://www.w3.org/2000/svg">
<path d="M1.12013 7.62699H1.50086V3.05595C1.19822 3.01829 0.963261 2.76374 0.963261 2.45567V1.18079C0.963261 0.846854 1.23912 0.575195 1.57822 0.575195H2.10987C2.2742 0.575195 2.40743 0.706395 2.40743 0.868226C2.40743 1.03006 2.2742 1.16126 2.10987 1.16126H1.57822C1.56727 1.16126 1.55838 1.17001 1.55838 1.18079V2.45567C1.55838 2.46645 1.56727 2.4752 1.57822 2.4752H10.4591C10.47 2.4752 10.4789 2.46645 10.4789 2.45567V1.18079C10.4789 1.17001 10.47 1.16126 10.4591 1.16126H3.49849C3.33415 1.16126 3.20093 1.03006 3.20093 0.868226C3.20093 0.706395 3.33415 0.575195 3.49849 0.575195H10.4591C10.7982 0.575195 11.074 0.846854 11.074 1.18079V2.45567C11.074 2.76374 10.8391 3.01829 10.5364 3.05595V6.18692H19.6434C19.8077 6.18692 19.941 6.31812 19.941 6.47995C19.941 6.64178 19.8077 6.77298 19.6434 6.77298H18.9312V8.00285H20.1995C20.5386 8.00285 20.8145 8.27451 20.8145 8.60845V9.62589C20.8145 9.92615 20.5912 10.1754 20.2996 10.2227V12.1437C20.2996 12.4091 20.1895 12.6679 19.9979 12.8533L17.6424 15.1385C17.4518 15.3229 17.1996 15.4245 16.9324 15.4245H15.9703C15.806 15.4245 15.6727 15.2933 15.6727 15.1314C15.6727 14.9696 15.806 14.8384 15.9703 14.8384H16.9324C17.0427 14.8384 17.1467 14.7965 17.2251 14.7207L19.5804 12.4355C19.6593 12.3592 19.7045 12.2529 19.7045 12.1437V10.2315H1.61508V12.3731C1.61508 12.4112 1.62726 12.4474 1.65043 12.4781L3.30591 14.6729C3.38423 14.7765 3.50928 14.8384 3.64049 14.8384H14.5816C14.746 14.8384 14.8792 14.9696 14.8792 15.1315C14.8792 15.2933 14.746 15.4245 14.5816 15.4245H3.64049C3.32205 15.4245 3.0185 15.2743 2.8283 15.0225L1.17282 12.8277C1.07423 12.6973 1.01996 12.5358 1.01996 12.3731V10.2227C0.728424 10.1754 0.505135 9.92618 0.505135 9.62589V8.23259C0.505173 7.89865 0.781073 7.62699 1.12013 7.62699ZM9.9413 7.62699V3.0613H8.43365V5.68881C8.43365 6.02275 8.15779 6.29441 7.81869 6.29441H2.09598V7.62699H9.9413ZM2.09598 5.70835H4.61018V3.0613H2.09598V5.70835ZM5.2053 5.70835H7.81869C7.82964 5.70835 7.83853 5.69959 7.83853 5.68881V3.0613H5.2053V5.70835ZM10.5364 7.62699H10.7728C10.8819 7.62699 10.9876 7.6491 11.0872 7.69275H11.0873L11.7608 7.98769C11.7838 7.99773 11.8082 8.00285 11.8333 8.00285H12.4642V6.77298H10.5364V7.62699ZM16.8681 8.00289V6.77302H15.9953V8.00289H16.8681ZM15.4002 6.77302H14.5273V8.00289H15.4002V6.77302ZM13.9322 6.77302H13.0594V8.00289H13.9322V6.77302ZM18.3361 6.77302H17.4633V8.00289H18.3361V6.77302ZM20.2193 8.60849C20.2193 8.5977 20.2104 8.58895 20.1995 8.58895H11.8333C11.7243 8.58895 11.6185 8.56684 11.5189 8.52319L10.8454 8.22825C10.8454 8.22825 10.8454 8.22825 10.8453 8.22821C10.8224 8.21817 10.798 8.21305 10.7728 8.21305H1.12013C1.10918 8.21305 1.1003 8.2218 1.1003 8.23259V9.62589C1.1003 9.63667 1.10918 9.64542 1.12013 9.64542H20.1995C20.2104 9.64542 20.2193 9.63667 20.2193 9.62589V8.60849Z" fill="#1B9FE8"/>
<path d="M3.67068 12.3534C3.67068 11.5258 4.35436 10.8525 5.19472 10.8525C6.03507 10.8525 6.71875 11.5258 6.71875 12.3534C6.71875 13.1809 6.03507 13.8542 5.19472 13.8542C4.35436 13.8542 3.67068 13.1809 3.67068 12.3534ZM6.12363 12.3534C6.12363 11.849 5.70692 11.4386 5.19472 11.4386C4.68251 11.4386 4.26581 11.849 4.26581 12.3534C4.26581 12.8578 4.68251 13.2681 5.19472 13.2681C5.70692 13.2681 6.12363 12.8578 6.12363 12.3534Z" fill="#1B9FE8"/>
</svg>
