<svg width="20" height="20" viewBox="0 0 20 20" fill="none" xmlns="http://www.w3.org/2000/svg">
<g clip-path="url(#clip0_883_5835)">
<path d="M0.605595 9.627H0.980518V5.05595C0.682487 5.01829 0.451109 4.76374 0.451109 4.45567V3.18079C0.451109 2.84685 0.722769 2.5752 1.05671 2.5752H1.58025C1.74208 2.5752 1.87328 2.70639 1.87328 2.86823C1.87328 3.03006 1.74208 3.16126 1.58025 3.16126H1.05671C1.04592 3.16126 1.03717 3.17001 1.03717 3.18079V4.45567C1.03717 4.46645 1.04592 4.47521 1.05671 4.47521H9.8023C9.81308 4.47521 9.82184 4.46645 9.82184 4.45567V3.18079C9.82184 3.17001 9.81308 3.16126 9.8023 3.16126H2.94773C2.7859 3.16126 2.6547 3.03006 2.6547 2.86823C2.6547 2.70639 2.7859 2.5752 2.94773 2.5752H9.8023C10.1362 2.5752 10.4079 2.84685 10.4079 3.18079V4.45567C10.4079 4.76374 10.1765 5.01829 9.87849 5.05595V8.18693H18.8468C19.0086 8.18693 19.1398 8.31813 19.1398 8.47996C19.1398 8.64179 19.0086 8.77299 18.8468 8.77299H18.1455V10.0029H19.3944C19.7283 10.0029 20 10.2745 20 10.6085V11.6259C20 11.9262 19.7801 12.1754 19.493 12.2227V14.1437C19.493 14.4091 19.3846 14.6679 19.1958 14.8533L16.8763 17.1385C16.6886 17.3229 16.4402 17.4245 16.1771 17.4245H15.2296C15.0678 17.4245 14.9366 17.2933 14.9366 17.1314C14.9366 16.9696 15.0678 16.8384 15.2296 16.8384H16.1771C16.2857 16.8384 16.3881 16.7965 16.4653 16.7207L18.7848 14.4356C18.8624 14.3592 18.9069 14.2529 18.9069 14.1437V12.2315H1.093V14.3731C1.093 14.4112 1.105 14.4474 1.12782 14.4781L2.75808 16.6729C2.83521 16.7766 2.95836 16.8384 3.08756 16.8384H13.8621C14.0239 16.8384 14.1551 16.9696 14.1551 17.1315C14.1551 17.2933 14.0239 17.4245 13.8621 17.4245H3.08756C2.77398 17.4245 2.47505 17.2743 2.28775 17.0225L0.657482 14.8277C0.56039 14.6973 0.506943 14.5358 0.506943 14.3731V12.2227C0.219851 12.1754 -4.00543e-05 11.9262 -4.00543e-05 11.6259V10.2326C-1.90735e-06 9.89866 0.271696 9.627 0.605595 9.627ZM9.29243 9.627V5.06131H7.80774V7.68881C7.80774 8.02275 7.53608 8.29441 7.20214 8.29441H1.56658V9.627H9.29243ZM1.56658 7.70835H4.04249V5.06131H1.56658V7.70835ZM4.62855 7.70835H7.20214C7.21293 7.70835 7.22168 7.6996 7.22168 7.68881V5.06131H4.62855V7.70835ZM9.87849 9.627H10.1113C10.2187 9.627 10.3228 9.64911 10.4209 9.69275H10.4209L11.0843 9.9877C11.1068 9.99774 11.1309 10.0029 11.1556 10.0029H11.7769V8.77299H9.87849V9.627ZM16.1138 10.0029V8.77303H15.2542V10.0029H16.1138ZM14.6682 8.77303H13.8086V10.0029H14.6682V8.77303ZM13.2226 8.77303H12.363V10.0029H13.2226V8.77303ZM17.5594 8.77303H16.6999V10.0029H17.5594V8.77303ZM19.4139 10.6085C19.4139 10.5977 19.4052 10.589 19.3944 10.589H11.1556C11.0482 10.589 10.9441 10.5668 10.846 10.5232L10.1828 10.2283C10.1828 10.2283 10.1827 10.2283 10.1827 10.2282C10.1601 10.2182 10.1361 10.2131 10.1113 10.2131H0.605595C0.594812 10.2131 0.58606 10.2218 0.58606 10.2326V11.6259C0.58606 11.6367 0.594812 11.6454 0.605595 11.6454H19.3944C19.4052 11.6454 19.4139 11.6367 19.4139 11.6259V10.6085Z" fill="#A9A9A9"/>
<path d="M3.11731 14.3534C3.11731 13.5258 3.79058 12.8525 4.61813 12.8525C5.44569 12.8525 6.11896 13.5258 6.11896 14.3534C6.11896 15.1809 5.44569 15.8542 4.61813 15.8542C3.79058 15.8542 3.11731 15.1809 3.11731 14.3534ZM5.5329 14.3534C5.5329 13.849 5.12254 13.4386 4.61813 13.4386C4.11373 13.4386 3.70337 13.849 3.70337 14.3534C3.70337 14.8578 4.11373 15.2681 4.61813 15.2681C5.12254 15.2681 5.5329 14.8578 5.5329 14.3534Z" fill="#A9A9A9"/>
</g>
<defs>
<clipPath id="clip0_883_5835">
<rect width="20" height="20" fill="white" transform="matrix(-1 0 0 1 20 0)"/>
</clipPath>
</defs>
</svg>
