<svg width="16" height="16" viewBox="0 0 16 16" fill="none" xmlns="http://www.w3.org/2000/svg">
<path d="M8 15C4.14 15 1 11.86 1 8C1 4.14 4.14 1 8 1C11.86 1 15 4.14 15 8C15 11.86 11.86 15 8 15ZM8 2C4.69 2 2 4.69 2 8C2 11.31 4.69 14 8 14C11.31 14 14 11.31 14 8C14 4.69 11.31 2 8 2Z" fill="#1B9FE8"/>
<path d="M9.99997 10.5C9.90997 10.5 9.81997 10.48 9.73997 10.43L7.23997 8.93C7.16592 8.8855 7.10481 8.8224 7.06271 8.74696C7.0206 8.67153 6.99897 8.58638 6.99997 8.5V4.5C6.99997 4.22 7.21997 4 7.49997 4C7.77997 4 7.99997 4.22 7.99997 4.5V8.22L10.26 9.57C10.3531 9.62705 10.425 9.7129 10.4649 9.81453C10.5048 9.91615 10.5105 10.028 10.4811 10.1332C10.4517 10.2383 10.3888 10.331 10.302 10.3972C10.2152 10.4634 10.1092 10.4995 9.99997 10.5Z" fill="#1B9FE8"/>
</svg>
