<svg width="24" height="24" viewBox="0 0 24 24" fill="none" xmlns="http://www.w3.org/2000/svg">
<path d="M14.037 20.9366C13.8544 20.9358 13.6755 20.8857 13.519 20.7916L10.185 18.7916C9.80994 18.5653 9.49949 18.2462 9.28353 17.8651C9.06758 17.484 8.9534 17.0537 8.952 16.6156V12.0906C8.95291 11.7712 8.85358 11.4596 8.668 11.1996L4.013 4.65763C3.9043 4.5066 3.83944 4.32849 3.82557 4.14293C3.81169 3.95737 3.84935 3.77159 3.93438 3.60608C4.01941 3.44057 4.14851 3.30177 4.30743 3.20499C4.46636 3.10821 4.64893 3.05721 4.835 3.05763H19.165C19.3512 3.05685 19.534 3.10762 19.6932 3.20433C19.8523 3.30103 19.9816 3.43989 20.0667 3.60553C20.1518 3.77117 20.1894 3.95714 20.1753 4.14283C20.1613 4.32852 20.0961 4.50669 19.987 4.65763L15.332 11.1996C15.1461 11.4595 15.0464 11.7711 15.047 12.0906V19.9246C15.0467 20.1926 14.9403 20.4495 14.751 20.6392C14.5617 20.8289 14.305 20.9358 14.037 20.9366ZM4.835 4.06263L9.482 10.6196C9.78905 11.0485 9.95347 11.5631 9.952 12.0906V16.6146C9.95266 16.88 10.0218 17.1407 10.1526 17.3716C10.2835 17.6025 10.4717 17.7957 10.699 17.9326L14.033 19.9326L14.047 12.0896C14.0459 11.562 14.2107 11.0474 14.518 10.6186L19.172 4.07663L4.835 4.06263Z" fill="#1B9FE8"/>
</svg>
