<svg width="24" height="24" viewBox="0 0 24 24" fill="none" xmlns="http://www.w3.org/2000/svg">
<path d="M12 14.5C11.5055 14.5 11.0222 14.3534 10.6111 14.0787C10.2 13.804 9.87952 13.4135 9.6903 12.9567C9.50108 12.4999 9.45157 11.9972 9.54804 11.5123C9.6445 11.0273 9.8826 10.5819 10.2322 10.2322C10.5819 9.8826 11.0273 9.6445 11.5123 9.54804C11.9972 9.45157 12.4999 9.50108 12.9567 9.6903C13.4135 9.87952 13.804 10.2 14.0787 10.6111C14.3534 11.0222 14.5 11.5055 14.5 12C14.5 12.663 14.2366 13.2989 13.7678 13.7678C13.2989 14.2366 12.663 14.5 12 14.5ZM12 10.5C11.7033 10.5 11.4133 10.588 11.1666 10.7528C10.92 10.9176 10.7277 11.1519 10.6142 11.426C10.5007 11.7001 10.4709 12.0017 10.5288 12.2926C10.5867 12.5836 10.7296 12.8509 10.9393 13.0607C11.1491 13.2704 11.4164 13.4133 11.7074 13.4712C11.9983 13.5291 12.2999 13.4994 12.574 13.3858C12.8481 13.2723 13.0824 13.08 13.2472 12.8334C13.412 12.5867 13.5 12.2967 13.5 12C13.5 11.6022 13.342 11.2206 13.0607 10.9393C12.7794 10.658 12.3978 10.5 12 10.5Z" fill="black"/>
<path d="M21.4354 11.505H19.9754C19.8569 9.55993 19.0308 7.72544 17.6529 6.34752C16.275 4.9696 14.4405 4.14349 12.4954 4.025V2.565C12.4934 2.43304 12.44 2.30705 12.3467 2.21373C12.2534 2.12041 12.1274 2.06706 11.9954 2.065C11.864 2.06878 11.739 2.12267 11.6461 2.21563C11.5531 2.30859 11.4992 2.43359 11.4954 2.565V4.025C9.55183 4.14772 7.71974 4.97518 6.34268 6.35225C4.96561 7.72932 4.13814 9.56141 4.01543 11.505H2.56543C2.43282 11.505 2.30564 11.5577 2.21188 11.6514C2.11811 11.7452 2.06543 11.8724 2.06543 12.005C2.06543 12.1376 2.11811 12.2648 2.21188 12.3586C2.30564 12.4523 2.43282 12.505 2.56543 12.505H4.01543C4.14066 14.4477 4.96894 16.2784 6.3455 17.6549C7.72205 19.0315 9.55272 19.8598 11.4954 19.985V21.435C11.4975 21.567 11.5508 21.6929 11.6442 21.7863C11.7375 21.8796 11.8635 21.9329 11.9954 21.935C12.128 21.935 12.2552 21.8823 12.349 21.7886C12.4428 21.6948 12.4954 21.5676 12.4954 21.435V19.985C14.439 19.8623 16.2711 19.0348 17.6482 17.6578C19.0252 16.2807 19.8527 14.4486 19.9754 12.505H21.4354C21.568 12.505 21.6952 12.4523 21.789 12.3586C21.8828 12.2648 21.9354 12.1376 21.9354 12.005C21.9354 11.8724 21.8828 11.7452 21.789 11.6514C21.6952 11.5577 21.568 11.505 21.4354 11.505ZM12.0004 19.005C10.616 19.005 9.26258 18.5945 8.11144 17.8253C6.96029 17.0561 6.06309 15.9629 5.53327 14.6838C5.00346 13.4047 4.86484 11.9972 5.13493 10.6394C5.40503 9.2815 6.07171 8.03422 7.05068 7.05525C8.02965 6.07629 9.27693 5.4096 10.6348 5.13951C11.9927 4.86941 13.4001 5.00803 14.6792 5.53785C15.9583 6.06766 17.0515 6.96487 17.8207 8.11601C18.5899 9.26716 19.0004 10.6205 19.0004 12.005C18.9949 13.8598 18.2556 15.6371 16.9441 16.9486C15.6325 18.2602 13.8552 18.9995 12.0004 19.005Z" fill="black"/>
</svg>
