<svg width="100" height="100" viewBox="0 0 100 100" fill="none" xmlns="http://www.w3.org/2000/svg">
<path d="M89 87.5H86.8926V34.5908C86.8926 33.7619 86.2215 33.0908 85.3926 33.0908H79.1211V22.5742C79.1211 21.7453 78.45 21.0742 77.6211 21.0742H72.2998V11C72.2998 10.1711 71.6287 9.5 70.7998 9.5H29.2012C28.3723 9.5 27.7012 10.1711 27.7012 11V21.0742H22.3799C21.551 21.0742 20.8799 21.7453 20.8799 22.5742V33.0908H14.6074C13.7785 33.0908 13.1074 33.7619 13.1074 34.5908V87.5H11C10.1711 87.5 9.5 88.1711 9.5 89C9.5 89.8289 10.1711 90.5 11 90.5H89C89.8289 90.5 90.5 89.8289 90.5 89C90.5 88.1711 89.8289 87.5 89 87.5ZM30.7012 12.5H69.2998V21.0742H30.7012V12.5ZM23.8799 24.0742H76.1211V33.0908H23.8799V24.0742ZM16.1074 36.0908H83.8926V87.5H70.9121V80.7248C74.3185 80.0278 76.8926 77.0158 76.8926 73.4033C76.8926 69.2785 73.5369 65.9229 69.4121 65.9229C65.2864 65.9229 61.9307 69.2785 61.9307 73.4033C61.9307 77.016 64.5051 80.028 67.9121 80.7249V87.5H58.6855V76.4404C58.6855 71.6506 54.7898 67.7549 50 67.7549C45.2102 67.7549 41.3145 71.6506 41.3145 76.4404V87.5H32.0879V80.7249C35.4949 80.028 38.0693 77.016 38.0693 73.4033C38.0693 69.2785 34.7136 65.9229 30.5879 65.9229C26.4631 65.9229 23.1074 69.2785 23.1074 73.4033C23.1074 77.0158 25.6815 80.0278 29.0879 80.7248V87.5H16.1074V36.0908ZM69.4121 77.8848C66.9412 77.8848 64.9307 75.8742 64.9307 73.4033C64.9307 70.9334 66.9411 68.9229 69.4121 68.9229C71.8821 68.9229 73.8926 70.9334 73.8926 73.4033C73.8926 75.8743 71.882 77.8848 69.4121 77.8848ZM44.3145 87.5V76.4404C44.3145 73.3054 46.865 70.7549 50 70.7549C53.135 70.7549 55.6855 73.3054 55.6855 76.4404V87.5H44.3145ZM30.5879 77.8848C28.118 77.8848 26.1074 75.8743 26.1074 73.4033C26.1074 70.9334 28.1179 68.9229 30.5879 68.9229C33.0589 68.9229 35.0693 70.9334 35.0693 73.4033C35.0693 75.8742 33.0588 77.8848 30.5879 77.8848Z" fill="#1B9FE8" stroke="#1B9FE8"/>
<path d="M62.752 61.3447H73.8066C74.6355 61.3447 75.3066 60.6736 75.3066 59.8447V50.2002C75.3066 46.3244 72.155 43.1729 68.2793 43.1729C64.4035 43.1729 61.252 46.3244 61.252 50.2002V59.8447C61.252 60.6736 61.9231 61.3447 62.752 61.3447ZM64.252 50.2002C64.252 47.9802 66.0593 46.1729 68.2793 46.1729C70.4992 46.1729 72.3066 47.9802 72.3066 50.2002V58.3447H64.252V50.2002Z" fill="#1B9FE8" stroke="#1B9FE8"/>
<path d="M44.4727 61.3447H55.5273C56.3562 61.3447 57.0273 60.6736 57.0273 59.8447V50.2002C57.0273 46.3244 53.8758 43.1729 50 43.1729C46.1242 43.1729 42.9727 46.3244 42.9727 50.2002V59.8447C42.9727 60.6736 43.6438 61.3447 44.4727 61.3447ZM45.9727 50.2002C45.9727 47.9802 47.78 46.1729 50 46.1729C52.22 46.1729 54.0273 47.9802 54.0273 50.2002V58.3447H45.9727V50.2002Z" fill="#1B9FE8" stroke="#1B9FE8"/>
<path d="M26.1934 61.3447H37.248C38.0769 61.3447 38.748 60.6736 38.748 59.8447V50.2002C38.748 46.3244 35.5965 43.1729 31.7207 43.1729C27.845 43.1729 24.6934 46.3244 24.6934 50.2002V59.8447C24.6934 60.6736 25.3645 61.3447 26.1934 61.3447ZM27.6934 50.2002C27.6934 47.9802 29.5008 46.1729 31.7207 46.1729C33.9407 46.1729 35.748 47.9802 35.748 50.2002V58.3447H27.6934V50.2002Z" fill="#1B9FE8" stroke="#1B9FE8"/>
</svg>
