<svg width="16" height="16" viewBox="0 0 16 16" fill="none" xmlns="http://www.w3.org/2000/svg">
<g clip-path="url(#clip0_636_20594)">
<path d="M0.484477 7.70199H0.784415V4.04515C0.54599 4.01502 0.360888 3.81139 0.360888 3.56493V2.54502C0.360888 2.27787 0.578216 2.06055 0.845366 2.06055H1.2642C1.39367 2.06055 1.49863 2.16551 1.49863 2.29497C1.49863 2.42444 1.39367 2.5294 1.2642 2.5294H0.845366C0.836739 2.5294 0.829737 2.5364 0.829737 2.54502V3.56493C0.829737 3.57355 0.836739 3.58056 0.845366 3.58056H7.84184C7.85047 3.58056 7.85747 3.57355 7.85747 3.56493V2.54502C7.85747 2.5364 7.85047 2.5294 7.84184 2.5294H2.35818C2.22872 2.5294 2.12376 2.42444 2.12376 2.29497C2.12376 2.16551 2.22872 2.06055 2.35818 2.06055H7.84184C8.10899 2.06055 8.32632 2.27787 8.32632 2.54502V3.56493C8.32632 3.81139 8.14122 4.01502 7.90279 4.04515V6.54993H15.0774C15.2069 6.54993 15.3119 6.65489 15.3119 6.78436C15.3119 6.91382 15.2069 7.01878 15.0774 7.01878H14.5164V8.00268H15.5155C15.7827 8.00268 16 8.22 16 8.48715V9.30111C16 9.54131 15.8241 9.7407 15.5944 9.77858V11.3153C15.5944 11.5277 15.5077 11.7347 15.3567 11.8831L13.501 13.7112C13.3508 13.8587 13.1522 13.94 12.9417 13.94H12.1837C12.0542 13.94 11.9493 13.835 11.9493 13.7055C11.9493 13.5761 12.0542 13.4711 12.1837 13.4711H12.9417C13.0285 13.4711 13.1105 13.4376 13.1722 13.3769L15.0278 11.5488C15.0899 11.4878 15.1255 11.4027 15.1255 11.3153V9.78561H0.874403V11.4989C0.874403 11.5293 0.883999 11.5583 0.902252 11.5829L2.20647 13.3387C2.26817 13.4216 2.36669 13.4711 2.47005 13.4711H11.0897C11.2191 13.4711 11.3241 13.5761 11.3241 13.7056C11.3241 13.835 11.2191 13.94 11.0897 13.94H2.47005C2.21919 13.94 1.98004 13.8198 1.8302 13.6184L0.525986 11.8626C0.448313 11.7582 0.405554 11.629 0.405554 11.4989V9.77858C0.17588 9.74073 -3.24249e-05 9.54134 -3.24249e-05 9.30111V8.18647C0 7.91931 0.217359 7.70199 0.484477 7.70199ZM7.43394 7.70199V4.04944H6.24619V6.15144C6.24619 6.41859 6.02886 6.63592 5.76171 6.63592H1.25326V7.70199H7.43394ZM1.25326 6.16707H3.23399V4.04944H1.25326V6.16707ZM3.70284 6.16707H5.76171C5.77034 6.16707 5.77734 6.16007 5.77734 6.15144V4.04944H3.70284V6.16707ZM7.90279 7.70199H8.08905C8.17494 7.70199 8.25827 7.71968 8.33673 7.75459H8.33676L8.8674 7.99055C8.88547 7.99858 8.90469 8.00268 8.92451 8.00268H9.42155V7.01878H7.90279V7.70199ZM12.891 8.00271V7.01881H12.2034V8.00271H12.891ZM11.7345 7.01881H11.0469V8.00271H11.7345V7.01881ZM10.578 7.01881H9.8904V8.00271H10.578V7.01881ZM14.0475 7.01881H13.3599V8.00271H14.0475V7.01881ZM15.5312 8.48718C15.5312 8.47856 15.5241 8.47156 15.5155 8.47156H8.92451C8.83858 8.47156 8.75525 8.45387 8.67683 8.41895L8.14622 8.18299C8.14622 8.18299 8.14619 8.18299 8.14616 8.18296C8.12809 8.17493 8.10887 8.17084 8.08905 8.17084H0.484477C0.47585 8.17084 0.468848 8.17784 0.468848 8.18647V9.30111C0.468848 9.30973 0.47585 9.31673 0.484477 9.31673H15.5155C15.5241 9.31673 15.5312 9.30973 15.5312 9.30111V8.48718Z" fill="white"/>
<path d="M2.49321 11.4829C2.49321 10.8208 3.03183 10.2822 3.69387 10.2822C4.35592 10.2822 4.89453 10.8208 4.89453 11.4829C4.89453 12.1449 4.35592 12.6835 3.69387 12.6835C3.03183 12.6835 2.49321 12.1449 2.49321 11.4829ZM4.42568 11.4829C4.42568 11.0794 4.09739 10.7511 3.69387 10.7511C3.29035 10.7511 2.96206 11.0794 2.96206 11.4829C2.96206 11.8864 3.29035 12.2147 3.69387 12.2147C4.09739 12.2147 4.42568 11.8864 4.42568 11.4829Z" fill="white"/>
</g>
<defs>
<clipPath id="clip0_636_20594">
<rect width="16" height="16" fill="white" transform="matrix(-1 0 0 1 16 0)"/>
</clipPath>
</defs>
</svg>
