<svg width="16" height="16" viewBox="0 0 16 16" fill="none" xmlns="http://www.w3.org/2000/svg">
<path d="M13 15.75H4.9052C5.09391 15.5233 5.29616 15.2705 5.49966 15.0005L5.5 15C5.67476 14.767 5.85467 14.5142 6.02907 14.25H13C13.6912 14.25 14.25 13.6912 14.25 13C14.25 12.3088 13.6912 11.75 13 11.75H10C8.48182 11.75 7.25 10.5182 7.25 9C7.25 7.48182 8.48182 6.25 10 6.25H11.2437H11.7109L11.4518 5.86132C11.1283 5.37617 10.8255 4.86019 10.6043 4.36119C10.3817 3.85883 10.25 3.39197 10.25 3C10.25 1.48182 11.4818 0.25 13 0.25C14.5182 0.25 15.75 1.48182 15.75 3C15.75 3.70713 15.3251 4.63117 14.765 5.52726C14.2131 6.41008 13.5614 7.21794 13.1666 7.68082C13.108 7.74838 13.0261 7.77078 12.9558 7.75562L12.9298 7.75H12.9031H10C9.3088 7.75 8.75 8.3088 8.75 9C8.75 9.6912 9.3088 10.25 10 10.25H13C14.5182 10.25 15.75 11.4818 15.75 13C15.75 14.5182 14.5182 15.75 13 15.75ZM3.15793 15.4703L3.14915 15.48L3.12914 15.4953C3.04411 15.5605 2.9207 15.5542 2.83966 15.4676C2.45008 15.044 1.79629 14.2905 1.24132 13.4515C0.678047 12.6 0.25 11.709 0.25 11C0.25 9.48182 1.48182 8.25 3 8.25C4.51818 8.25 5.75 9.48182 5.75 11C5.75 11.415 5.6025 11.8992 5.35733 12.4112C5.11379 12.9197 4.78319 13.4368 4.43831 13.9125C4.10947 14.3643 3.77063 14.774 3.4892 15.0988L3.48831 15.0998L3.4708 15.1202C3.35313 15.2534 3.24801 15.3709 3.1585 15.4696L3.15793 15.4703ZM4.25 11C4.25 10.6685 4.1183 10.3505 3.88388 10.1161C3.64946 9.8817 3.33152 9.75 3 9.75C2.66848 9.75 2.35054 9.8817 2.11612 10.1161C1.8817 10.3505 1.75 10.6685 1.75 11C1.75 11.3315 1.8817 11.6495 2.11612 11.8839C2.35054 12.1183 2.66848 12.25 3 12.25C3.33152 12.25 3.64946 12.1183 3.88388 11.8839C4.1183 11.6495 4.25 11.3315 4.25 11ZM13 4.25C13.3315 4.25 13.6495 4.1183 13.8839 3.88388C14.1183 3.64946 14.25 3.33152 14.25 3C14.25 2.66848 14.1183 2.35054 13.8839 2.11612C13.6495 1.8817 13.3315 1.75 13 1.75C12.6685 1.75 12.3505 1.8817 12.1161 2.11612C11.8817 2.35054 11.75 2.66848 11.75 3C11.75 3.33152 11.8817 3.64946 12.1161 3.88388C12.3505 4.1183 12.6685 4.25 13 4.25Z" fill="white" stroke="#FFA600" stroke-width="0.5"/>
</svg>
