<svg width="24" height="24" viewBox="0 0 24 24" fill="none" xmlns="http://www.w3.org/2000/svg">
<path d="M21.3599 21.1204H20.7341V8.30219C20.7341 8.16953 20.6268 8.06219 20.4941 8.06219H18.869V5.4182C18.869 5.28555 18.7616 5.1782 18.629 5.1782H17.2319V2.64039C17.2319 2.50773 17.1245 2.40039 16.9919 2.40039H7.00818C6.87553 2.40039 6.76818 2.50773 6.76818 2.64039V5.1782H5.37107C5.23842 5.1782 5.13107 5.28555 5.13107 5.4182V8.06219H3.50568C3.37303 8.06219 3.26568 8.16953 3.26568 8.30219V21.1204H2.6399C2.50725 21.1204 2.3999 21.2277 2.3999 21.3604C2.3999 21.493 2.50725 21.6004 2.6399 21.6004H21.3599C21.4926 21.6004 21.5999 21.493 21.5999 21.3604C21.5999 21.2277 21.4926 21.1204 21.3599 21.1204ZM7.24818 2.88039H16.7519V5.1782H7.24818V2.88039ZM5.61107 5.6582H18.389V8.06219H5.61107V5.6582ZM3.74568 8.54219H20.2541V21.1204H16.8988V19.2735C17.7089 19.1564 18.3341 18.4594 18.3341 17.6172C18.3341 16.6935 17.5825 15.9419 16.6588 15.9419C15.7349 15.9419 14.9833 16.6935 14.9833 17.6172C14.9833 18.4594 15.6085 19.1565 16.4188 19.2735V21.1204H13.9644V18.3461C13.9644 17.2628 13.0832 16.3816 11.9999 16.3816C10.9166 16.3816 10.0354 17.2628 10.0354 18.3461V21.1204H7.581V19.2735C8.39129 19.1565 9.01654 18.4594 9.01654 17.6172C9.01654 16.6935 8.2649 15.9419 7.341 15.9419C6.41732 15.9419 5.66568 16.6935 5.66568 17.6172C5.66568 18.4594 6.29088 19.1564 7.101 19.2735V21.1204H3.74568V8.54219ZM16.6588 18.8127C15.9995 18.8127 15.4633 18.2765 15.4633 17.6172C15.4633 16.9581 15.9995 16.4219 16.6588 16.4219C17.3179 16.4219 17.8541 16.9581 17.8541 17.6172C17.8541 18.2765 17.3179 18.8127 16.6588 18.8127ZM13.4844 21.1204H10.5154V18.3461C10.5154 17.5274 11.1812 16.8616 11.9999 16.8616C12.8186 16.8616 13.4844 17.5274 13.4844 18.3461V21.1204ZM7.341 18.8127C6.68193 18.8127 6.14568 18.2765 6.14568 17.6172C6.14568 16.9581 6.68193 16.4219 7.341 16.4219C8.00029 16.4219 8.53654 16.9581 8.53654 17.6172C8.53654 18.2765 8.00029 18.8127 7.341 18.8127Z" fill="black"/>
<path d="M15.0603 14.6027H17.7134C17.8461 14.6027 17.9534 14.4954 17.9534 14.3627V12.048C17.9534 11.1841 17.2508 10.4814 16.3869 10.4814C15.523 10.4814 14.8203 11.1841 14.8203 12.048V14.3627C14.8203 14.4954 14.9277 14.6027 15.0603 14.6027ZM15.3003 12.048C15.3003 11.4489 15.7878 10.9614 16.3869 10.9614C16.9859 10.9614 17.4734 11.4489 17.4734 12.048V14.1227H15.3003V12.048Z" fill="black"/>
<path d="M10.6736 14.6027H13.3267C13.4594 14.6027 13.5667 14.4954 13.5667 14.3627V12.048C13.5667 11.1841 12.8641 10.4814 12.0002 10.4814C11.1363 10.4814 10.4336 11.1841 10.4336 12.048V14.3627C10.4336 14.4954 10.5409 14.6027 10.6736 14.6027ZM10.9136 12.048C10.9136 11.4489 11.4011 10.9614 12.0002 10.9614C12.5992 10.9614 13.0867 11.4489 13.0867 12.048V14.1227H10.9136V12.048Z" fill="black"/>
<path d="M6.28639 14.6027H8.93951C9.07217 14.6027 9.17951 14.4954 9.17951 14.3627V12.048C9.17951 11.1841 8.47686 10.4814 7.61295 10.4814C6.74904 10.4814 6.04639 11.1841 6.04639 12.048V14.3627C6.04639 14.4954 6.15373 14.6027 6.28639 14.6027ZM6.52639 12.048C6.52639 11.4489 7.01389 10.9614 7.61295 10.9614C8.21201 10.9614 8.69951 11.4489 8.69951 12.048V14.1227H6.52639V12.048Z" fill="black"/>
</svg>
