<svg width="256" height="256" viewBox="0 0 256 256" fill="none" xmlns="http://www.w3.org/2000/svg">
<rect x="2" y="2" width="252" height="252" stroke="#17A0B5" stroke-width="4"/>
<path d="M238 39V178.062C238 199.582 220.562 217 199.016 217C177.784 217 160.554 200.069 160.032 179.001L32.0805 213.836C26.1285 215.436 20.0372 211.959 18.4013 206.014C16.7653 200.069 20.2808 193.985 26.2329 192.351L137.755 162.001V61.25C137.755 48.9777 147.745 39 160.032 39H238ZM215.723 178.062C215.723 173.637 213.963 169.392 210.83 166.263C207.697 163.133 203.447 161.375 199.016 161.375C194.585 161.375 190.335 163.133 187.202 166.263C184.069 169.392 182.308 173.637 182.308 178.062C182.308 182.488 184.069 186.733 187.202 189.862C190.335 192.992 194.585 194.75 199.016 194.75C203.447 194.75 207.697 192.992 210.83 189.862C213.963 186.733 215.723 182.488 215.723 178.062Z" fill="#17A0B5"/>
<path d="M40.7122 150.714L70.6119 167.977C71.2016 168.318 71.8527 168.539 72.5278 168.627C73.203 168.716 73.8891 168.671 74.5469 168.495C75.2047 168.319 75.8213 168.015 76.3616 167.6C76.9019 167.186 77.3552 166.669 77.6957 166.079C78.0362 165.489 78.2572 164.838 78.3461 164.163C78.435 163.488 78.39 162.802 78.2138 162.144C78.0375 161.486 77.7334 160.869 77.3189 160.329C76.9043 159.789 76.3874 159.336 75.7976 158.995L61.2321 150.586L99.2364 140.402C100.565 140.046 101.698 139.177 102.386 137.986C103.073 136.795 103.26 135.379 102.904 134.05C102.548 132.722 101.679 131.589 100.487 130.901C99.296 130.213 97.8804 130.027 96.5517 130.383L58.5473 140.566L66.9567 126.001C67.2992 125.411 67.5218 124.76 67.6117 124.084C67.7016 123.409 67.6571 122.722 67.4807 122.064C67.3043 121.406 66.9995 120.789 66.5839 120.248C66.1682 119.708 65.6498 119.256 65.0586 118.917C64.469 118.576 63.8179 118.354 63.1426 118.265C62.4673 118.176 61.7811 118.221 61.1231 118.397C60.4652 118.573 59.8484 118.877 59.3082 119.292C58.768 119.707 58.3148 120.225 57.9748 120.815L40.7122 150.714Z" fill="#17A0B5"/>
</svg>
