<svg width="22" height="19" viewBox="0 0 22 19" fill="none" xmlns="http://www.w3.org/2000/svg">
<g clip-path="url(#clip0_636_15679)">
<path d="M17.688 7.31819H17.838V7.16819V6.30455C17.838 6.17717 17.9218 6.02055 18.0728 5.88848C18.2219 5.75803 18.4082 5.67728 18.568 5.67728H21.3253C21.4741 5.67728 21.585 5.74749 21.6642 5.86125C21.7462 5.97914 21.7913 6.14208 21.7913 6.30455V13.9046C21.7913 14.0803 21.7631 14.2383 21.7035 14.347C21.6494 14.4456 21.5717 14.503 21.4427 14.503H18.568C18.4563 14.503 18.2923 14.4332 18.1507 14.3071C18.0092 14.1811 17.926 14.0315 17.926 13.9046V12.9833V12.8333H17.776H17.3653H17.2153V12.9833V15.2576C17.2153 15.46 17.1227 15.6852 16.9699 15.8608C16.8169 16.0365 16.6204 16.1439 16.4267 16.1439H9.15199C9.05851 16.1439 8.96184 16.1081 8.8619 16.0449C8.76271 15.9821 8.66977 15.8983 8.58427 15.8145L6.59145 13.7149L6.54709 13.6682H6.48266H3.87199C3.6939 13.6682 3.47873 13.6108 3.31154 13.5099C3.14138 13.4071 3.05399 13.2817 3.05399 13.1561V10.5076V10.3576H2.90399H2.49333H2.34333V10.5076V14.3076C2.34333 14.6827 2.03182 14.9924 1.64266 14.9924C1.2535 14.9924 0.941992 14.6827 0.941992 14.3076V6.01667C0.941992 5.64155 1.2535 5.33182 1.64266 5.33182C2.03182 5.33182 2.34333 5.64155 2.34333 6.01667V9.21213V9.36213H2.49333H2.90399H3.05399V9.21213V6.39092C3.05399 6.23457 3.15982 6.04128 3.33584 5.8785C3.51075 5.71674 3.71717 5.62038 3.87037 5.61971L6.30311 5.67724L6.38994 5.67929L6.43495 5.60501L7.07968 4.54085C7.29456 4.19876 7.63283 3.97879 7.97866 3.97879H10.0613H10.2113V3.82879V2.99395V2.84395H10.0613H8.21333C8.06173 2.84395 7.90933 2.76348 7.7906 2.62856C7.67178 2.49354 7.60066 2.31905 7.60066 2.1591C7.60066 1.79494 7.89991 1.47425 8.21333 1.47425H12.9653C13.1169 1.47425 13.2693 1.55471 13.3881 1.68963C13.5069 1.82465 13.578 1.99914 13.578 2.1591C13.578 2.52325 13.2787 2.84395 12.9653 2.84395H11.352H11.202V2.99395V3.82879V3.97879H11.352H13.4347C13.8369 3.97879 14.1723 4.22476 14.3574 4.55988L14.9424 5.76549L14.9834 5.85001H15.0773H16.4115C16.6662 5.90452 16.834 6.06775 16.834 6.24698V7.16819V7.31819H16.984H17.688ZM19.2687 12.9833V13.1333H19.4187H20.0607H20.2107H20.2693V12.9833H20.3607V7.16819V7.01819H20.2107H19.36H19.21V7.16819V7.25455V8.68789H17.864H17.0133H15.5177L15.4913 7.33798L15.4881 7.17402L15.3251 7.1918L15.0713 7.21947L14.1439 7.19347L13.715 6.35161L13.2456 5.4304L13.2039 5.34849H13.112H8.33066H8.24129L8.19875 5.42708L7.70008 6.3483L7.24396 7.19092H6.27733H4.63466H4.48466V7.34092V12.1485V12.2985H4.63466H6.54132H7.1768L7.63061 12.8225L7.63057 12.8225L7.6331 12.8253L9.36377 14.7253L9.40839 14.7742H9.47466H15.6347H15.7847V14.6242V13.0985V11.4636H17.336H17.8933H19.2687V12.9833Z" fill="black" stroke="white" stroke-width="0.3"/>
</g>
<defs>
<clipPath id="clip0_636_15679">
<rect width="22" height="19" fill="white"/>
</clipPath>
</defs>
</svg>
