<svg width="6" height="16" viewBox="0 0 6 16" fill="none" xmlns="http://www.w3.org/2000/svg">
<path d="M0.295668 3.22393C0.295654 3.22386 0.295639 3.22379 0.295624 3.22371C0.222988 2.86338 0.2372 2.4928 0.337418 2.13781C0.43768 1.78266 0.621925 1.45064 0.87856 1.16582C1.13526 0.880921 1.45813 0.650254 1.82505 0.491459C2.19201 0.332651 2.59322 0.25 3 0.25C3.40678 0.25 3.80799 0.332651 4.17495 0.491459L4.27424 0.262023L4.17495 0.491459C4.54187 0.650255 4.86474 0.880921 5.12144 1.16582C5.37807 1.45064 5.56232 1.78266 5.66258 2.13781C5.7628 2.49281 5.77701 2.86341 5.70437 3.22376C5.70435 3.22382 5.70434 3.22387 5.70433 3.22393L4.4669 9.30439C4.46689 9.30446 4.46688 9.30452 4.46686 9.30459C4.40412 9.6103 4.22676 9.89062 3.95972 10.0947C3.69225 10.2991 3.35288 10.4129 3 10.4129C2.64712 10.4129 2.30775 10.2991 2.04028 10.0947C1.77324 9.89062 1.59588 9.6103 1.53313 9.30459C1.53312 9.30452 1.53311 9.30446 1.5331 9.30439L0.295668 3.22393ZM4.91867 13.9996C4.91867 14.457 4.72186 14.9002 4.36398 15.2303C4.00542 15.5611 3.51509 15.75 3 15.75C2.48491 15.75 1.99458 15.5611 1.63602 15.2303C1.27814 14.9002 1.08133 14.457 1.08133 13.9996C1.08133 13.5422 1.27814 13.099 1.63602 12.7688C1.99458 12.4381 2.48491 12.2492 3 12.2492C3.51509 12.2492 4.00542 12.4381 4.36398 12.7688C4.72186 13.099 4.91867 13.5422 4.91867 13.9996Z" stroke="#858585" stroke-width="0.5"/>
</svg>
