<svg width="12" height="16" viewBox="0 0 12 16" fill="none" xmlns="http://www.w3.org/2000/svg">
<path d="M3.28105 1.15486L3.28104 1.15487C3.29159 1.16947 3.4989 1.46344 3.68788 1.92292C3.87651 2.38157 4.05218 3.01793 3.98398 3.71157M3.28105 1.15486L3.78494 3.692M3.28105 1.15486L3.2796 1.15291L2.61296 0.253479L3.56049 0.366412C3.6756 0.381974 5.05174 0.578602 6.63558 1.28859C8.22764 2.00225 10.0071 3.22422 10.945 5.27969L10.9451 5.27993C11.761 7.06177 12.0065 9.35539 11.6228 11.0806L11.6228 11.0806C11.1466 13.2237 10.251 14.6686 8.95486 15.4536L8.95454 15.4538C8.55588 15.6963 8.10516 15.8 7.64893 15.8H7.20403L7.85585 14.9797C8.78794 13.8822 8.8072 12.2501 8.55926 11.2013L8.5592 11.2011C8.47239 10.8359 8.35138 10.5036 8.20212 10.2154L7.82454 10.3045C7.81053 11.3035 7.38792 12.1243 6.81421 12.5708L6.81414 12.5709C6.19882 13.0503 5.32371 13.1413 4.55939 12.4351L4.29049 12.1866L4.22672 12.5472C4.10495 13.2356 4.08879 14.1874 4.62044 15.0295L5.06573 15.8M3.28105 1.15486L5.29673 15.8H5.06573M3.98398 3.71157L3.78494 3.692M3.98398 3.71157C3.98398 3.71156 3.98399 3.71155 3.98399 3.71154L3.78494 3.692M3.98398 3.71157C3.89643 4.60344 3.42006 5.41365 2.60373 6.11259L2.60115 6.1148L2.60113 6.11478C0.346419 7.97984 -0.322243 10.4671 0.603372 12.879M3.78494 3.692C3.7036 4.52067 3.26087 5.28667 2.47366 5.96067C0.158979 7.87533 -0.542522 10.4513 0.41665 12.9507M0.603372 12.879C0.60337 12.879 0.603367 12.879 0.603364 12.879L0.41665 12.9507M0.603372 12.879L0.41665 12.9507M0.603372 12.879C1.30128 14.6969 2.81715 15.8 4.42148 15.8H5.06573M0.41665 12.9507C1.1389 14.832 2.72041 16 4.42148 16H5.18132L5.06573 15.8M8.02452 10.3073L8.2245 10.3101C8.22263 10.4435 8.21416 10.5745 8.19951 10.7028C8.14675 10.5624 8.0882 10.4303 8.02452 10.3073ZM8.02452 10.3073L7.84691 10.3993C7.89999 10.5018 7.94954 10.6116 7.99503 10.7281C8.01246 10.5914 8.0225 10.4509 8.02452 10.3073ZM4.42366 12.582L4.62061 12.6168C4.61392 12.6546 4.60761 12.6931 4.60176 12.7322C4.54181 12.6863 4.48239 12.6363 4.42366 12.582ZM4.42366 12.582L4.28793 12.7289C4.32116 12.7596 4.35462 12.7891 4.38827 12.8173C4.39829 12.7363 4.41028 12.6577 4.42366 12.582ZM4.2962 1.45051L4.66008 1.55048C6.25535 1.98876 9.1498 3.119 10.3574 5.7636C11.0632 7.30525 11.2943 9.24277 10.9574 10.8334C10.682 12.146 10.2443 13.1499 9.60214 13.8668L9.0983 14.4292L9.25768 13.6911C9.46615 12.7256 9.40885 11.7267 9.21922 10.9233C8.86938 9.4441 8.05461 8.43608 7.15121 8.20791L7.15077 8.2078L6.3632 8.00698L6.80138 8.91987C6.80145 8.92001 6.80152 8.92015 6.80158 8.9203C7.41077 10.1734 7.10107 11.2735 6.47319 11.7617L4.2962 1.45051ZM4.2962 1.45051L4.41775 1.80776M4.2962 1.45051L4.41775 1.80776M4.41775 1.80776C4.60716 2.36442 4.74422 3.05816 4.67275 3.81715C4.56208 4.98591 3.99351 6.02463 2.96451 6.90562M4.41775 1.80776L2.96451 6.90562M4.48597 11.0562L4.4859 11.056L4.16665 10.4833L3.90694 11.1085C3.90693 11.1086 3.90691 11.1086 3.9069 11.1086C3.76612 11.4486 3.22663 12.9048 3.58915 14.4236L3.67845 14.7977L3.3209 14.6559C2.47221 14.3194 1.62456 13.5709 1.18686 12.3693L4.48597 11.0562ZM4.48597 11.0562C4.78436 11.5906 5.13785 11.8839 5.50677 11.9788M4.48597 11.0562L5.50677 11.9788M5.50677 11.9788C5.87694 12.074 6.22077 11.9585 6.47293 11.7619L5.50677 11.9788ZM2.96451 6.90562C1.66348 7.98182 0.258137 9.82535 1.18683 12.3692L2.96451 6.90562Z" fill="#7D7D7D" stroke="white" stroke-width="0.4"/>
</svg>
