<svg width="256" height="256" viewBox="0 0 256 256" fill="none" xmlns="http://www.w3.org/2000/svg">
<rect x="2" y="2" width="252" height="252" stroke="#17A0B5" stroke-width="4"/>
<path d="M238 39V178.062C238 199.582 220.562 217 199.016 217C177.784 217 160.554 200.069 160.032 179.001L32.0805 213.836C26.1285 215.436 20.0372 211.959 18.4013 206.014C16.7653 200.069 20.2808 193.985 26.2329 192.351L137.755 162.001V61.25C137.755 48.9777 147.745 39 160.032 39H238ZM215.723 178.062C215.723 173.637 213.963 169.392 210.83 166.263C207.697 163.133 203.447 161.375 199.016 161.375C194.585 161.375 190.335 163.133 187.202 166.263C184.069 169.392 182.308 173.637 182.308 178.062C182.308 182.488 184.069 186.733 187.202 189.862C190.335 192.992 194.585 194.75 199.016 194.75C203.447 194.75 207.697 192.992 210.83 189.862C213.963 186.733 215.723 182.488 215.723 178.062Z" fill="#17A0B5"/>
<path d="M102.904 134.048L73.0039 116.786C72.4141 116.445 71.763 116.224 71.0879 116.135C70.4127 116.046 69.7266 116.091 69.0688 116.268C68.411 116.444 67.7944 116.748 67.2541 117.163C66.7138 117.577 66.2605 118.094 65.92 118.684C65.5795 119.274 65.3585 119.925 65.2696 120.6C65.1807 121.275 65.2257 121.961 65.402 122.619C65.5782 123.277 65.8823 123.893 66.2969 124.434C66.7114 124.974 67.2284 125.427 67.8181 125.768L82.3837 134.177L44.3793 144.36C43.0506 144.716 41.9178 145.586 41.23 146.777C40.5422 147.968 40.3559 149.384 40.7119 150.712C41.0679 152.041 41.9372 153.174 43.1284 153.862C44.3197 154.55 45.7354 154.736 47.0641 154.38L85.0684 144.197L76.659 158.762C76.3165 159.351 76.0939 160.003 76.004 160.678C75.9141 161.354 75.9586 162.041 76.135 162.699C76.3114 163.357 76.6162 163.974 77.0319 164.514C77.4475 165.054 77.9659 165.507 78.5571 165.846C79.1467 166.187 79.7978 166.409 80.4731 166.498C81.1484 166.587 81.8347 166.542 82.4926 166.366C83.1506 166.19 83.7673 165.885 84.3075 165.47C84.8478 165.055 85.3009 164.538 85.641 163.948L102.904 134.048Z" fill="#17A0B5"/>
</svg>
