<svg width="201" height="200" viewBox="0 0 201 200" fill="none" xmlns="http://www.w3.org/2000/svg">
<g clip-path="url(#clip0_2_41273)">
<path d="M91.5 121C125.695 110.478 139.262 92.185 139.262 65.0044C139.262 43.2599 139.262 47.0303 119.972 47.0302L55.0901 47.0302C43.6902 47.0302 42.9896 43.9617 43.691 75.5263C44.3924 107.091 79.2249 118.077 91.5 121ZM91.5 121C91.5 161.5 91.1003 162.801 93 168.5C103.5 200 148.902 194.185 154 159" stroke="#17A0B5" stroke-width="17" stroke-linecap="round"/>
<path d="M66.25 23.2374C66.25 21.1733 67.9233 19.5 69.9874 19.5C72.0515 19.5 73.7248 21.1733 73.7248 23.2374V43.8309H66.25V23.2374Z" stroke="#17A0B5" stroke-width="11.2374"/>
<path d="M110.398 23.6387C110.398 21.353 112.251 19.5 114.537 19.5C116.823 19.5 118.676 21.353 118.676 23.6387V43.8309H110.398V23.6387Z" stroke="#17A0B5" stroke-width="11.6387"/>
</g>
<defs>
<clipPath id="clip0_2_41273">
<rect width="200" height="200" fill="white" transform="translate(0.5)"/>
</clipPath>
</defs>
</svg>
