<svg width="36" height="50" viewBox="0 0 36 50" fill="none" xmlns="http://www.w3.org/2000/svg">
<path d="M15.9005 28.3837C25.8031 25.3523 29.7318 20.0817 29.7318 12.2506C29.7318 5.98575 29.7318 7.07205 24.1457 7.07199L5.3564 7.07199C2.05507 7.07199 1.85218 6.18793 2.05531 15.2821C2.25844 24.3763 12.3457 27.5417 15.9005 28.3837ZM15.9005 28.3837C15.9005 40.0523 15.7847 40.4271 16.3348 42.0691C19.3756 51.1447 32.5235 49.4694 34 39.332" stroke="#17A0B5" stroke-width="4" stroke-linecap="round"/>
<path d="M6 2C6 1.44772 6.44772 1 7 1C7.55228 1 8 1.44772 8 2V7H6V2Z" fill="#17A0B5" stroke="#17A0B5" stroke-width="2"/>
<path d="M22 2C22 1.44772 22.4477 1 23 1C23.5523 1 24 1.44772 24 2V7H22V2Z" fill="#17A0B5" stroke="#17A0B5" stroke-width="2"/>
</svg>
