<svg width="25" height="20" viewBox="0 0 25 20" fill="none" xmlns="http://www.w3.org/2000/svg">
<path d="M23.7229 0H1.27715C0.572932 0 0 0.864772 0 1.92751V18.0725C0 19.1353 0.572932 20 1.27715 20H23.7229C24.4271 20 25 19.1353 25 18.0725V1.92751C25 0.864686 24.4271 0 23.7229 0ZM24.1056 18.0725C24.1056 18.391 23.9339 18.6502 23.7229 18.6502H1.27715C1.06609 18.6502 0.894355 18.391 0.894355 18.0725V15.5007H24.1056V18.0725ZM24.1056 14.1509H0.894355V5.84908H24.1056V14.1509ZM24.1056 4.49929H0.894355V1.92751C0.894355 1.60898 1.06609 1.34979 1.27715 1.34979H23.7229C23.9339 1.34979 24.1056 1.60898 24.1056 1.92751V4.49929Z" fill="black"/>
<path d="M3.6295 6.67283H2.57355L1.83897 13.6018H2.50141L2.62603 12.3447H3.51144L3.63605 13.6018H4.36408L3.6295 6.67283ZM2.71782 11.4042L3.06546 7.90016L3.41309 11.4042H2.71782Z" fill="black"/>
<path d="M6.63986 9.90945C6.96122 9.68182 7.10549 9.22647 7.10549 8.51374V8.26624C7.10549 7.19723 6.78413 6.67257 6.03644 6.67257H4.94773V13.6015H6.08236C6.80379 13.6016 7.17763 13.0275 7.17763 11.9585V11.3942C7.17769 10.6617 7.02686 10.1371 6.63986 9.90945ZM5.6692 7.66255H6.01684C6.27262 7.66255 6.38413 7.88029 6.38413 8.37529V8.76123C6.38413 9.31556 6.22014 9.49383 5.95125 9.49383H5.6692V7.66255ZM6.45627 11.9289C6.45627 12.4436 6.3251 12.6119 6.08242 12.6119H5.6692V10.4836H5.99057C6.31849 10.4836 6.45621 10.6816 6.45621 11.325V11.9289H6.45627Z" fill="black"/>
<path d="M9.95192 9.00873V8.33564C9.95192 7.22699 9.58463 6.59354 8.87631 6.59354C8.168 6.59354 7.8007 7.22707 7.8007 8.33564V11.9387C7.8007 13.0473 8.16794 13.6808 8.87631 13.6808C9.58463 13.6808 9.95192 13.0473 9.95192 11.9387V11.0182H9.26982V12.008C9.26982 12.5029 9.12554 12.681 8.89597 12.681C8.6664 12.681 8.52213 12.5029 8.52213 12.008V8.26633C8.52213 7.77142 8.6664 7.58335 8.89597 7.58335C9.12554 7.58335 9.26982 7.77142 9.26982 8.26633V9.00873H9.95192Z" fill="black"/>
<path d="M13.1852 9.64209H11.8734V10.6319H13.1852V9.64209Z" fill="black"/>
<path d="M16.4317 6.67274C16.3202 7.13798 16.1955 7.54379 15.638 7.54379V8.31586H16.1955V13.6017H16.917V6.67274H16.4317Z" fill="black"/>
<path d="M18.7599 12.6118C18.7534 12.5622 18.7534 12.5128 18.7534 12.4633C18.7534 11.3249 20.1898 10.5132 20.1898 8.33564C20.1898 7.22699 19.8225 6.59354 19.1142 6.59354C18.4058 6.59354 18.0385 7.22707 18.0385 8.33564V9.00873H18.7206V8.26633C18.7206 7.77142 18.8649 7.58335 19.0945 7.58335C19.3241 7.58335 19.4683 7.75165 19.4683 8.3752C19.4683 10.3747 18.0386 10.7113 18.0386 12.7503V13.6016H20.1242V12.6118H18.7599Z" fill="black"/>
<path d="M22.9968 8.51382V8.33564C22.9968 7.22699 22.6295 6.59354 21.9212 6.59354C21.2128 6.59354 20.8455 7.22707 20.8455 8.33564V8.71179H21.5276V8.26633C21.5276 7.77142 21.6719 7.58335 21.9015 7.58335C22.1311 7.58335 22.2753 7.75165 22.2753 8.3752V8.76115C22.2753 9.31547 22.1114 9.49374 21.8425 9.49374H21.5605V10.4836H21.8031C22.1311 10.4836 22.2754 10.7212 22.2754 11.3645V11.9089C22.2754 12.5226 22.1311 12.6909 21.9016 12.6909C21.672 12.6909 21.5277 12.5028 21.5277 12.0079V11.3645H20.8456V11.9386C20.8456 13.0473 21.2129 13.6807 21.9212 13.6807C22.6295 13.6807 22.9968 13.0472 22.9968 11.9386V11.3942C22.9968 10.6914 22.8525 10.1766 22.4918 9.93912C22.8393 9.72146 22.9968 9.25622 22.9968 8.51382Z" fill="black"/>
<path d="M5.26003 3.67571C5.5306 3.67571 5.74994 3.34467 5.74994 2.93632C5.74994 2.52797 5.5306 2.19693 5.26003 2.19693C4.98946 2.19693 4.77012 2.52797 4.77012 2.93632C4.77012 3.34467 4.98946 3.67571 5.26003 3.67571Z" fill="black"/>
<path d="M5.26003 17.8179C5.5306 17.8179 5.74994 17.4869 5.74994 17.0786C5.74994 16.6702 5.5306 16.3392 5.26003 16.3392C4.98946 16.3392 4.77012 16.6702 4.77012 17.0786C4.77012 17.4869 4.98946 17.8179 5.26003 17.8179Z" fill="black"/>
<path d="M19.7402 3.67571C20.0108 3.67571 20.2302 3.34467 20.2302 2.93632C20.2302 2.52797 20.0108 2.19693 19.7402 2.19693C19.4697 2.19693 19.2503 2.52797 19.2503 2.93632C19.2503 3.34467 19.4697 3.67571 19.7402 3.67571Z" fill="black"/>
<path d="M19.7402 17.8179C20.0108 17.8179 20.2302 17.4869 20.2302 17.0786C20.2302 16.6702 20.0108 16.3392 19.7402 16.3392C19.4697 16.3392 19.2503 16.6702 19.2503 17.0786C19.2503 17.4869 19.4697 17.8179 19.7402 17.8179Z" fill="black"/>
</svg>
