<svg width="32" height="32" viewBox="0 0 32 32" fill="none" xmlns="http://www.w3.org/2000/svg">
<g clip-path="url(#clip0_880_6714)">
<mask id="path-1-inside-1_880_6714" fill="white">
<path d="M16 6.0249C15.4788 6.0249 14.9694 6.17944 14.5361 6.46898C14.1027 6.75852 13.765 7.17005 13.5656 7.65153C13.3661 8.13301 13.314 8.66283 13.4156 9.17396C13.5173 9.6851 13.7683 10.1546 14.1368 10.5231C14.5053 10.8916 14.9748 11.1426 15.4859 11.2443C15.9971 11.3459 16.5269 11.2938 17.0084 11.0943C17.4898 10.8949 17.9014 10.5572 18.1909 10.1238C18.4805 9.69051 18.635 9.18106 18.635 8.6599C18.6337 7.96146 18.3556 7.29201 17.8618 6.79814C17.3679 6.30426 16.6984 6.02622 16 6.0249ZM16 10.2949C15.6766 10.2949 15.3605 10.199 15.0916 10.0194C14.8228 9.8397 14.6132 9.58435 14.4894 9.28559C14.3657 8.98683 14.3333 8.65809 14.3964 8.34093C14.4595 8.02377 14.6152 7.73244 14.8439 7.50378C15.0725 7.27512 15.3639 7.11941 15.681 7.05632C15.9982 6.99323 16.3269 7.02561 16.6257 7.14936C16.9244 7.27311 17.1798 7.48267 17.3594 7.75154C17.5391 8.02042 17.635 8.33653 17.635 8.6599C17.635 9.09399 17.4629 9.51038 17.1564 9.81779C16.8499 10.1252 16.4341 10.2986 16 10.2999V10.2949Z"/>
</mask>
<path d="M16 6.0249C15.4788 6.0249 14.9694 6.17944 14.5361 6.46898C14.1027 6.75852 13.765 7.17005 13.5656 7.65153C13.3661 8.13301 13.314 8.66283 13.4156 9.17396C13.5173 9.6851 13.7683 10.1546 14.1368 10.5231C14.5053 10.8916 14.9748 11.1426 15.4859 11.2443C15.9971 11.3459 16.5269 11.2938 17.0084 11.0943C17.4898 10.8949 17.9014 10.5572 18.1909 10.1238C18.4805 9.69051 18.635 9.18106 18.635 8.6599C18.6337 7.96146 18.3556 7.29201 17.8618 6.79814C17.3679 6.30426 16.6984 6.02622 16 6.0249ZM16 10.2949C15.6766 10.2949 15.3605 10.199 15.0916 10.0194C14.8228 9.8397 14.6132 9.58435 14.4894 9.28559C14.3657 8.98683 14.3333 8.65809 14.3964 8.34093C14.4595 8.02377 14.6152 7.73244 14.8439 7.50378C15.0725 7.27512 15.3639 7.11941 15.681 7.05632C15.9982 6.99323 16.3269 7.02561 16.6257 7.14936C16.9244 7.27311 17.1798 7.48267 17.3594 7.75154C17.5391 8.02042 17.635 8.33653 17.635 8.6599C17.635 9.09399 17.4629 9.51038 17.1564 9.81779C16.8499 10.1252 16.4341 10.2986 16 10.2999V10.2949Z" fill="#1B9FE8"/>
<path d="M16 6.0249L16.0038 4.0249H16V6.0249ZM18.635 8.6599H20.635L20.635 8.65612L18.635 8.6599ZM16 10.2949H18V8.2949H16V10.2949ZM17.635 8.6599H15.635V8.65991L17.635 8.6599ZM16 10.2999H14V12.306L16.0061 12.2999L16 10.2999ZM16 4.0249C15.0833 4.0249 14.1871 4.29674 13.4249 4.80604L15.6472 8.13192C15.7516 8.06214 15.8744 8.0249 16 8.0249V4.0249ZM13.4249 4.80604C12.6627 5.31534 12.0686 6.03923 11.7178 6.88616L15.4133 8.4169C15.4614 8.30087 15.5428 8.20169 15.6472 8.13192L13.4249 4.80604ZM11.7178 6.88616C11.367 7.7331 11.2752 8.66504 11.4541 9.56415L15.3772 8.78378C15.3527 8.66061 15.3653 8.53293 15.4133 8.4169L11.7178 6.88616ZM11.4541 9.56415C11.6329 10.4632 12.0743 11.2891 12.7226 11.9373L15.551 9.10892C15.4622 9.02011 15.4017 8.90696 15.3772 8.78378L11.4541 9.56415ZM12.7226 11.9373C13.3708 12.5856 14.1966 13.027 15.0957 13.2058L15.8761 9.2827C15.7529 9.2582 15.6398 9.19772 15.551 9.10892L12.7226 11.9373ZM15.0957 13.2058C15.9949 13.3847 16.9268 13.2929 17.7737 12.9421L16.243 9.24657C16.127 9.29463 15.9993 9.3072 15.8761 9.2827L15.0957 13.2058ZM17.7737 12.9421C18.6207 12.5913 19.3446 11.9972 19.8539 11.235L16.528 9.01269C16.4582 9.11712 16.359 9.1985 16.243 9.24657L17.7737 12.9421ZM19.8539 11.235C20.3632 10.4728 20.635 9.57662 20.635 8.6599H16.635C16.635 8.78549 16.5978 8.90826 16.528 9.01269L19.8539 11.235ZM20.635 8.65612C20.6327 7.42856 20.144 6.25194 19.276 5.38392L16.4475 8.21235C16.5673 8.33208 16.6347 8.49437 16.635 8.66369L20.635 8.65612ZM19.276 5.38392C18.408 4.5159 17.2313 4.02723 16.0038 4.02491L15.9962 8.0249C16.1655 8.02522 16.3278 8.09262 16.4475 8.21235L19.276 5.38392ZM16 8.2949C16.0722 8.2949 16.1428 8.31631 16.2028 8.35642L13.9805 11.6823C14.5783 12.0817 15.2811 12.2949 16 12.2949V8.2949ZM16.2028 8.35642C16.2628 8.39652 16.3096 8.45353 16.3372 8.52022L12.6417 10.051C12.9168 10.7152 13.3827 11.2829 13.9805 11.6823L16.2028 8.35642ZM16.3372 8.52022C16.3648 8.58692 16.3721 8.6603 16.358 8.73111L12.4348 7.95075C12.2946 8.65587 12.3666 9.38675 12.6417 10.051L16.3372 8.52022ZM16.358 8.73111C16.3439 8.80192 16.3091 8.86695 16.2581 8.918L13.4297 6.08957C12.9213 6.59793 12.5751 7.24563 12.4348 7.95075L16.358 8.73111ZM16.2581 8.918C16.207 8.96904 16.142 9.0038 16.0712 9.01789L15.2908 5.09475C14.5857 5.23501 13.938 5.58121 13.4297 6.08957L16.2581 8.918ZM16.0712 9.01789C16.0004 9.03197 15.927 9.02474 15.8603 8.99712L17.391 5.3016C16.7268 5.02648 15.996 4.95449 15.2908 5.09475L16.0712 9.01789ZM15.8603 8.99712C15.7936 8.96949 15.7366 8.92271 15.6965 8.86269L19.0224 6.6404C18.623 6.04263 18.0553 5.57672 17.391 5.3016L15.8603 8.99712ZM15.6965 8.86269C15.6564 8.80266 15.635 8.73209 15.635 8.6599H19.635C19.635 7.94097 19.4218 7.23818 19.0224 6.6404L15.6965 8.86269ZM15.635 8.65991C15.635 8.56462 15.6728 8.47322 15.74 8.40574L18.5728 11.2298C19.253 10.5475 19.635 9.62336 19.635 8.65989L15.635 8.65991ZM15.74 8.40574C15.8073 8.33826 15.8986 8.3002 15.9939 8.29991L16.0061 12.2999C16.9696 12.297 17.8926 11.9122 18.5728 11.2298L15.74 8.40574ZM18 10.2999V10.2949H14V10.2999H18Z" fill="#1B9FE8" mask="url(#path-1-inside-1_880_6714)"/>
<path d="M15.9999 1.71495C14.1579 1.7176 12.3922 2.45084 11.0902 3.75379C9.78822 5.05673 9.05625 6.82297 9.05493 8.66495C9.05666 9.04894 9.09179 9.43205 9.15993 9.80995C9.3019 11.3489 9.83928 12.825 10.7199 14.095L15.5949 21.0949C15.641 21.161 15.7023 21.2149 15.7737 21.2521C15.8451 21.2893 15.9244 21.3088 16.0049 21.3088C16.0854 21.3088 16.1648 21.2893 16.2361 21.2521C16.3075 21.2149 16.3689 21.161 16.4149 21.0949L21.2899 14.095C22.1646 12.8372 22.7002 11.3751 22.8449 9.84995C23.024 8.85121 22.981 7.82531 22.7191 6.84504C22.4572 5.86476 21.9828 4.95413 21.3296 4.17775C20.6763 3.40137 19.8602 2.77826 18.9391 2.35264C18.018 1.92701 17.0146 1.7093 15.9999 1.71495ZM21.8449 9.71495C21.7171 11.0741 21.2419 12.3775 20.4649 13.5L15.9999 19.95L11.5399 13.5C10.7514 12.3603 10.2724 11.0354 10.1499 9.65495C10.0069 8.84188 10.0347 8.00793 10.2317 7.20622C10.4287 6.40451 10.7906 5.65262 11.2941 4.99845C11.7977 4.34427 12.432 3.80214 13.1567 3.40661C13.8813 3.01107 14.6804 2.7708 15.503 2.70108C16.3256 2.63137 17.1537 2.73375 17.9346 3.0017C18.7154 3.26965 19.4319 3.6973 20.0384 4.25741C20.6449 4.81751 21.1281 5.49779 21.4572 6.25491C21.7863 7.01204 21.9541 7.8294 21.9499 8.65495C21.947 9.01215 21.9136 9.36845 21.8499 9.71995L21.8449 9.71495Z" fill="#1B9FE8" stroke="#1B9FE8"/>
<path d="M28.045 13.5H24.045C23.9123 13.5 23.7852 13.5527 23.6914 13.6465C23.5976 13.7402 23.545 13.8674 23.545 14C23.545 14.1326 23.5976 14.2598 23.6914 14.3536C23.7852 14.4473 23.9123 14.5 24.045 14.5H27.58L29.41 29.305H2.56495L4.40495 14.5H7.93495C8.06756 14.5 8.19474 14.4473 8.28851 14.3536C8.38227 14.2598 8.43495 14.1326 8.43495 14C8.43495 13.8674 8.38227 13.7402 8.28851 13.6465C8.19474 13.5527 8.06756 13.5 7.93495 13.5H3.95995C3.83711 13.4991 3.71825 13.5435 3.62603 13.6246C3.53381 13.7058 3.47469 13.8181 3.45995 13.94L1.49995 29.72C1.49143 29.7905 1.49802 29.8621 1.5193 29.9298C1.54059 29.9976 1.57606 30.0601 1.62337 30.113C1.67068 30.166 1.72873 30.2083 1.79367 30.2371C1.8586 30.2659 1.92892 30.2805 1.99995 30.28H30C30.071 30.2805 30.1413 30.2659 30.2062 30.2371C30.2712 30.2083 30.3292 30.166 30.3765 30.113C30.4238 30.0601 30.4593 29.9976 30.4806 29.9298C30.5019 29.8621 30.5085 29.7905 30.5 29.72L28.54 13.92C28.5209 13.8026 28.4606 13.6957 28.3699 13.6188C28.2792 13.5418 28.1639 13.4997 28.045 13.5Z" fill="#1B9FE8" stroke="#1B9FE8"/>
<path d="M2.75 22.5L9 26.5L19.75 22L29.5 25" stroke="#1B9FE8" stroke-width="2"/>
</g>
<defs>
<clipPath id="clip0_880_6714">
<rect width="32" height="32" fill="white"/>
</clipPath>
</defs>
</svg>
