<svg width="18" height="18" viewBox="0 0 18 18" fill="none" xmlns="http://www.w3.org/2000/svg">
<path d="M5.01605 8.74792C5.17057 8.74792 5.32187 8.8091 5.4396 8.92306L5.45952 8.94411C5.51932 9.00735 5.56747 9.0832 5.60055 9.16768C5.63364 9.25217 5.65083 9.34319 5.65083 9.43542C5.65083 9.52764 5.63364 9.61866 5.60055 9.70316C5.56747 9.78763 5.51932 9.86349 5.45952 9.92673L5.45937 9.92688L3.84172 11.6401L3.44362 12.0618H4.0235H12.5412C12.705 12.0618 12.8651 12.1305 12.9855 12.258C13.1064 12.3859 13.1766 12.5623 13.1766 12.749C13.1766 12.9357 13.1064 13.1121 12.9855 13.24C12.8651 13.3675 12.705 13.4362 12.5412 13.4362H4.0235H3.4434L3.84177 13.8579L5.46031 15.5712L5.46037 15.5712C5.52013 15.6345 5.56825 15.7103 5.60133 15.7947C5.63441 15.8792 5.65161 15.9701 5.65164 16.0623C5.65167 16.1545 5.63453 16.2455 5.60151 16.33C5.56849 16.4145 5.52042 16.4903 5.46069 16.5536C5.40099 16.6168 5.33088 16.6662 5.25476 16.6996C5.17869 16.733 5.0977 16.75 5.01627 16.75C4.93484 16.75 4.85383 16.7331 4.77774 16.6998C4.70161 16.6664 4.63147 16.6171 4.57173 16.5539L1.44099 13.24C1.32017 13.112 1.25 12.9357 1.25 12.749C1.25 12.5623 1.32017 12.386 1.44099 12.258L4.57176 8.94404C4.69216 8.81663 4.85229 8.74792 5.01605 8.74792ZM12.945 1.2513C13.0929 1.24145 13.2409 1.2879 13.3623 1.38526L13.4335 1.45181L16.559 4.7602C16.559 4.7602 16.559 4.76021 16.559 4.76021C16.6699 4.87762 16.7385 5.03631 16.7487 5.20723C16.7587 5.37567 16.7109 5.54066 16.6168 5.67203L16.5537 5.74769L13.4284 9.05489C13.4284 9.05492 13.4284 9.05495 13.4284 9.05498C13.3128 9.17682 13.1607 9.24489 13.0038 9.24996C12.8469 9.25503 12.6916 9.19694 12.5698 9.08325C12.4476 8.96917 12.3684 8.80738 12.3524 8.62951C12.3366 8.45415 12.3839 8.28057 12.4819 8.14323L12.545 8.06768L14.1573 6.36001L14.5554 5.93838H13.9755H5.45816C5.3007 5.9382 5.14651 5.8745 5.02775 5.75582C4.90858 5.63673 4.8345 5.47125 4.82458 5.29223C4.81465 5.11319 4.86993 4.93879 4.97598 4.80466C5.08014 4.67294 5.22447 4.59072 5.3785 4.56945L5.46578 4.56392H13.9764H14.5561L14.1583 4.14234L12.5397 2.4272L12.5397 2.42713C12.4188 2.2992 12.3487 2.12283 12.3487 1.93616C12.3487 1.74975 12.4187 1.57424 12.5397 1.44613C12.6502 1.3291 12.7947 1.2613 12.945 1.2513Z" fill="#FF922E" stroke="white" stroke-width="0.5"/>
</svg>
