<svg width="200" height="200" viewBox="0 0 200 200" fill="none" xmlns="http://www.w3.org/2000/svg">
<path d="M178 175.5H173.285V69.1816C173.285 67.8 172.167 66.6816 170.785 66.6816H157.742V45.1484C157.742 43.7668 156.624 42.6484 155.242 42.6484H144.1V22C144.1 20.6184 142.981 19.5 141.6 19.5H58.4023C57.0207 19.5 55.9023 20.6184 55.9023 22V42.6484H44.7598C43.3782 42.6484 42.2598 43.7668 42.2598 45.1484V66.6816H29.2148C27.8332 66.6816 26.7148 67.8 26.7148 69.1816V175.5H22C20.6184 175.5 19.5 176.618 19.5 178C19.5 179.382 20.6184 180.5 22 180.5H178C179.382 180.5 180.5 179.382 180.5 178C180.5 176.618 179.382 175.5 178 175.5ZM60.9023 24.5H139.1V42.6484H60.9023V24.5ZM47.2598 47.6484H152.742V66.6816H47.2598V47.6484ZM31.7148 71.6816H168.285V175.5H141.324V161.036C148.107 159.846 153.285 153.929 153.285 146.807C153.285 138.833 146.798 132.346 138.824 132.346C130.849 132.346 124.361 138.833 124.361 146.807C124.361 153.929 129.54 159.847 136.324 161.036V175.5H116.871V152.881C116.871 143.577 109.303 136.01 100 136.01C90.6965 136.01 83.1289 143.577 83.1289 152.881V175.5H63.6758V161.036C70.4601 159.847 75.6387 153.929 75.6387 146.807C75.6387 138.833 69.1511 132.346 61.1758 132.346C53.2024 132.346 46.7148 138.833 46.7148 146.807C46.7148 153.929 51.8929 159.846 58.6758 161.036V175.5H31.7148V71.6816ZM138.824 156.27C133.606 156.27 129.361 152.025 129.361 146.807C129.361 141.591 133.606 137.346 138.824 137.346C144.04 137.346 148.285 141.591 148.285 146.807C148.285 152.025 144.04 156.27 138.824 156.27ZM88.1289 175.5V152.881C88.1289 146.335 93.4539 141.01 100 141.01C106.546 141.01 111.871 146.335 111.871 152.881V175.5H88.1289ZM61.1758 156.27C55.9598 156.27 51.7148 152.025 51.7148 146.807C51.7148 141.591 55.9597 137.346 61.1758 137.346C66.3938 137.346 70.6387 141.591 70.6387 146.807C70.6387 152.025 66.3938 156.27 61.1758 156.27Z" fill="#1B9FE8" stroke="#1B9FE8"/>
<path d="M125.504 122.189H147.613C148.995 122.189 150.113 121.071 150.113 119.689V100.4C150.113 92.925 144.034 86.8457 136.559 86.8457C129.083 86.8457 123.004 92.925 123.004 100.4V119.689C123.004 121.071 124.122 122.189 125.504 122.189ZM128.004 100.4C128.004 95.6843 131.843 91.8457 136.559 91.8457C141.275 91.8457 145.113 95.6843 145.113 100.4V117.189H128.004V100.4Z" fill="#1B9FE8" stroke="#1B9FE8"/>
<path d="M88.9453 122.189H111.055C112.436 122.189 113.555 121.071 113.555 119.689V100.4C113.555 92.925 107.475 86.8457 100 86.8457C92.5246 86.8457 86.4453 92.925 86.4453 100.4V119.689C86.4453 121.071 87.5637 122.189 88.9453 122.189ZM91.4453 100.4C91.4453 95.6843 95.284 91.8457 100 91.8457C104.716 91.8457 108.555 95.6843 108.555 100.4V117.189H91.4453V100.4Z" fill="#1B9FE8" stroke="#1B9FE8"/>
<path d="M52.3867 122.189H74.4961C75.8777 122.189 76.9961 121.071 76.9961 119.689V100.4C76.9961 92.925 70.9168 86.8457 63.4414 86.8457C55.966 86.8457 49.8867 92.925 49.8867 100.4V119.689C49.8867 121.071 51.0051 122.189 52.3867 122.189ZM54.8867 100.4C54.8867 95.6843 58.7254 91.8457 63.4414 91.8457C68.1575 91.8457 71.9961 95.6843 71.9961 100.4V117.189H54.8867V100.4Z" fill="#1B9FE8" stroke="#1B9FE8"/>
</svg>
