<svg width="186" height="186" viewBox="0 0 186 186" fill="none" xmlns="http://www.w3.org/2000/svg">
<path d="M104.458 67.2941L104.125 67.4119V67.7655V161.785V162.376L104.708 162.278C130.097 158.02 150.866 140.143 159.253 116.417L159.488 115.75H158.781H140V93.5H185.499C185.23 144.357 143.92 185.5 93 185.5C42.0804 185.5 0.770489 144.357 0.501323 93.5H46V115.75H27.2189H26.5119L26.7475 116.417C35.1335 140.143 55.9031 158.02 81.2923 162.278L81.875 162.376V161.785V67.7655V67.4119L81.5416 67.2941C68.1898 62.575 58.625 49.8413 58.625 34.875C58.625 15.8903 74.0153 0.5 93 0.5C111.985 0.5 127.375 15.8903 127.375 34.875C127.375 49.8413 117.81 62.575 104.458 67.2941ZM93 47C99.6965 47 105.125 41.5714 105.125 34.875C105.125 28.1786 99.6965 22.75 93 22.75C86.3036 22.75 80.875 28.1786 80.875 34.875C80.875 41.5714 86.3036 47 93 47Z" fill="#1B9FE8" stroke="white"/>
</svg>
