<svg width="39" height="13" viewBox="0 0 39 13" fill="none" xmlns="http://www.w3.org/2000/svg">
<path fill-rule="evenodd" clip-rule="evenodd" d="M10.1562 7.3125C10.1562 7.08817 10.3382 6.90625 10.5625 6.90625H16.25C16.4743 6.90625 16.6562 7.08817 16.6562 7.3125C16.6562 7.53683 16.4743 7.71875 16.25 7.71875H10.5625C10.3382 7.71875 10.1562 7.53683 10.1562 7.3125Z" fill="#A9A9A9"/>
<path fill-rule="evenodd" clip-rule="evenodd" d="M22.3438 7.3125C22.3438 7.08817 22.5257 6.90625 22.75 6.90625H27.625C27.8493 6.90625 28.0312 7.08817 28.0312 7.3125C28.0312 7.53683 27.8493 7.71875 27.625 7.71875H22.75C22.5257 7.71875 22.3438 7.53683 22.3438 7.3125Z" fill="#A9A9A9"/>
<path fill-rule="evenodd" clip-rule="evenodd" d="M7.3125 6.09375C6.6394 6.09375 6.09375 6.63943 6.09375 7.3125C6.09375 7.98557 6.6394 8.53125 7.3125 8.53125C7.9856 8.53125 8.53125 7.98557 8.53125 7.3125C8.53125 6.63943 7.9856 6.09375 7.3125 6.09375ZM5.28125 7.3125C5.28125 6.19068 6.19067 5.28125 7.3125 5.28125C8.43432 5.28125 9.34375 6.19068 9.34375 7.3125C9.34375 8.43432 8.43432 9.34375 7.3125 9.34375C6.19067 9.34375 5.28125 8.43432 5.28125 7.3125Z" fill="#A9A9A9"/>
<path fill-rule="evenodd" clip-rule="evenodd" d="M19.5 6.09375C18.8269 6.09375 18.2812 6.63943 18.2812 7.3125C18.2812 7.98557 18.8269 8.53125 19.5 8.53125C20.1731 8.53125 20.7188 7.98557 20.7188 7.3125C20.7188 6.63943 20.1731 6.09375 19.5 6.09375ZM17.4688 7.3125C17.4688 6.19068 18.3782 5.28125 19.5 5.28125C20.6218 5.28125 21.5312 6.19068 21.5312 7.3125C21.5312 8.43432 20.6218 9.34375 19.5 9.34375C18.3782 9.34375 17.4688 8.43432 17.4688 7.3125Z" fill="#A9A9A9"/>
<path fill-rule="evenodd" clip-rule="evenodd" d="M31.258 4.8784C31.3328 5.08989 31.2219 5.32203 31.0104 5.39678C30.2209 5.67587 29.6562 6.42881 29.6562 7.31257C29.6562 8.43439 30.5657 9.34382 31.6875 9.34382C32.5713 9.34382 33.3242 8.77913 33.6033 7.98971C33.678 7.77813 33.9102 7.66722 34.1217 7.74206C34.3332 7.81681 34.4441 8.04894 34.3693 8.26043C33.9792 9.36437 32.9263 10.1563 31.6875 10.1563C30.1169 10.1563 28.8438 8.88313 28.8438 7.31257C28.8438 6.07375 29.6357 5.02091 30.7396 4.63075C30.9511 4.556 31.1833 4.66683 31.258 4.8784Z" fill="#A9A9A9"/>
<path fill-rule="evenodd" clip-rule="evenodd" d="M34.4123 5.4002C34.5709 5.55888 34.5709 5.81612 34.4123 5.9748L32.381 8.00605C32.2224 8.16465 31.9651 8.16465 31.8065 8.00605L30.994 7.19355C30.8354 7.03487 30.8354 6.77763 30.994 6.61895C31.1526 6.46035 31.4099 6.46035 31.5685 6.61895L32.0937 7.14423L33.8377 5.4002C33.9964 5.2416 34.2536 5.2416 34.4123 5.4002Z" fill="#A9A9A9"/>
</svg>
