<svg width="20" height="20" viewBox="0 0 20 20" fill="none" xmlns="http://www.w3.org/2000/svg">
<path d="M17.8 17.6H17.2785V6.91816C17.2785 6.80762 17.1891 6.71816 17.0785 6.71816H15.7242V4.51484C15.7242 4.4043 15.6348 4.31484 15.5242 4.31484H14.36V2.2C14.36 2.08945 14.2705 2 14.16 2H5.84023C5.72969 2 5.64023 2.08945 5.64023 2.2V4.31484H4.47598C4.36543 4.31484 4.27598 4.4043 4.27598 4.51484V6.71816H2.92148C2.81094 6.71816 2.72148 6.80762 2.72148 6.91816V17.6H2.2C2.08945 17.6 2 17.6895 2 17.8C2 17.9105 2.08945 18 2.2 18H17.8C17.9105 18 18 17.9105 18 17.8C18 17.6895 17.9105 17.6 17.8 17.6ZM6.04023 2.4H13.96V4.31484H6.04023V2.4ZM4.67598 4.71484H15.3242V6.71816H4.67598V4.71484ZM3.12148 7.11816H16.8785V17.6H14.0824V16.0609C14.7575 15.9634 15.2785 15.3825 15.2785 14.6807C15.2785 13.9109 14.6521 13.2846 13.8824 13.2846C13.1125 13.2846 12.4861 13.9109 12.4861 14.6807C12.4861 15.3825 13.0072 15.9634 13.6824 16.0609V17.6H11.6371V15.2881C11.6371 14.3854 10.9027 13.651 10 13.651C9.09727 13.651 8.36289 14.3854 8.36289 15.2881V17.6H6.31758V16.0609C6.99282 15.9634 7.51387 15.3825 7.51387 14.6807C7.51387 13.9109 6.8875 13.2846 6.11758 13.2846C5.34785 13.2846 4.72148 13.9109 4.72148 14.6807C4.72148 15.3825 5.24248 15.9634 5.91758 16.0609V17.6H3.12148V7.11816ZM13.8824 15.677C13.333 15.677 12.8861 15.2301 12.8861 14.6807C12.8861 14.1314 13.333 13.6846 13.8824 13.6846C14.4316 13.6846 14.8785 14.1314 14.8785 14.6807C14.8785 15.2301 14.4316 15.677 13.8824 15.677ZM11.2371 17.6H8.76289V15.2881C8.76289 14.6059 9.31777 14.051 10 14.051C10.6822 14.051 11.2371 14.6059 11.2371 15.2881V17.6ZM6.11758 15.677C5.56836 15.677 5.12148 15.2301 5.12148 14.6807C5.12148 14.1314 5.56836 13.6846 6.11758 13.6846C6.66699 13.6846 7.11387 14.1314 7.11387 14.6807C7.11387 15.2301 6.66699 15.677 6.11758 15.677Z" fill="#1B9FE8" stroke="#1B9FE8" stroke-width="0.2"/>
<path d="M12.5504 12.1688H14.7613C14.8719 12.1688 14.9613 12.0793 14.9613 11.9688V10.0398C14.9613 9.31992 14.3758 8.73438 13.6559 8.73438C12.9359 8.73438 12.3504 9.31992 12.3504 10.0398V11.9688C12.3504 12.0793 12.4399 12.1688 12.5504 12.1688ZM12.7504 10.0398C12.7504 9.54063 13.1567 9.13438 13.6559 9.13438C14.1551 9.13438 14.5613 9.54063 14.5613 10.0398V11.7687H12.7504V10.0398Z" fill="#1B9FE8" stroke="#1B9FE8" stroke-width="0.2"/>
<path d="M8.89452 12.1688H11.1055C11.216 12.1688 11.3055 12.0793 11.3055 11.9688V10.0398C11.3055 9.31992 10.7199 8.73438 9.99999 8.73438C9.28007 8.73438 8.69452 9.31992 8.69452 10.0398V11.9688C8.69452 12.0793 8.78397 12.1688 8.89452 12.1688ZM9.09452 10.0398C9.09452 9.54063 9.50077 9.13438 9.99999 9.13438C10.4992 9.13438 10.9055 9.54063 10.9055 10.0398V11.7687H9.09452V10.0398Z" fill="#1B9FE8" stroke="#1B9FE8" stroke-width="0.2"/>
<path d="M5.2387 12.1688H7.44963C7.56018 12.1688 7.64963 12.0793 7.64963 11.9688V10.0398C7.64963 9.31992 7.06409 8.73438 6.34416 8.73438C5.62424 8.73438 5.0387 9.31992 5.0387 10.0398V11.9688C5.0387 12.0793 5.12815 12.1688 5.2387 12.1688ZM5.4387 10.0398C5.4387 9.54063 5.84495 9.13438 6.34416 9.13438C6.84338 9.13438 7.24963 9.54063 7.24963 10.0398V11.7687H5.4387V10.0398Z" fill="#1B9FE8" stroke="#1B9FE8" stroke-width="0.2"/>
</svg>
