<svg width="79" height="79" viewBox="0 0 79 79" fill="none" xmlns="http://www.w3.org/2000/svg">
<g clip-path="url(#clip0_880_6725)">
<path d="M44.2709 28.3107L43.9375 28.4285V28.7821V68.7152V69.306L44.5202 69.2083C55.4088 67.382 64.3144 59.7161 67.9108 49.5416L68.1464 48.875H67.4393H59.75V40H78.4969C78.2291 61.3088 60.8723 78.5 39.5 78.5C18.1278 78.5 0.770864 61.3088 0.503139 40H19.25V48.875H11.5607H10.8537L11.0893 49.5416C14.6854 59.7162 23.5914 67.382 34.4798 69.2083L35.0625 69.306V68.7152V28.7821V28.4285L34.7291 28.3107C29.1695 26.3457 25.1875 21.0435 25.1875 14.8125C25.1875 6.90795 31.5954 0.5 39.5 0.5C47.4046 0.5 53.8125 6.90795 53.8125 14.8125C53.8125 21.0435 49.8305 26.3457 44.2709 28.3107ZM39.5 20.25C42.5031 20.25 44.9375 17.8155 44.9375 14.8125C44.9375 11.8095 42.5031 9.375 39.5 9.375C36.497 9.375 34.0625 11.8095 34.0625 14.8125C34.0625 17.8155 36.497 20.25 39.5 20.25Z" fill="#1B9FE8" stroke="white"/>
</g>
<defs>
<clipPath id="clip0_880_6725">
<rect width="79" height="79" fill="white"/>
</clipPath>
</defs>
</svg>
