<svg width="24" height="24" viewBox="0 0 24 24" fill="none" xmlns="http://www.w3.org/2000/svg">
<g clip-path="url(#clip0_3667_7450)">
<path d="M12 0L5.58333 10.5H18.4167L12 0ZM12 4.48L14.2517 8.16667H9.73667L12 4.48ZM18.4167 12.8333C15.5117 12.8333 13.1667 15.1783 13.1667 18.0833C13.1667 20.9883 15.5117 23.3333 18.4167 23.3333C21.3217 23.3333 23.6667 20.9883 23.6667 18.0833C23.6667 15.1783 21.3217 12.8333 18.4167 12.8333ZM18.4167 21C16.8067 21 15.5 19.6933 15.5 18.0833C15.5 16.4733 16.8067 15.1667 18.4167 15.1667C20.0267 15.1667 21.3333 16.4733 21.3333 18.0833C21.3333 19.6933 20.0267 21 18.4167 21ZM1.5 22.75H10.8333V13.4167H1.5V22.75ZM3.83333 15.75H8.5V20.4167H3.83333V15.75Z" fill="black"/>
</g>
<defs>
<clipPath id="clip0_3667_7450">
<rect width="24" height="24" fill="white"/>
</clipPath>
</defs>
</svg>
