<svg width="16" height="16" viewBox="0 0 16 16" fill="none" xmlns="http://www.w3.org/2000/svg">
<g clip-path="url(#clip0_880_6794)">
<path fill-rule="evenodd" clip-rule="evenodd" d="M11 3C11 4.30622 10.1652 5.41746 9 5.82929V13.917C11.1684 13.5533 12.9423 12.0265 13.6586 10H12V8H16C16 12.4183 12.4183 16 8 16C3.58172 16 0 12.4183 0 8H4V10H2.34141C3.05766 12.0265 4.83165 13.5533 7 13.917V5.82929C5.83481 5.41746 5 4.30622 5 3C5 1.34315 6.34315 0 8 0C9.65685 0 11 1.34315 11 3ZM8 4C8.55229 4 9 3.55228 9 3C9 2.44772 8.55229 2 8 2C7.44772 2 7 2.44772 7 3C7 3.55228 7.44772 4 8 4Z" fill="black"/>
</g>
<defs>
<clipPath id="clip0_880_6794">
<rect width="16" height="16" fill="white"/>
</clipPath>
</defs>
</svg>
