<svg width="200" height="200" viewBox="0 0 200 200" fill="none" xmlns="http://www.w3.org/2000/svg">
<g clip-path="url(#clip0_3667_7629)">
<path d="M26.215 58.3039L26.2148 58.3037C24.8916 57.6422 23.3052 57.7106 22.0417 58.4927C20.7805 59.2735 20.0078 60.6546 20.0078 62.1409V136.203C20.0078 137.802 20.9008 139.269 22.3165 140.006L97.9676 179.504C97.9684 179.504 97.9692 179.505 97.9699 179.505C98.591 179.833 99.2776 179.995 99.9551 179.995C100.722 179.995 101.497 179.791 102.175 179.374C103.46 178.593 104.24 177.203 104.24 175.703V99.995C104.24 98.3713 103.321 96.8876 101.873 96.1589L101.871 96.158L26.215 58.3039ZM28.5911 69.0854L95.6635 102.647V168.622L28.5911 133.603V69.0854Z" fill="#17A0B5" stroke="#17A0B5" stroke-width="2"/>
<path d="M97.8368 179.382L97.8349 179.38C96.56 178.602 95.7695 177.214 95.7695 175.709V100.001C95.7695 98.3773 96.6884 96.8936 98.1372 96.1649L98.1391 96.1639L173.788 58.3131C173.789 58.3125 173.79 58.3119 173.792 58.3113C175.111 57.6402 176.706 57.7104 177.969 58.4992C179.237 59.2803 180.009 60.6611 180.009 62.1468V136.209C180.009 137.807 179.116 139.274 177.7 140.012L97.8368 179.382ZM97.8368 179.382C98.5188 179.796 99.2919 180.001 100.061 180.001C100.739 180.001 101.426 179.839 102.047 179.511C102.047 179.511 102.048 179.51 102.049 179.51L177.7 140.013L97.8368 179.382ZM104.353 102.653L171.425 69.0913V133.609L104.353 168.628V102.653Z" fill="#17A0B5" stroke="#17A0B5" stroke-width="2"/>
<path d="M20.4555 64.0659L20.4558 64.0665C21.2112 65.5686 22.7234 66.4342 24.2985 66.4342C24.9505 66.4342 25.6044 66.2877 26.2204 65.9797L100.059 29.0865L173.793 65.9862L173.799 65.9892C175.92 67.0325 178.487 66.1873 179.552 64.0659L179.553 64.063C180.609 61.9431 179.75 59.3694 177.632 58.3061L177.631 58.3055L101.975 20.4513L101.975 20.4512C100.771 19.8491 99.3476 19.8505 98.1402 20.4499L98.1379 20.4511L22.3769 58.3052L22.3752 58.3061C20.2603 59.3678 19.3889 61.9414 20.4555 64.0659Z" fill="#17A0B5" stroke="#17A0B5" stroke-width="2"/>
<path d="M60.0154 40.4719C58.9517 42.5909 59.808 45.1751 61.9305 46.2327C61.9308 46.2329 61.9311 46.233 61.9314 46.2332L135.216 82.9015V116.458C135.216 118.827 137.138 120.749 139.508 120.749C141.877 120.749 143.799 118.827 143.799 116.458V80.2494C143.799 78.6249 142.88 77.1438 141.436 76.4088L141.43 76.4058L65.774 38.5516L65.774 38.5516L65.7694 38.5493C63.6542 37.5046 61.0803 38.3508 60.0154 40.4719Z" fill="#17A0B5" stroke="#17A0B5" stroke-width="2"/>
</g>
<defs>
<clipPath id="clip0_3667_7629">
<rect width="200" height="200" fill="white"/>
</clipPath>
</defs>
</svg>
