<svg width="16" height="12" viewBox="0 0 16 12" fill="none" xmlns="http://www.w3.org/2000/svg">
<rect x="0.5" y="0.5" width="15" height="10.3548" stroke="black"/>
<path d="M3.49938 6.63636H4.07892L4.56472 7.27557L4.69256 7.44602L5.41699 8.40909H4.83745L4.36017 7.76989L4.24086 7.60795L3.49938 6.63636ZM5.59597 5.81818C5.59597 6.27841 5.51287 6.67614 5.34668 7.01136C5.18049 7.34659 4.9525 7.60511 4.66273 7.78693C4.37296 7.96875 4.04199 8.05966 3.66983 8.05966C3.29767 8.05966 2.96671 7.96875 2.67694 7.78693C2.38716 7.60511 2.15918 7.34659 1.99299 7.01136C1.82679 6.67614 1.7437 6.27841 1.7437 5.81818C1.7437 5.35795 1.82679 4.96023 1.99299 4.625C2.15918 4.28977 2.38716 4.03125 2.67694 3.84943C2.96671 3.66761 3.29767 3.5767 3.66983 3.5767C4.04199 3.5767 4.37296 3.66761 4.66273 3.84943C4.9525 4.03125 5.18049 4.28977 5.34668 4.625C5.51287 4.96023 5.59597 5.35795 5.59597 5.81818ZM5.08461 5.81818C5.08461 5.44034 5.0214 5.12145 4.89498 4.86151C4.76998 4.60156 4.60023 4.40483 4.38574 4.27131C4.17267 4.13778 3.93404 4.07102 3.66983 4.07102C3.40563 4.07102 3.16628 4.13778 2.95179 4.27131C2.73873 4.40483 2.56898 4.60156 2.44256 4.86151C2.31756 5.12145 2.25506 5.44034 2.25506 5.81818C2.25506 6.19602 2.31756 6.51491 2.44256 6.77486C2.56898 7.0348 2.73873 7.23153 2.95179 7.36506C3.16628 7.49858 3.40563 7.56534 3.66983 7.56534C3.93404 7.56534 4.17267 7.49858 4.38574 7.36506C4.60023 7.23153 4.76998 7.0348 4.89498 6.77486C5.0214 6.51491 5.08461 6.19602 5.08461 5.81818ZM6.06419 4.10511V3.63636H9.33691V4.10511H7.96476V8H7.43635V4.10511H6.06419ZM9.77743 3.63636H10.3825L11.5928 5.6733H11.6439L12.8541 3.63636H13.4593L11.8825 6.2017V8H11.3541V6.2017L9.77743 3.63636Z" fill="black"/>
</svg>
