<svg width="59" height="37" viewBox="0 0 59 37" fill="none" xmlns="http://www.w3.org/2000/svg">
<path d="M19.2353 35.3373C20.5793 35.3373 21.8682 34.7965 22.8185 33.8339C23.7688 32.8712 24.3027 31.5656 24.3027 30.2043C24.3027 28.8429 23.7688 27.5373 22.8185 26.5747C21.8682 25.6121 20.5793 25.0713 19.2353 25.0713C17.8914 25.0713 16.6025 25.6121 15.6522 26.5747C14.7018 27.5373 14.168 28.8429 14.168 30.2043C14.168 31.5656 14.7018 32.8712 15.6522 33.8339C16.6025 34.7965 17.8914 35.3373 19.2353 35.3373ZM44.572 35.3373C45.916 35.3373 47.2049 34.7965 48.1552 33.8339C49.1055 32.8712 49.6394 31.5656 49.6394 30.2043C49.6394 28.8429 49.1055 27.5373 48.1552 26.5747C47.2049 25.6121 45.916 25.0713 44.572 25.0713C43.2281 25.0713 41.9392 25.6121 40.9889 26.5747C40.0386 27.5373 39.5047 28.8429 39.5047 30.2043C39.5047 31.5656 40.0386 32.8712 40.9889 33.8339C41.9392 34.7965 43.2281 35.3373 44.572 35.3373Z" stroke="#17A0B5" stroke-width="3" stroke-miterlimit="1.5" stroke-linecap="round" stroke-linejoin="round"/>
<path d="M24.4297 30.2041H36.9714V3.51255C36.9714 3.10415 36.8112 2.71247 36.5261 2.42368C36.2411 2.1349 35.8544 1.97266 35.4512 1.97266H1.5M13.2816 30.2041H8.08755C7.88791 30.2041 7.69023 30.1643 7.50579 30.0869C7.32135 30.0095 7.15376 29.8961 7.0126 29.7531C6.87144 29.6101 6.75946 29.4404 6.68306 29.2535C6.60666 29.0667 6.56734 28.8665 6.56734 28.6642V16.0884" stroke="#17A0B5" stroke-width="3" stroke-linecap="round"/>
<path d="M4.0332 9.67188H14.1679" stroke="#17A0B5" stroke-width="3" stroke-linecap="round" stroke-linejoin="round"/>
<path d="M36.9727 9.67188H51.1865C51.4804 9.67195 51.7679 9.75829 52.0143 9.92044C52.2608 10.0826 52.4555 10.3136 52.575 10.5855L57.1103 20.9234C57.1967 21.1197 57.2415 21.3321 57.242 21.5471V28.664C57.242 28.8662 57.2027 29.0664 57.1263 29.2533C57.0499 29.4401 56.9379 29.6098 56.7968 29.7528C56.6556 29.8958 56.488 30.0093 56.3036 30.0866C56.1191 30.164 55.9215 30.2039 55.7218 30.2039H50.9078M36.9727 30.2039H39.5063" stroke="#17A0B5" stroke-width="3" stroke-linecap="round"/>
</svg>
