<svg width="56" height="56" viewBox="0 0 56 56" fill="none" xmlns="http://www.w3.org/2000/svg">
<path d="M21.1196 2.09473C22.5806 0.751953 24.4927 0 26.48 0H26.5767C30.8843 0 34.3755 3.49121 34.3755 7.79883C34.3755 9.86133 33.5591 11.8486 32.0874 13.3096L8.15383 37.2432C7.33742 38.0703 6.87551 39.1768 6.87551 40.3262C6.87551 42.7324 8.83058 44.6875 11.2368 44.6875C12.397 44.6875 13.5034 44.2256 14.3198 43.4092L41.6909 16.0381C43.1519 14.5771 45.1392 13.75 47.2017 13.75C51.5093 13.75 55.0005 17.2412 55.0005 21.5488C55.0005 23.6113 54.1841 25.5986 52.7124 27.0596L39.8003 39.9717C38.5327 41.2393 37.813 42.9795 37.813 44.7842C37.813 48.5225 40.8423 51.5625 44.5806 51.5625C45.5152 51.5625 46.439 51.3477 47.2769 50.9287L52.5191 48.3076C53.3677 47.8779 54.3989 48.2324 54.8286 49.0811C55.2583 49.9297 54.9038 50.9609 54.0552 51.3906L48.813 54.0117C47.5025 54.667 46.0415 55.0107 44.5806 55.0107C38.9409 55.0107 34.3755 50.4238 34.3755 44.7949C34.3755 42.0879 35.4497 39.4775 37.3726 37.5547L50.2847 24.6318C51.1011 23.8154 51.563 22.709 51.563 21.5488C51.563 19.1426 49.6079 17.1875 47.2017 17.1875C46.0415 17.1875 44.9351 17.6494 44.1187 18.4658L16.7476 45.8369C15.2866 47.2979 13.2993 48.125 11.2368 48.125C6.92922 48.125 3.43801 44.6338 3.43801 40.3262C3.43801 38.2637 4.25441 36.2764 5.72609 34.8154L29.6597 10.8818C30.4761 10.0654 30.938 8.95898 30.938 7.79883C30.938 5.39258 28.9829 3.4375 26.5767 3.4375H26.48C25.3628 3.4375 24.2778 3.85645 23.4507 4.61914L2.89016 23.6113C2.19191 24.2559 1.10695 24.2129 0.462421 23.5146C-0.182111 22.8164 -0.139142 21.7314 0.5591 21.0869L21.1196 2.09473Z" fill="#17A0B5"/>
</svg>
