<svg width="45" height="60" viewBox="0 0 45 60" fill="none" xmlns="http://www.w3.org/2000/svg">
<g clip-path="url(#clip0_2206_7736)">
<path d="M41.25 56.25H3.75V3.75H22.5V20.625V22.5H24.375H41.25V56.25ZM26.25 4.37109L40.6289 18.75H26.25V4.37109ZM27.1875 0H3.75H0V3.75V56.25V60H3.75H41.25H45V56.25V17.8125L27.1875 0ZM13.125 30H11.25V33.75H13.125H31.875H33.75V30H31.875H13.125ZM13.125 37.5H11.25V41.25H13.125H31.875H33.75V37.5H31.875H13.125ZM13.125 45H11.25V48.75H13.125H31.875H33.75V45H31.875H13.125Z" fill="#17A0B5"/>
</g>
<defs>
<clipPath id="clip0_2206_7736">
<rect width="45" height="60" fill="white"/>
</clipPath>
</defs>
</svg>
