<svg width="22" height="20" viewBox="0 0 22 20" fill="none" xmlns="http://www.w3.org/2000/svg">
<path d="M3.14286 10.1499H3.29286V9.99986C3.29286 4.87604 7.44761 0.721289 12.5714 0.721289C17.6953 0.721289 21.85 4.87604 21.85 9.99986C21.85 15.1237 17.6953 19.2784 12.5714 19.2784C10.0585 19.2784 7.79273 18.2808 6.12155 16.6619L7.39684 15.3866C8.73499 16.6821 10.562 17.4832 12.5714 17.4832C16.7086 17.4832 20.0548 14.137 20.0548 9.99986C20.0548 5.86273 16.7086 2.51653 12.5714 2.51653C8.4343 2.51653 5.0881 5.86273 5.0881 9.99986V10.1499H5.2381H8.01819L4.18542 13.9731L4.1813 13.969L0.362131 10.1499H3.14286ZM12.9452 10.157V10.2424L13.0187 10.286L16.5766 12.3985L15.9245 13.4824L11.6738 10.962V5.95938H12.9452V10.157Z" fill="#17A0B5" stroke="white" stroke-width="0.3"/>
</svg>
