<svg width="40" height="40" viewBox="0 0 40 40" fill="none" xmlns="http://www.w3.org/2000/svg">
<path d="M28.332 22.8321C27.636 21.5521 26.284 20.7361 24.82 20.7361H19.884C19.796 18.7281 19.836 16.1841 19.98 14.3921C22.22 13.3521 23.648 11.1321 23.648 8.65613C23.648 5.16812 20.784 2.32812 17.268 2.32812C13.748 2.32812 10.888 5.16812 10.888 8.65613C10.888 11.1361 12.332 13.3641 14.592 14.4081C14.792 16.0121 14.832 18.5121 14.692 20.7361H9.52398C7.32398 20.7361 5.53198 22.5281 5.53198 24.7281V28.7681C5.53198 29.0241 5.73998 29.2321 5.99598 29.2321H19.564C19.532 29.4921 19.512 29.7561 19.504 30.0241H5.99598C5.73998 30.0241 5.53198 30.2321 5.53198 30.4881V34.1801C5.53198 34.4361 5.73998 34.6441 5.99598 34.6441H20.972C22.336 36.4801 24.524 37.6761 26.98 37.6761C31.104 37.6761 34.46 34.3201 34.46 30.1961C34.468 26.5241 31.816 23.4681 28.332 22.8321ZM15.476 14.0201C15.452 13.8561 15.344 13.7201 15.196 13.6561C13.144 12.8081 11.82 10.8441 11.82 8.65213C11.82 5.67613 14.268 3.25213 17.272 3.25213C20.276 3.25213 22.724 5.67613 22.724 8.65213C22.724 10.8441 21.408 12.8041 19.368 13.6441C19.208 13.7081 19.1 13.8601 19.084 14.0321C18.916 15.8561 18.868 18.5881 18.96 20.7321H15.624C15.748 18.6561 15.752 15.9081 15.476 14.0201ZM6.45998 28.3041V24.7281C6.45998 23.0401 7.83598 21.6641 9.52398 21.6641H24.82C25.712 21.6641 26.548 22.0601 27.124 22.7121C27.076 22.7121 27.028 22.7121 26.984 22.7121C23.512 22.7121 20.584 25.0921 19.744 28.3081H6.45998V28.3041ZM6.45998 33.7121V30.9481H19.54C19.64 31.9401 19.936 32.8721 20.384 33.7121H6.45998ZM26.984 36.7441C23.372 36.7441 20.428 33.8041 20.428 30.1921C20.428 26.5801 23.368 23.6361 26.984 23.6361C30.6 23.6361 33.54 26.5761 33.54 30.1921C33.54 33.8041 30.6 36.7441 26.984 36.7441ZM31.392 27.2641C31.572 27.4441 31.572 27.7401 31.392 27.9201L26.196 33.1161C26.108 33.2041 25.992 33.2521 25.868 33.2521C25.744 33.2521 25.628 33.2041 25.54 33.1161L22.576 30.1521C22.396 29.9721 22.396 29.6761 22.576 29.4961C22.756 29.3161 23.052 29.3161 23.232 29.4961L25.868 32.1321L30.736 27.2641C30.916 27.0841 31.212 27.0841 31.392 27.2641Z" fill="#1B9FE8" stroke="#1B9FE8"/>
</svg>
