<svg width="22" height="23" viewBox="0 0 22 23" fill="none" xmlns="http://www.w3.org/2000/svg">
<g clip-path="url(#clip0_636_18688)">
<path d="M21.6562 18.6811H21.3125C21.3069 18.6811 21.3009 18.6811 21.2953 18.6811C21.12 18.6705 20.9331 18.5044 20.8811 18.4463C20.8158 18.3718 20.723 18.3291 20.625 18.3291C20.527 18.3291 20.4342 18.3718 20.3689 18.4463C20.3255 18.4961 20.1253 18.6816 19.9375 18.6816C19.8421 18.6816 19.742 18.6322 19.6608 18.5771L20.9438 15.2875C20.9808 15.1932 20.9761 15.0866 20.9309 14.9963C20.8858 14.9055 20.8046 14.8394 20.7084 14.8147L19.5938 14.5288V13.0417C19.5938 12.88 19.4863 12.739 19.3334 12.6998L16.5834 11.9948C16.5288 11.9807 16.4712 11.9807 16.4166 11.9948L13.6666 12.6998C13.5137 12.739 13.4062 12.88 13.4062 13.0417V14.5288L12.2916 14.8147C12.1954 14.8394 12.1142 14.9055 12.0691 14.9963C12.0239 15.087 12.0192 15.1932 12.0562 15.2875L13.3396 18.5776C13.2593 18.6322 13.1596 18.6816 13.0629 18.6816C12.8829 18.6816 12.6852 18.5062 12.6315 18.4463C12.5662 18.3718 12.4734 18.3291 12.3754 18.3291C12.2775 18.3291 12.1846 18.3718 12.1193 18.4463C12.0759 18.4961 11.8757 18.6816 11.6879 18.6816C11.5642 18.6816 11.4323 18.5987 11.3442 18.5273V16.9191C11.3442 16.7243 11.1904 16.5666 11.0004 16.5666H9.62543V15.5091C9.62543 15.3144 9.4716 15.1566 9.28168 15.1566H8.21691L7.22992 5.28692H15.4692V6.34439C15.4692 6.53914 15.623 6.69688 15.8129 6.69688H16.1567V8.45933C16.1567 8.95766 16.4136 9.22115 16.601 9.4137C16.7694 9.58642 16.8442 9.67146 16.8442 9.86929C16.8442 10.0671 16.6899 10.2218 16.5004 10.2218C16.3109 10.2218 16.1567 10.0636 16.1567 9.86929C16.1567 9.67498 16.0029 9.5168 15.8129 9.5168C15.623 9.5168 15.4692 9.67454 15.4692 9.86929C15.4692 10.4522 15.932 10.9268 16.5004 10.9268C17.0689 10.9268 17.5317 10.4522 17.5317 9.86929C17.5317 9.37096 17.2747 9.10747 17.0874 8.91492C16.9189 8.7422 16.8442 8.65717 16.8442 8.45933V6.69688H17.1879C17.3779 6.69688 17.5317 6.53914 17.5317 6.34439V5.28692H18.5629C18.7529 5.28692 18.9067 5.12918 18.9067 4.93443V3.52446C18.9067 3.32971 18.7529 3.17197 18.5629 3.17197H7.01766L6.87285 1.72588C6.8548 1.54611 6.70699 1.40952 6.53082 1.40952H5.84332V0.35249C5.84332 0.157739 5.68949 0 5.49957 0C5.30965 0 5.15582 0.157739 5.15582 0.35249V1.40996H4.46832C4.29215 1.40996 4.14434 1.54655 4.12629 1.72632L3.98148 3.17241H2.06164C1.87172 3.17241 1.71789 3.33015 1.71789 3.5249V4.93487C1.71789 5.12962 1.87172 5.28736 2.06164 5.28736H3.76965L2.78266 15.1571H1.71789C1.52797 15.1571 1.37414 15.3148 1.37414 15.5096V16.5671H0.34375C0.153828 16.5671 0 16.7248 0 16.9195V22.2069C0 22.4016 0.153828 22.5594 0.34375 22.5594H21.6562C21.8462 22.5594 22 22.4016 22 22.2069V19.0336C22 18.8389 21.8462 18.6811 21.6562 18.6811ZM7.52555 15.1571H5.84375V13.7471H7.38461L7.52555 15.1571ZM7.31414 13.0421H5.84418V11.6322H7.1732L7.31414 13.0421ZM6.74996 7.4023L6.8909 8.81314C6.88574 8.81314 6.88016 8.81226 6.875 8.81226H5.84375V7.4023H6.74996ZM5.84375 6.69732V5.28736H6.53813L6.67906 6.69732H5.84332H5.84375ZM6.875 9.51724C6.90465 9.51724 6.93301 9.51284 6.96008 9.50579L7.1023 10.9272H5.84375V9.51724H6.875ZM16.8438 5.99234H16.1562V5.28736H16.8438V5.99234ZM5.84375 2.11494H6.22102L6.32672 3.17241H5.84375V2.11494ZM4.77898 2.11494H5.15625V3.17241H4.67328L4.77898 2.11494ZM2.40625 4.58238V3.87739H18.2188V4.58238H2.40625ZM4.125 8.81226C4.11984 8.81226 4.11426 8.8127 4.1091 8.81314L4.25004 7.4023H5.15625V8.81226H4.125ZM5.15625 9.51724V10.9272H3.8977L4.03992 9.50579C4.06742 9.51284 4.09578 9.51724 4.125 9.51724H5.15625ZM4.32051 6.69732L4.46145 5.28736H5.15582V6.69732H4.32008H4.32051ZM3.8268 11.6322H5.15582V13.0421H3.68586L3.8268 11.6322ZM3.61539 13.7471H5.15625V15.1571H3.47445L3.61539 13.7471ZM2.0625 15.8621H8.9375V16.5671H2.0625V15.8621ZM10.6562 21.8544H0.6875V17.272H10.6562V21.8544ZM14.0938 13.3175L16.5 12.7007L18.9062 13.3175V14.3534L16.5834 13.7581C16.5288 13.744 16.4712 13.744 16.4166 13.7581L14.0938 14.3534V13.3175ZM12.8404 15.4012L16.5 14.4631L20.1596 15.4012L18.957 18.4846C18.88 18.5569 18.7172 18.6824 18.5625 18.6824C18.3825 18.6824 18.1848 18.5071 18.1311 18.4471C18.0658 18.3727 17.973 18.3299 17.875 18.3299C17.777 18.3299 17.6842 18.3727 17.6189 18.4471C17.5755 18.4969 17.3753 18.6824 17.1875 18.6824C17.0637 18.6824 16.9318 18.5996 16.8438 18.5282V15.8625C16.8438 15.6678 16.6899 15.51 16.5 15.51C16.3101 15.51 16.1562 15.6678 16.1562 15.8625V18.5287C16.0703 18.5987 15.9388 18.6824 15.8125 18.6824C15.6325 18.6824 15.4348 18.5071 15.3811 18.4471C15.3158 18.3727 15.223 18.3299 15.125 18.3299C15.027 18.3299 14.9342 18.3727 14.8689 18.4471C14.8255 18.4969 14.6253 18.6824 14.4375 18.6824C14.2867 18.6824 14.1234 18.5591 14.043 18.4842L12.8408 15.4016L12.8404 15.4012ZM21.3125 21.8544H11.3438V19.3257C11.449 19.3627 11.5642 19.387 11.6875 19.387C11.9664 19.387 12.2066 19.2649 12.375 19.1446C12.5434 19.2649 12.7836 19.387 13.0625 19.387C13.3414 19.387 13.5816 19.2649 13.75 19.1446C13.9184 19.2649 14.1586 19.387 14.4375 19.387C14.7164 19.387 14.9566 19.2649 15.125 19.1446C15.2934 19.2649 15.5336 19.387 15.8125 19.387C16.0914 19.387 16.3316 19.2649 16.5 19.1446C16.6684 19.2649 16.9086 19.387 17.1875 19.387C17.4664 19.387 17.7066 19.2649 17.875 19.1446C18.0434 19.2649 18.2836 19.387 18.5625 19.387C18.8414 19.387 19.0816 19.2649 19.25 19.1446C19.4184 19.2649 19.6586 19.387 19.9375 19.387C20.2164 19.387 20.4566 19.2649 20.625 19.1446C20.7934 19.2649 21.0336 19.387 21.3125 19.387V21.8544Z" fill="black"/>
</g>
<defs>
<clipPath id="clip0_636_18688">
<rect width="22" height="23" fill="white"/>
</clipPath>
</defs>
</svg>
