<svg width="16" height="20" viewBox="0 0 16 20" fill="none" xmlns="http://www.w3.org/2000/svg">
<path d="M13.4405 7.32957H12.3405V4.39957C12.3405 3.24853 11.8833 2.14463 11.0694 1.33073C10.2555 0.516819 9.15159 0.0595703 8.00055 0.0595703C6.84951 0.0595703 5.74561 0.516819 4.9317 1.33073C4.11779 2.14463 3.66055 3.24853 3.66055 4.39957V7.32957H2.56055C1.89751 7.32957 1.26162 7.59296 0.79278 8.0618C0.323939 8.53064 0.0605469 9.16653 0.0605469 9.82957V17.4396C0.0623941 18.102 0.326379 18.7369 0.79482 19.2053C1.26326 19.6737 1.89807 19.9377 2.56055 19.9396H13.4405C14.103 19.9377 14.7378 19.6737 15.2063 19.2053C15.6747 18.7369 15.9387 18.102 15.9405 17.4396V9.82957C15.9405 9.16653 15.6772 8.53064 15.2083 8.0618C14.7395 7.59296 14.1036 7.32957 13.4405 7.32957ZM4.66055 4.39957C4.66055 3.51375 5.01244 2.66421 5.63881 2.03783C6.26518 1.41146 7.11472 1.05957 8.00055 1.05957C8.88637 1.05957 9.73591 1.41146 10.3623 2.03783C10.9887 2.66421 11.3405 3.51375 11.3405 4.39957V7.32957H4.66055V4.39957ZM14.9405 17.4396C14.9377 17.8365 14.7787 18.2164 14.498 18.497C14.2173 18.7777 13.8375 18.9367 13.4405 18.9396H2.56055C2.16361 18.9367 1.78375 18.7777 1.50307 18.497C1.22239 18.2164 1.06343 17.8365 1.06055 17.4396V9.82957C1.06055 9.43175 1.21858 9.05021 1.49989 8.76891C1.78119 8.48761 2.16272 8.32957 2.56055 8.32957H13.4405C13.8384 8.32957 14.2199 8.48761 14.5012 8.76891C14.7825 9.05021 14.9405 9.43175 14.9405 9.82957V17.4396Z" fill="black"/>
</svg>
