<svg width="65" height="75" viewBox="0 0 65 75" fill="none" xmlns="http://www.w3.org/2000/svg">
<path d="M11.4305 68.5H14.2406V74H1V68.5H3.81016H4.81016V67.5V1H10.4305V3.75V4.75H11.4305H60.9626C61.713 4.75 62.4295 5.04353 62.9553 5.56106C63.4806 6.07805 63.7727 6.77584 63.7727 7.5V45C63.7727 45.7242 63.4806 46.4219 62.9553 46.9389C62.4295 47.4565 61.713 47.75 60.9626 47.75H11.4305H10.4305V48.75V67.5V68.5H11.4305ZM20.0508 11.25V10.25H19.0508H11.4305H10.4305V11.25V18.75V19.75H11.4305H18.0508V25.25H11.4305H10.4305V26.25V33.75V34.75H11.4305H18.0508V41.25V42.25H19.0508H26.6711H27.6711V41.25V34.75H33.2914V41.25V42.25H34.2914H41.9118H42.9118V41.25V34.75H48.5321V41.25V42.25H49.5321H57.1524H58.1524V41.25V33.75V32.75H57.1524H50.5321V27.25H57.1524H58.1524V26.25V18.75V17.75H57.1524H50.5321V11.25V10.25H49.5321H41.9118H40.9118V11.25V17.75H35.2914V11.25V10.25H34.2914H26.6711H25.6711V11.25V17.75H20.0508V11.25Z" fill="#17A0B5" stroke="white" stroke-width="2"/>
<path d="M19.5352 27.2752H27.2056V34.0934H19.5352V27.2752ZM34.8761 27.2752H42.5465V34.0934H34.8761V27.2752ZM27.2056 20.457H34.8761V27.2752H27.2056V20.457ZM42.5465 20.457H50.217V27.2752H42.5465V20.457Z" fill="#17A0B5"/>
</svg>
