<svg width="24" height="24" viewBox="0 0 24 24" fill="none" xmlns="http://www.w3.org/2000/svg">
<g clip-path="url(#clip0_636_18673)">
<path d="M11.8028 19.0336L11.9989 19.2853L12.1964 19.0347C13.2614 17.6834 14.5199 15.9219 15.5136 14.1326C16.5018 12.353 17.25 10.5077 17.25 9C17.25 6.10193 14.8981 3.75 12 3.75C9.10193 3.75 6.75 6.10193 6.75 9C6.75 10.4935 7.50886 12.3442 8.50152 14.129C9.49993 15.9241 10.7582 17.6927 11.8028 19.0336ZM12 21.6221C11.9669 21.5841 11.9297 21.5412 11.8886 21.4936C11.6986 21.273 11.4268 20.9517 11.1004 20.5495C10.4473 19.7449 9.57704 18.6181 8.70724 17.3289C7.83696 16.039 6.97027 14.5911 6.3219 13.1439C5.67207 11.6934 5.25 10.2619 5.25 9C5.25 5.26807 8.26807 2.25 12 2.25C15.7319 2.25 18.75 5.26807 18.75 9C18.75 10.2619 18.3279 11.6934 17.6781 13.1439C17.0297 14.5911 16.163 16.039 15.2928 17.3289C14.423 18.6181 13.5527 19.7449 12.8996 20.5495C12.5732 20.9517 12.3014 21.273 12.1114 21.4936C12.0703 21.5412 12.0331 21.5841 12 21.6221Z" fill="#3D3D3D" stroke="white" stroke-width="0.5"/>
<path d="M14.25 9C14.25 10.2426 13.2426 11.25 12 11.25C10.7574 11.25 9.75 10.2426 9.75 9C9.75 7.75736 10.7574 6.75 12 6.75C13.2426 6.75 14.25 7.75736 14.25 9Z" fill="#3D3D3D" stroke="white" stroke-width="0.5"/>
</g>
<defs>
<clipPath id="clip0_636_18673">
<rect width="24" height="24" rx="4" fill="white"/>
</clipPath>
</defs>
</svg>
