<svg width="24" height="24" viewBox="0 0 24 24" fill="none" xmlns="http://www.w3.org/2000/svg">
<g clip-path="url(#clip0_636_19041)">
<path d="M5.00353 9.25977H4.36523V9.89439H5.00353V9.25977Z" fill="black"/>
<path d="M6.59923 9.25977H5.96094V9.89439H6.59923V9.25977Z" fill="black"/>
<path d="M8.19495 9.25977H7.55664V9.89439H8.19495V9.25977Z" fill="black"/>
<path d="M9.79064 9.25977H9.15234V9.89439H9.79064V9.25977Z" fill="black"/>
<path d="M4.26056 5.13477C4.26055 5.03531 4.22104 4.93993 4.15072 4.86961C4.08039 4.79928 3.98501 4.75977 3.88556 4.75977H3.56641C3.46695 4.75977 3.37157 4.79927 3.30124 4.8696C3.23092 4.93993 3.19141 5.03531 3.19141 5.13477C3.19141 5.23422 3.23092 5.3296 3.30124 5.39993C3.37157 5.47026 3.46695 5.50977 3.56641 5.50977H3.88556C3.98501 5.50976 4.08039 5.47025 4.15072 5.39993C4.22104 5.3296 4.26055 5.23422 4.26056 5.13477Z" fill="black"/>
<path d="M5.12579 5.99414C5.12579 5.89469 5.08628 5.79931 5.01595 5.72898C4.94563 5.65866 4.85025 5.61915 4.75079 5.61914H4.43164C4.33218 5.61914 4.2368 5.65865 4.16648 5.72898C4.09615 5.7993 4.05664 5.89468 4.05664 5.99414C4.05664 6.0936 4.09615 6.18898 4.16648 6.25931C4.2368 6.32963 4.33218 6.36914 4.43164 6.36914H4.75079C4.85025 6.36914 4.94563 6.32963 5.01595 6.2593C5.08628 6.18898 5.12579 6.0936 5.12579 5.99414Z" fill="black"/>
<path d="M13.6875 18.375H12.9375V19.125H13.6875V18.375Z" fill="black"/>
<path d="M15.1875 18.375H14.4375V19.125H15.1875V18.375Z" fill="black"/>
<path d="M16.6875 18.375H15.9375V19.125H16.6875V18.375Z" fill="black"/>
<path d="M18.1875 18.375H17.4375V19.125H18.1875V18.375Z" fill="black"/>
<path d="M19.6875 18.375H18.9375V19.125H19.6875V18.375Z" fill="black"/>
<path d="M12.5106 14.3223C12.5106 14.2228 12.471 14.1274 12.4007 14.0571C12.3304 13.9868 12.235 13.9473 12.1356 13.9473H11.8164C11.717 13.9473 11.6216 13.9868 11.5512 14.0571C11.4809 14.1274 11.4414 14.2228 11.4414 14.3223C11.4414 14.4217 11.4809 14.5171 11.5512 14.5874C11.6216 14.6578 11.717 14.6973 11.8164 14.6973H12.1356C12.235 14.6973 12.3304 14.6578 12.4007 14.5874C12.471 14.5171 12.5106 14.4217 12.5106 14.3223Z" fill="black"/>
<path d="M13.3758 15.1816C13.3758 15.0822 13.3363 14.9868 13.266 14.9165C13.1956 14.8462 13.1002 14.8066 13.0008 14.8066H12.6816C12.5822 14.8066 12.4868 14.8461 12.4165 14.9165C12.3461 14.9868 12.3066 15.0822 12.3066 15.1816C12.3066 15.2811 12.3461 15.3765 12.4165 15.4468C12.4868 15.5171 12.5822 15.5566 12.6816 15.5566H13.0008C13.1002 15.5566 13.1956 15.5171 13.266 15.4468C13.3363 15.3765 13.3758 15.2811 13.3758 15.1816Z" fill="black"/>
<path d="M23.625 22.125C22.7701 22.125 22.3301 22.4656 21.9419 22.7659C21.5925 23.0363 21.3166 23.25 20.718 23.25C20.1195 23.25 19.8435 23.0363 19.4941 22.7659C19.2757 22.5843 19.0345 22.4319 18.7768 22.3125H21.6486C21.7864 22.3132 21.9213 22.2727 22.0359 22.1961C22.1505 22.1195 22.2396 22.0104 22.2916 21.8827L23.9493 17.8202C23.9916 17.7164 24.0077 17.6039 23.9961 17.4924C23.9846 17.381 23.9458 17.2741 23.8832 17.1811C23.8195 17.0866 23.7336 17.0093 23.6329 16.9559C23.5322 16.9025 23.42 16.8747 23.306 16.875H22.5V15.375C22.5 15.2755 22.4605 15.1802 22.3902 15.1098C22.3198 15.0395 22.2245 15 22.125 15H21.5625V13.5C21.5625 13.4005 21.523 13.3052 21.4527 13.2348C21.3823 13.1645 21.287 13.125 21.1875 13.125H20.625V11.625C20.625 11.5255 20.5855 11.4302 20.5152 11.3598C20.4448 11.2895 20.3495 11.25 20.25 11.25H18.375C18.2755 11.25 18.1802 11.2895 18.1098 11.3598C18.0395 11.4302 18 11.5255 18 11.625V13.125H17.4375C17.338 13.125 17.2427 13.1645 17.1723 13.2348C17.102 13.3052 17.0625 13.4005 17.0625 13.5V15H16.5C16.4005 15 16.3052 15.0395 16.2348 15.1098C16.1645 15.1802 16.125 15.2755 16.125 15.375V16.875H14.6992L14.1901 13.8386C14.154 13.6234 14.0488 13.4257 13.8905 13.2756C13.7322 13.1254 13.5293 13.0307 13.3125 13.006V11.4375C13.3125 11.338 13.273 11.2427 13.2027 11.1723C13.1323 11.102 13.037 11.0625 12.9375 11.0625C12.838 11.0625 12.7427 11.102 12.6723 11.1723C12.602 11.2427 12.5625 11.338 12.5625 11.4375V12.9952H12V9.5625C12 9.46304 11.9605 9.36766 11.8902 9.29733C11.8198 9.22701 11.7245 9.1875 11.625 9.1875C11.5255 9.1875 11.4302 9.22701 11.3598 9.29733C11.2895 9.36766 11.25 9.46304 11.25 9.5625V13.0085C11.0387 13.0388 10.8424 13.1356 10.6897 13.2848C10.5369 13.4339 10.4356 13.6278 10.4002 13.8384L10.0484 15.9375H8.94397C8.83054 15.9373 8.71879 15.9648 8.61846 16.0177C8.51814 16.0706 8.43231 16.1473 8.36847 16.2411C8.30578 16.3332 8.26661 16.4393 8.25439 16.5501C8.24216 16.6608 8.25726 16.7729 8.29834 16.8765L10.2816 21.8765C10.3327 22.0058 10.4217 22.1166 10.5369 22.1944C10.6521 22.2722 10.7882 22.3134 10.9272 22.3125H11.0329C10.7752 22.432 10.5342 22.5844 10.3158 22.7661C9.96661 23.0365 9.69086 23.25 9.09284 23.25C8.49445 23.25 8.21851 23.0363 7.86932 22.7661C7.48114 22.4656 7.04132 22.125 6.18659 22.125C5.33185 22.125 4.89203 22.4656 4.50403 22.7661C4.15485 23.0365 3.87891 23.25 3.2807 23.25C2.6825 23.25 2.40674 23.0365 2.05756 22.7661C1.66956 22.4656 1.22974 22.125 0.375 22.125C0.275544 22.125 0.180161 22.1645 0.109835 22.2348C0.0395088 22.3052 0 22.4005 0 22.5C0 22.5995 0.0395088 22.6948 0.109835 22.7652C0.180161 22.8355 0.275544 22.875 0.375 22.875C0.973206 22.875 1.24915 23.0887 1.59833 23.3589C1.98633 23.6594 2.42615 24 3.2807 24C4.13544 24 4.57526 23.6594 4.96326 23.3589C5.31244 23.0885 5.58838 22.875 6.18659 22.875C6.78497 22.875 7.06091 23.0887 7.4101 23.3589C7.79828 23.6594 8.2381 24 9.09284 24C9.94739 24 10.387 23.6594 10.775 23.3589C11.1242 23.0885 11.4 22.875 11.9982 22.875C12.5966 22.875 12.8725 23.0885 13.2217 23.3589C13.6099 23.6594 14.0497 24 14.9046 24C15.7595 24 16.1993 23.6594 16.5875 23.3589C16.9367 23.0885 17.2126 22.875 17.811 22.875C18.4096 22.875 18.6855 23.0887 19.0349 23.3591C19.4231 23.6594 19.8631 24 20.718 24C21.5729 24 22.0129 23.6594 22.4011 23.3591C22.7505 23.0887 23.0264 22.875 23.625 22.875C23.7245 22.875 23.8198 22.8355 23.8902 22.7652C23.9605 22.6948 24 22.5995 24 22.5C24 22.4005 23.9605 22.3052 23.8902 22.2348C23.8198 22.1645 23.7245 22.125 23.625 22.125ZM21.75 16.875H20.625V15.75H21.75V16.875ZM18.75 16.875V15.75H19.875V16.875H18.75ZM20.8125 15H19.6875V13.875H20.8125V15ZM18.75 12H19.875V13.125H18.75V12ZM17.8125 13.875H18.9375V15H17.8125V13.875ZM16.875 15.75H18V16.875H16.875V15.75ZM11.14 13.9627C11.1504 13.9015 11.1822 13.846 11.2298 13.8061C11.2774 13.7663 11.3377 13.7447 11.3998 13.7452H13.1907C13.2528 13.7447 13.313 13.7662 13.3606 13.8061C13.4081 13.8459 13.44 13.9014 13.4504 13.9625L13.9266 16.8029H13.663C13.6576 16.791 13.6543 16.7783 13.6534 16.7653C13.6432 16.5412 13.5465 16.3298 13.3837 16.1755C13.221 16.0211 13.0047 15.9358 12.7804 15.9375H10.8089L11.14 13.9627ZM9.03021 16.6875H12.7804C12.8112 16.6863 12.8413 16.697 12.8644 16.7174C12.8874 16.7379 12.9017 16.7665 12.9042 16.7972C12.9144 17.0213 13.0111 17.2327 13.1739 17.387C13.3367 17.5414 13.5529 17.6267 13.7772 17.625H23.2189L21.6123 21.5625H10.9638L9.03021 16.6875ZM16.1283 22.7659C15.7789 23.0363 15.5032 23.25 14.9046 23.25C14.306 23.25 14.0303 23.0363 13.6809 22.7659C13.4625 22.5844 13.2214 22.432 12.9637 22.3125H16.8455C16.5878 22.432 16.3468 22.5844 16.1283 22.7659Z" fill="black"/>
<path d="M2.03129 12.689C2.08241 12.8183 2.17142 12.9291 2.28663 13.0069C2.40185 13.0847 2.53789 13.1259 2.67691 13.125H9.92097C10.073 12.8401 10.3009 12.6028 10.5796 12.4396V12.375H2.71353L0.77994 7.5H4.53013C4.56093 7.49876 4.59102 7.50949 4.61409 7.52993C4.63717 7.55038 4.65143 7.57896 4.65391 7.60969C4.66417 7.83377 4.76084 8.04517 4.92362 8.19952C5.0864 8.35387 5.30263 8.43916 5.52695 8.4375H14.9686L13.9947 10.8245C14.0913 10.9936 14.1421 11.185 14.1421 11.3798V12.4171C14.1455 12.4191 14.1492 12.4205 14.1527 12.4225L15.699 8.63269C15.7413 8.52893 15.7574 8.41635 15.7459 8.3049C15.7343 8.19345 15.6955 8.08655 15.6329 7.99365C15.5692 7.89915 15.4833 7.82178 15.3826 7.76838C15.282 7.71499 15.1697 7.68721 15.0558 7.6875H14.2497V6.1875C14.2497 6.08805 14.2102 5.99267 14.1399 5.92234C14.0696 5.85202 13.9742 5.8125 13.8747 5.8125H13.3122V4.3125C13.3122 4.21305 13.2727 4.11767 13.2024 4.04734C13.1321 3.97702 13.0367 3.93751 12.9372 3.9375H12.3747V2.4375C12.3747 2.33805 12.3352 2.24267 12.2649 2.17234C12.1946 2.10202 12.0992 2.06251 11.9997 2.0625H10.1247C10.0253 2.06251 9.92989 2.10202 9.85957 2.17234C9.78924 2.24267 9.74973 2.33805 9.74973 2.4375V3.9375H9.18723C9.08777 3.93751 8.99239 3.97702 8.92207 4.04734C8.85174 4.11767 8.81223 4.21305 8.81223 4.3125V5.8125H8.24973C8.15027 5.8125 8.05489 5.85202 7.98457 5.92234C7.91424 5.99267 7.87473 6.08805 7.87473 6.1875V7.6875H6.44894L5.93985 4.65106C5.90371 4.43585 5.79855 4.23824 5.64023 4.08805C5.48192 3.93786 5.27904 3.84325 5.06223 3.81849V2.25C5.06223 2.15054 5.02272 2.05516 4.95239 1.98484C4.88207 1.91451 4.78668 1.875 4.68723 1.875C4.58777 1.875 4.49239 1.91451 4.42206 1.98484C4.35174 2.05516 4.31223 2.15054 4.31223 2.25V3.80768H3.74973V0.375C3.74973 0.275544 3.71022 0.180161 3.63989 0.109835C3.56957 0.0395088 3.47418 0 3.37473 0C3.27527 0 3.17989 0.0395088 3.10956 0.109835C3.03924 0.180161 2.99973 0.275544 2.99973 0.375V3.82098C2.78838 3.85132 2.59216 3.94808 2.4394 4.09725C2.28665 4.24643 2.18528 4.44031 2.14993 4.65088L1.79812 6.75H0.693697C0.580272 6.74976 0.468515 6.7773 0.368193 6.83022C0.267871 6.88315 0.182039 6.95984 0.118198 7.05359C0.0555101 7.14572 0.0163422 7.2518 0.00411787 7.36256C-0.00810645 7.47332 0.00698493 7.58538 0.0480729 7.68896L2.03129 12.689ZM10.4997 7.6875V6.5625H11.6247V7.6875H10.4997ZM13.4997 7.6875H12.3747V6.5625H13.4997V7.6875ZM12.5622 5.8125H11.4372V4.6875H12.5622V5.8125ZM10.4997 2.8125H11.6247V3.9375H10.4997V2.8125ZM9.56223 4.6875H10.6872V5.8125H9.56223V4.6875ZM8.62473 6.5625H9.74973V7.6875H8.62473V6.5625ZM2.88968 4.77521C2.90008 4.71399 2.93195 4.65848 2.97956 4.61862C3.02717 4.57876 3.08742 4.55715 3.14951 4.55768H4.94046C5.00251 4.55715 5.06271 4.57874 5.11029 4.61856C5.15786 4.65839 5.18971 4.71386 5.20011 4.77502L5.67636 7.61536H5.41277C5.40729 7.60354 5.40403 7.59082 5.40317 7.57782C5.39291 7.35373 5.29624 7.14233 5.13346 6.98798C4.97068 6.83363 4.75444 6.74834 4.53012 6.75H2.55866L2.88968 4.77521Z" fill="black"/>
</g>
<defs>
<clipPath id="clip0_636_19041">
<rect width="24" height="24" fill="white"/>
</clipPath>
</defs>
</svg>
