<svg width="24" height="24" viewBox="0 0 24 24" fill="none" xmlns="http://www.w3.org/2000/svg">
<path d="M12.0008 17.9234C9.18125 17.9234 6.88672 15.6289 6.88672 12.8094C6.88672 9.98984 9.18125 7.69531 12.0008 7.69531C14.8203 7.69531 17.1148 9.98984 17.1148 12.8094C17.1148 15.6289 14.8203 17.9234 12.0008 17.9234ZM12.0008 8.39844C9.56797 8.39844 7.58984 10.3766 7.58984 12.8094C7.58984 15.2422 9.56797 17.2203 12.0008 17.2203C14.4336 17.2203 16.4117 15.2422 16.4117 12.8094C16.4117 10.3766 14.4336 8.39844 12.0008 8.39844Z" fill="black"/>
<path d="M12.0008 15.2281C10.6672 15.2281 9.58203 14.143 9.58203 12.8094C9.58203 11.4758 10.6672 10.3906 12.0008 10.3906C13.3344 10.3906 14.4195 11.4758 14.4195 12.8094C14.4195 14.143 13.3344 15.2281 12.0008 15.2281ZM12.0008 11.0938C11.0539 11.0938 10.2852 11.8625 10.2852 12.8094C10.2852 13.7563 11.0539 14.525 12.0008 14.525C12.9477 14.525 13.7164 13.7563 13.7164 12.8094C13.7164 11.8625 12.9477 11.0938 12.0008 11.0938Z" fill="black"/>
<path d="M11.9992 20.8871C10.9094 20.8871 9.85 20.6738 8.85391 20.252C7.89297 19.8441 7.02813 19.2629 6.28516 18.5199C5.54453 17.7793 4.96094 16.9145 4.55313 15.9512C4.13125 14.9551 3.91797 13.898 3.91797 12.8059C3.91797 11.716 4.13125 10.6566 4.55313 9.66055C4.96094 8.69961 5.54219 7.83477 6.28516 7.0918C7.02813 6.34883 7.89062 5.76758 8.85391 5.35977C9.85 4.93789 10.907 4.72461 11.9992 4.72461H12.3508V5.60117H15.6531L15.7305 5.64102C17.0195 6.31367 18.107 7.32383 18.8734 8.56133C19.6609 9.83398 20.0781 11.3035 20.0781 12.8082C20.0781 13.898 19.8648 14.9574 19.443 15.9535C19.0352 16.9145 18.4539 17.7793 17.7109 18.5223C16.9703 19.2629 16.1055 19.8465 15.1422 20.2543C14.1484 20.6738 13.0891 20.8871 11.9992 20.8871ZM11.6477 5.4418C7.74297 5.62461 4.62344 8.85898 4.62344 12.8082C4.62344 16.8746 7.93281 20.184 11.9992 20.184C16.0656 20.184 19.375 16.8746 19.375 12.8082C19.375 10.0777 17.8844 7.59336 15.4797 6.3043H11.6477V5.4418ZM11.9992 15.227C10.6656 15.227 9.58047 14.1418 9.58047 12.8082C9.58047 11.4746 10.6656 10.3895 11.9992 10.3895C13.3328 10.3895 14.418 11.4746 14.418 12.8082C14.418 14.1418 13.3328 15.227 11.9992 15.227ZM11.9992 11.0926C11.0547 11.0926 10.2836 11.8613 10.2836 12.8082C10.2836 13.7527 11.0523 14.5238 11.9992 14.5238C12.9461 14.5238 13.7148 13.7551 13.7148 12.8082C13.7148 11.8637 12.9437 11.0926 11.9992 11.0926Z" fill="black"/>
<path d="M20.9852 12.457H16.7617V13.1602H20.9852V12.457Z" fill="black"/>
<path d="M12.0008 15.2281C10.6672 15.2281 9.58203 14.143 9.58203 12.8094C9.58203 11.4758 10.6672 10.3906 12.0008 10.3906C13.3344 10.3906 14.4195 11.4758 14.4195 12.8094C14.4195 14.143 13.3344 15.2281 12.0008 15.2281ZM12.0008 11.0938C11.0563 11.0938 10.2852 11.8625 10.2852 12.8094C10.2852 13.7539 11.0539 14.525 12.0008 14.525C12.9477 14.525 13.7164 13.7563 13.7164 12.8094C13.7164 11.8648 12.9453 11.0938 12.0008 11.0938Z" fill="black"/>
<path d="M7.23906 12.457H3.01562V13.1602H7.23906V12.457Z" fill="black"/>
<path d="M12.3516 5.95312H11.6484V12.8086H12.3516V5.95312Z" fill="black"/>
<path d="M12.3516 17.5703H11.6484V21.7938H12.3516V17.5703Z" fill="black"/>
<path d="M18.1289 6.30391H11.6484V1.85547H18.1289L17.0625 4.07969L18.1289 6.30391ZM12.3516 5.60078H17.0109L16.282 4.07969L17.0109 2.55859H12.3516V5.60078Z" fill="black"/>
</svg>
