<svg width="78" height="78" viewBox="0 0 78 78" fill="none" xmlns="http://www.w3.org/2000/svg">
<g clip-path="url(#clip0_1741_10316)">
<path d="M2.36182 37.5469H3.82403V19.7199C2.66171 19.573 1.75933 18.5803 1.75933 17.3788V12.4067C1.75933 11.1044 2.8188 10.0449 4.12115 10.0449H6.16299C6.79414 10.0449 7.30581 10.5566 7.30581 11.1877C7.30581 11.8189 6.79414 12.3306 6.16299 12.3306H4.12115C4.0791 12.3306 4.04497 12.3647 4.04497 12.4067V17.3788C4.04497 17.4208 4.0791 17.455 4.12115 17.455H38.229C38.271 17.455 38.3052 17.4208 38.3052 17.3788V12.4067C38.3052 12.3647 38.271 12.3306 38.229 12.3306H11.4961C10.865 12.3306 10.3533 11.8189 10.3533 11.1877C10.3533 10.5566 10.865 10.0449 11.4961 10.0449H38.229C39.5313 10.0449 40.5908 11.1044 40.5908 12.4067V17.3788C40.5908 18.5803 39.6884 19.573 38.5261 19.7199V31.9307H73.5025C74.1336 31.9307 74.6453 32.4424 74.6453 33.0735C74.6453 33.7046 74.1336 34.2163 73.5025 34.2163H70.7673V39.0128H75.6382C76.9405 39.0128 78 40.0723 78 41.3746V45.3426C78 46.5137 77.1424 47.4857 76.0228 47.6703V55.1621C76.0228 56.1971 75.5999 57.2063 74.8638 57.9297L65.8175 66.8418C65.0854 67.561 64.1169 67.9571 63.0906 67.9571H59.3955C58.7644 67.9571 58.2527 67.4454 58.2527 66.8142C58.2527 66.1831 58.7644 65.6714 59.3955 65.6714H63.0906C63.5141 65.6714 63.9136 65.5079 64.2146 65.2123L73.2607 56.3003C73.5634 56.0027 73.737 55.5879 73.737 55.1621V47.7046H4.26272V56.0567C4.26272 56.2052 4.30949 56.3465 4.39848 56.4662L10.7565 65.026C11.0573 65.4302 11.5376 65.6716 12.0415 65.6716H54.0622C54.6933 65.6716 55.205 66.1833 55.205 66.8144C55.205 67.4455 54.6933 67.9572 54.0622 67.9572H12.0415C10.8185 67.9572 9.6527 67.3715 8.92222 66.3896L2.56418 57.8299C2.18553 57.3211 1.97708 56.6913 1.97708 56.0567V47.6703C0.857422 47.4858 -0.000152588 46.5138 -0.000152588 45.3426V39.9088C0 38.6064 1.05962 37.5469 2.36182 37.5469ZM36.2405 37.5469V19.7408H30.4502V29.988C30.4502 31.2904 29.3907 32.3499 28.0884 32.3499H6.10966V37.5469H36.2405ZM6.10966 30.0642H15.7657V19.7408H6.10966V30.0642ZM18.0514 30.0642H28.0884C28.1304 30.0642 28.1646 30.0301 28.1646 29.988V19.7408H18.0514V30.0642ZM38.5261 37.5469H39.4341C39.8528 37.5469 40.2591 37.6332 40.6415 37.8034H40.6417L43.2286 38.9537C43.3167 38.9928 43.4104 39.0128 43.507 39.0128H45.9301V34.2163H38.5261V37.5469ZM62.8438 39.0129V34.2165H59.4915V39.0129H62.8438ZM57.2059 34.2165H53.8536V39.0129H57.2059V34.2165ZM51.568 34.2165H48.2157V39.0129H51.568V34.2165ZM68.4817 34.2165H65.1294V39.0129H68.4817V34.2165ZM75.7144 41.3748C75.7144 41.3327 75.6802 41.2986 75.6382 41.2986H43.507C43.0881 41.2986 42.6819 41.2123 42.2995 41.0421L39.7128 39.8919C39.7128 39.8919 39.7127 39.8919 39.7125 39.8917C39.6244 39.8525 39.5307 39.8326 39.4341 39.8326H2.36182C2.31977 39.8326 2.28564 39.8667 2.28564 39.9088V45.3426C2.28564 45.3847 2.31977 45.4188 2.36182 45.4188H75.6382C75.6802 45.4188 75.7144 45.3847 75.7144 45.3426V41.3748Z" fill="#17A0B5"/>
<path d="M12.1569 55.9821C12.1569 52.7547 14.7826 50.1289 18.0101 50.1289C21.2375 50.1289 23.8633 52.7547 23.8633 55.9821C23.8633 59.2096 21.2375 61.8353 18.0101 61.8353C14.7826 61.8353 12.1569 59.2096 12.1569 55.9821ZM21.5776 55.9821C21.5776 54.015 19.9772 52.4145 18.0101 52.4145C16.0429 52.4145 14.4425 54.015 14.4425 55.9821C14.4425 57.9493 16.0429 59.5497 18.0101 59.5497C19.9772 59.5497 21.5776 57.9495 21.5776 55.9821Z" fill="#17A0B5"/>
</g>
<defs>
<clipPath id="clip0_1741_10316">
<rect width="78" height="78" fill="white" transform="matrix(-1 0 0 1 78 0)"/>
</clipPath>
</defs>
</svg>
