<svg width="24" height="24" viewBox="0 0 24 24" fill="none" xmlns="http://www.w3.org/2000/svg">
<path d="M22.875 7.5H22.125C21.8266 7.5 21.5405 7.61853 21.3295 7.8295C21.1185 8.04048 21 8.32663 21 8.625V11.25H20.25V7.5C20.25 7.20163 20.1315 6.91548 19.9205 6.7045C19.7095 6.49353 19.4234 6.375 19.125 6.375H16.5V4.875H21.75C21.8179 4.87501 21.8845 4.85659 21.9428 4.8217C22.001 4.78682 22.0487 4.73677 22.0807 4.67691C22.1127 4.61705 22.1279 4.54962 22.1246 4.48181C22.1213 4.414 22.0997 4.34835 22.062 4.29187L20.562 2.04188C20.5277 1.99053 20.4813 1.94844 20.4269 1.91933C20.3725 1.89022 20.3117 1.87499 20.25 1.875H9.75C9.68828 1.87499 9.62751 1.89022 9.57308 1.91933C9.51865 1.94844 9.47226 1.99053 9.438 2.04188L7.938 4.29187C7.90032 4.34835 7.87868 4.414 7.87539 4.48181C7.87209 4.54962 7.88727 4.61705 7.9193 4.67691C7.95133 4.73677 7.999 4.78682 8.05725 4.8217C8.11549 4.85659 8.18211 4.87501 8.25 4.875H13.875V6.375H10.9125C10.8355 6.37498 10.7604 6.39864 10.6973 6.44279C10.6343 6.48693 10.5863 6.54941 10.56 6.62175L9.69375 9H6C5.94178 9 5.88437 9.01355 5.83229 9.03959C5.78022 9.06563 5.73493 9.10343 5.7 9.15L4.6875 10.5H4.125C4.02554 10.5 3.93016 10.5395 3.85984 10.6098C3.78951 10.6802 3.75 10.7755 3.75 10.875V15H3V12.375C3 12.0766 2.88147 11.7905 2.6705 11.5795C2.45952 11.3685 2.17337 11.25 1.875 11.25H1.125C1.02554 11.25 0.930161 11.2895 0.859835 11.3598C0.789509 11.4302 0.75 11.5255 0.75 11.625V20.625C0.75 20.7245 0.789509 20.8198 0.859835 20.8902C0.930161 20.9605 1.02554 21 1.125 21H1.875C2.17337 21 2.45952 20.8815 2.6705 20.6705C2.88147 20.4595 3 20.1734 3 19.875V17.25H3.75V20.25C3.75 20.5484 3.86853 20.8345 4.0795 21.0455C4.29048 21.2565 4.57663 21.375 4.875 21.375H13.0875C13.1662 21.375 13.243 21.3503 13.3069 21.3042C13.3707 21.2582 13.4185 21.1932 13.4434 21.1185L13.9845 19.5H18.375C18.445 19.5004 18.5137 19.4812 18.5734 19.4445C18.633 19.4079 18.6812 19.3552 18.7125 19.2926L19.3568 18H19.875C19.9745 18 20.0698 17.9605 20.1402 17.8902C20.2105 17.8198 20.25 17.7245 20.25 17.625V13.5H21V16.125C21 16.4234 21.1185 16.7095 21.3295 16.9205C21.5405 17.1315 21.8266 17.25 22.125 17.25H22.875C22.9745 17.25 23.0698 17.2105 23.1402 17.1402C23.2105 17.0698 23.25 16.9745 23.25 16.875V7.875C23.25 7.77554 23.2105 7.68016 23.1402 7.60983C23.0698 7.53951 22.9745 7.5 22.875 7.5ZM2.25 19.875C2.25 19.9745 2.21049 20.0698 2.14016 20.1402C2.06984 20.2105 1.97446 20.25 1.875 20.25H1.5V12H1.875C1.97446 12 2.06984 12.0395 2.14016 12.1098C2.21049 12.1802 2.25 12.2755 2.25 12.375V19.875ZM3 16.5V15.75H3.75V16.5H3ZM9.95062 2.625H20.0494L21.0495 4.125H8.9505L9.95062 2.625ZM14.625 4.875H15.75V6.375H14.625V4.875ZM6.1875 9.75H9.42112L9.15 10.5H5.625L6.1875 9.75ZM18.1432 18.75H14.2343L14.4844 18H18.5182L18.1432 18.75ZM19.5 17.25H14.2125C14.1338 17.2501 14.0572 17.2749 13.9934 17.3209C13.9296 17.3669 13.8819 17.4319 13.857 17.5065L12.819 20.625H4.875C4.77554 20.625 4.68016 20.5855 4.60984 20.5152C4.53951 20.4448 4.5 20.3495 4.5 20.25V11.25H9.4125C9.48941 11.2499 9.56445 11.2262 9.62744 11.1821C9.69043 11.138 9.73832 11.0755 9.76462 11.0033L11.175 7.125H19.125C19.2245 7.125 19.3198 7.16451 19.3902 7.23483C19.4605 7.30516 19.5 7.40054 19.5 7.5V17.25ZM21 12.75H20.25V12H21V12.75ZM22.5 16.5H22.125C22.0255 16.5 21.9302 16.4605 21.8598 16.3902C21.7895 16.3198 21.75 16.2245 21.75 16.125V8.625C21.75 8.52554 21.7895 8.43016 21.8598 8.35983C21.9302 8.28951 22.0255 8.25 22.125 8.25H22.5V16.5Z" fill="black"/>
<path d="M18 10.5H16.3567L16.8375 9.54263C16.8661 9.4853 16.8796 9.42159 16.8766 9.35757C16.8736 9.29355 16.8543 9.23136 16.8204 9.17694C16.7866 9.12252 16.7394 9.07769 16.6833 9.04671C16.6272 9.01573 16.564 8.99965 16.5 9.00001H14.625C14.5516 9.00001 14.4798 9.02155 14.4186 9.06194C14.3573 9.10234 14.3092 9.15981 14.2803 9.22726L13.1553 11.8523C13.1309 11.9093 13.121 11.9715 13.1265 12.0333C13.132 12.0951 13.1528 12.1546 13.1869 12.2064C13.2211 12.2582 13.2675 12.3007 13.3222 12.3302C13.3768 12.3596 13.4379 12.375 13.5 12.375H14.8545L13.8945 15.2565C13.8669 15.3394 13.8691 15.4293 13.9008 15.5108C13.9324 15.5922 13.9915 15.66 14.0679 15.7025C14.1442 15.745 14.233 15.7596 14.3189 15.7436C14.4048 15.7276 14.4824 15.6821 14.5383 15.615L18.2883 11.115C18.334 11.0602 18.363 10.9936 18.3721 10.9229C18.3812 10.8522 18.37 10.7803 18.3397 10.7158C18.3095 10.6513 18.2614 10.5967 18.2012 10.5585C18.1411 10.5202 18.0712 10.5 18 10.5ZM15.2343 13.6084L15.7305 12.1185C15.7492 12.0622 15.7543 12.0022 15.7454 11.9435C15.7364 11.8847 15.7137 11.829 15.6789 11.7808C15.6442 11.7326 15.5986 11.6934 15.5457 11.6663C15.4929 11.6392 15.4343 11.6251 15.375 11.625H14.0688L14.8721 9.75001H15.8932L15.4143 10.7074C15.3858 10.7646 15.3723 10.8281 15.3752 10.892C15.3781 10.9558 15.3972 11.0179 15.4309 11.0723C15.4645 11.1266 15.5115 11.1715 15.5673 11.2026C15.6232 11.2337 15.686 11.25 15.75 11.25H17.1993L15.2343 13.6084Z" fill="black"/>
<path d="M6.75 12.75H6V13.5H6.75V12.75Z" fill="black"/>
<path d="M9.75 12.75H7.5V13.5H9.75V12.75Z" fill="black"/>
<path d="M11.25 12.75H10.5V13.5H11.25V12.75Z" fill="black"/>
<path d="M6.75 14.625H6V15.375H6.75V14.625Z" fill="black"/>
<path d="M9.75 14.625H7.5V15.375H9.75V14.625Z" fill="black"/>
<path d="M11.25 14.625H10.5V15.375H11.25V14.625Z" fill="black"/>
<path d="M6.75 16.5H6V17.25H6.75V16.5Z" fill="black"/>
<path d="M9.75 16.5H7.5V17.25H9.75V16.5Z" fill="black"/>
<path d="M11.25 16.5H10.5V17.25H11.25V16.5Z" fill="black"/>
<path d="M6.75 18.375H6V19.125H6.75V18.375Z" fill="black"/>
<path d="M9.75 18.375H7.5V19.125H9.75V18.375Z" fill="black"/>
<path d="M11.25 18.375H10.5V19.125H11.25V18.375Z" fill="black"/>
</svg>
