<svg width="24" height="26" viewBox="0 0 24 26" fill="none" xmlns="http://www.w3.org/2000/svg">
<path d="M11.997 8.97656C10.0914 8.97656 8.54102 10.527 8.54102 12.4326C8.54102 14.3382 10.0914 15.8886 11.997 15.8886C13.9026 15.8886 15.453 14.3382 15.453 12.4326C15.453 10.527 13.9026 8.97656 11.997 8.97656ZM11.997 15.1782C10.4826 15.1782 9.25142 13.947 9.25142 12.4326C9.25142 10.9182 10.4826 9.68696 11.997 9.68696C13.5114 9.68696 14.7426 10.9182 14.7426 12.4326C14.7426 13.947 13.5114 15.1782 11.997 15.1782Z" fill="black"/>
<path d="M14.9618 6.55541L14.0041 7.25141C13.8169 7.17941 13.6201 7.11701 13.4209 7.06421L13.0538 5.93621C13.0058 5.78981 12.8689 5.69141 12.7154 5.69141H11.2778C11.1242 5.69141 10.9874 5.78981 10.9394 5.93621L10.5721 7.06421C10.3705 7.11701 10.1761 7.17941 9.98895 7.25141L9.03135 6.55541C8.90655 6.46421 8.73855 6.46421 8.61375 6.55541L7.44975 7.40021C7.32495 7.49141 7.27215 7.65221 7.32015 7.79861L7.68735 8.92901C7.56015 9.08501 7.44015 9.25061 7.32975 9.42101H6.14175C5.98815 9.42101 5.85135 9.51941 5.80335 9.66581L5.35935 11.0338C5.31135 11.1802 5.36415 11.341 5.48895 11.4322L6.44655 12.1282C6.43935 12.2362 6.43695 12.337 6.43695 12.4354C6.43695 12.5338 6.43935 12.6346 6.44655 12.7426L5.48895 13.4386C5.36415 13.5298 5.31135 13.6906 5.35935 13.837L5.80335 15.205C5.85135 15.3514 5.98815 15.4498 6.14175 15.4498H7.32975C7.44015 15.6202 7.56015 15.7858 7.68735 15.9418L7.32015 17.0722C7.27215 17.2186 7.32495 17.3794 7.44975 17.4706L8.61375 18.3154C8.73855 18.4066 8.90655 18.4066 9.03135 18.3154L9.98895 17.6194C10.1761 17.6914 10.373 17.7538 10.5721 17.8066L10.9394 18.9346C10.9874 19.081 11.1242 19.1794 11.2778 19.1794H12.7154C12.8689 19.1794 13.0058 19.081 13.0538 18.9346L13.4209 17.8066C13.6226 17.7538 13.8169 17.6914 14.0041 17.6194L14.9618 18.3154C15.0866 18.4066 15.2546 18.4066 15.3794 18.3154L16.5434 17.4706C16.6681 17.3794 16.721 17.2186 16.673 17.0722L16.3058 15.9418C16.433 15.7858 16.5529 15.6202 16.6634 15.4498H17.8513C18.0049 15.4498 18.1418 15.3514 18.1898 15.205L18.6337 13.837C18.6818 13.6906 18.629 13.5298 18.5042 13.4386L17.5466 12.7426C17.5538 12.6346 17.5562 12.5338 17.5562 12.4354C17.5562 12.337 17.5538 12.2362 17.5466 12.1282L18.5042 11.4322C18.629 11.341 18.6818 11.1802 18.6337 11.0338L18.1898 9.66581C18.1418 9.51941 18.0049 9.42101 17.8513 9.42101H16.6634C16.5529 9.25061 16.433 9.08501 16.3058 8.92901L16.673 7.79861C16.721 7.65221 16.6681 7.49141 16.5434 7.40021L15.3794 6.55541C15.2546 6.46421 15.0866 6.46421 14.9618 6.55541ZM15.6386 9.24101C15.833 9.46181 16.0082 9.70181 16.1594 9.95861C16.2242 10.0666 16.3393 10.1314 16.4641 10.1314H17.5922L17.8777 11.0074L16.9681 11.6674C16.8673 11.7418 16.8122 11.8618 16.8242 11.9866C16.8385 12.157 16.8458 12.2962 16.8458 12.433C16.8458 12.5698 16.8385 12.709 16.8242 12.8794C16.8122 13.0042 16.8673 13.1266 16.9681 13.1986L17.8777 13.8586L17.5922 14.7346H16.4641C16.3393 14.7346 16.2242 14.7994 16.1594 14.9074C16.0058 15.1642 15.8306 15.4042 15.6386 15.625C15.557 15.7186 15.5282 15.8506 15.5666 15.9682L15.9145 17.041L15.1681 17.5834L14.261 16.9234C14.1601 16.849 14.0258 16.8346 13.9106 16.885C13.6466 16.9978 13.361 17.0914 13.0634 17.1586C12.941 17.185 12.8425 17.2762 12.8041 17.3962L12.4562 18.4666H11.5346L11.1866 17.3962C11.1482 17.2762 11.0497 17.1874 10.9273 17.1586C10.6297 17.0914 10.3442 17.0002 10.0802 16.885C9.96495 16.8346 9.83295 16.849 9.72975 16.9234L8.82255 17.5834L8.07615 17.041L8.42415 15.9682C8.46255 15.8482 8.43615 15.7186 8.35215 15.625C8.15775 15.4042 7.98255 15.1642 7.83135 14.9074C7.76655 14.7994 7.65135 14.7346 7.52655 14.7346H6.39855L6.11295 13.8586L7.02255 13.1986C7.12335 13.1242 7.17855 13.0042 7.16655 12.8794C7.15215 12.709 7.14495 12.5698 7.14495 12.433C7.14495 12.2962 7.15215 12.157 7.16655 11.9866C7.17855 11.8618 7.12335 11.7394 7.02255 11.6674L6.11295 11.0074L6.39855 10.1314H7.52655C7.65135 10.1314 7.76895 10.0666 7.83135 9.95861C7.98255 9.70181 8.16015 9.46181 8.35215 9.24101C8.43375 9.14741 8.46255 9.01541 8.42415 8.89781L8.07615 7.82501L8.82255 7.28261L9.72975 7.94261C9.83055 8.01701 9.96495 8.03141 10.0802 7.98101C10.3442 7.86821 10.6297 7.77461 10.9273 7.70741C11.0497 7.68101 11.1482 7.58981 11.1866 7.46981L11.5346 6.39941H12.4562L12.8041 7.46981C12.8425 7.58981 12.941 7.67861 13.0634 7.70741C13.361 7.77461 13.6466 7.86581 13.9106 7.98101C14.0258 8.03141 14.1578 8.01701 14.261 7.94261L15.1681 7.28261L15.9145 7.82501L15.5666 8.89781C15.5282 9.01781 15.5546 9.14741 15.6386 9.24101Z" fill="black"/>
<path d="M12.3264 3.48924C12.3072 3.44604 12.2808 3.40524 12.2496 3.37164L11.3808 2.50284C11.2416 2.36364 11.016 2.36364 10.8792 2.50284C10.74 2.64204 10.74 2.86764 10.8792 3.00444L11.1792 3.30444C6.50643 3.72204 2.83203 7.65564 2.83203 12.4316C2.83203 12.6284 2.99043 12.7868 3.18723 12.7868C3.38403 12.7868 3.54243 12.6284 3.54243 12.4316C3.54243 8.07804 6.85203 4.48284 11.088 4.02924L10.8768 4.24044C10.7376 4.37964 10.7376 4.60524 10.8768 4.74204C10.9464 4.81164 11.0376 4.84524 11.1288 4.84524C11.22 4.84524 11.3112 4.81164 11.3808 4.74204L12.2496 3.87324C12.2832 3.83964 12.3096 3.80124 12.3264 3.75564C12.3264 3.75564 12.3264 3.75324 12.3264 3.75084C12.3432 3.71004 12.3528 3.66684 12.3528 3.62124C12.3528 3.57564 12.3432 3.53244 12.3264 3.49164C12.3264 3.49164 12.3264 3.48924 12.3264 3.48684V3.48924Z" fill="black"/>
<path d="M5.89613 17.2456C5.94653 17.056 5.83373 16.8616 5.64413 16.8112L4.45853 16.4944C4.43453 16.4872 4.41293 16.4848 4.38893 16.4824C4.37693 16.4824 4.36493 16.4824 4.35533 16.4824C4.34333 16.4824 4.33133 16.4824 4.32173 16.4824C4.30733 16.4824 4.29293 16.4896 4.27613 16.492C4.26893 16.492 4.26173 16.4944 4.25213 16.4968C4.20653 16.5112 4.16573 16.5352 4.12973 16.5664C4.12253 16.5736 4.11533 16.5808 4.11053 16.588C4.10093 16.5976 4.09133 16.6072 4.08413 16.6168C4.07693 16.6264 4.06973 16.6384 4.06493 16.648C4.06013 16.6576 4.05293 16.6648 4.04813 16.6744C4.03853 16.696 4.02893 16.7176 4.02413 16.7392L3.70733 17.9248C3.65693 18.1144 3.76973 18.3088 3.95933 18.3592C3.99053 18.3664 4.02173 18.3712 4.05053 18.3712C4.20653 18.3712 4.35053 18.2656 4.39373 18.1072L4.50413 17.6992C5.73533 19.456 7.52813 20.716 9.62573 21.2776C10.4153 21.4888 11.2169 21.5944 12.0113 21.5944C13.6001 21.5944 15.1673 21.1792 16.5785 20.3632C16.7489 20.2648 16.8065 20.0488 16.7081 19.8784C16.6097 19.708 16.3937 19.6504 16.2233 19.7488C12.4529 21.9256 7.68413 20.8576 5.17373 17.416L5.46413 17.4928C5.65373 17.5456 5.84813 17.4304 5.89853 17.2408L5.89613 17.2456Z" fill="black"/>
<path d="M20.8493 10.0604C20.2157 7.69642 18.6989 5.71882 16.5797 4.49722C16.4093 4.39882 16.1933 4.45642 16.0949 4.62682C15.9965 4.79722 16.0541 5.01322 16.2245 5.11162C18.1805 6.23962 19.5797 8.06362 20.1629 10.2452C20.6693 12.1316 20.5109 14.09 19.7285 15.8492L19.6517 15.5588C19.6013 15.3692 19.4069 15.2564 19.2173 15.3068C19.0277 15.3572 18.9149 15.5516 18.9653 15.7412L19.2821 16.9268C19.2941 16.9724 19.3157 17.0132 19.3421 17.0516C19.3685 17.0876 19.4045 17.1188 19.4453 17.1428C19.4717 17.1596 19.5005 17.1716 19.5317 17.1788C19.5629 17.186 19.5917 17.1908 19.6229 17.1908C19.6541 17.1908 19.6853 17.186 19.7141 17.1788L20.8997 16.862C21.0893 16.8116 21.2021 16.6172 21.1517 16.4276C21.1013 16.238 20.9045 16.1252 20.7173 16.1756L20.3093 16.286C21.2141 14.3396 21.4085 12.1604 20.8469 10.0628L20.8493 10.0604Z" fill="black"/>
<path d="M13.6086 12.0776H12.351V10.82C12.351 10.6232 12.1926 10.4648 11.9958 10.4648C11.799 10.4648 11.6406 10.6232 11.6406 10.82V12.4328C11.6406 12.6296 11.799 12.788 11.9958 12.788H13.6086C13.8054 12.788 13.9638 12.6296 13.9638 12.4328C13.9638 12.236 13.8054 12.0776 13.6086 12.0776Z" fill="black"/>
</svg>
