<svg width="19" height="19" viewBox="0 0 19 19" fill="none" xmlns="http://www.w3.org/2000/svg">
<g clip-path="url(#clip0_636_18972)">
<path d="M9.49916 0.528711C4.55214 0.528711 0.527734 4.55312 0.527734 9.50014C0.527734 14.4472 4.55214 18.4716 9.49916 18.4716C14.4462 18.4716 18.4706 14.4472 18.4706 9.50014C18.4706 4.55312 14.4462 0.528711 9.49916 0.528711ZM9.49916 17.9001C4.86752 17.9001 1.09916 14.1318 1.09916 9.50014C1.09916 4.8685 4.86752 1.10014 9.49916 1.10014C14.1308 1.10014 17.8992 4.8685 17.8992 9.50014C17.8992 14.1318 14.1308 17.9001 9.49916 17.9001Z" fill="black" stroke="black" stroke-width="0.3"/>
<path d="M9.49969 1.975C5.35046 1.975 1.975 5.35046 1.975 9.49969C1.975 13.6489 5.35046 17.0244 9.49969 17.0244C13.6489 17.0244 17.0244 13.6489 17.0244 9.49969C17.0244 5.35046 13.6489 1.975 9.49969 1.975ZM16.445 9.78541C16.2983 13.3921 13.3921 16.2983 9.78541 16.445V15.178C9.78541 15.0202 9.65748 14.8922 9.49969 14.8922C9.3419 14.8922 9.21398 15.0202 9.21398 15.178V16.445C5.60725 16.2983 2.70111 13.3921 2.5544 9.78541H3.82143C3.97922 9.78541 4.10714 9.65748 4.10714 9.49969C4.10714 9.3419 3.97922 9.21398 3.82143 9.21398H2.5544C2.70111 5.60725 5.60725 2.70113 9.21398 2.5544V3.82143C9.21398 3.97922 9.3419 4.10714 9.49969 4.10714C9.65748 4.10714 9.78541 3.97922 9.78541 3.82143V2.5544C13.3921 2.70113 16.2983 5.60725 16.445 9.21398H15.178C15.0202 9.21398 14.8922 9.3419 14.8922 9.49969C14.8922 9.65748 15.0202 9.78541 15.178 9.78541H16.445Z" fill="black" stroke="black" stroke-width="0.3"/>
<path d="M13.6573 5.64075C13.5632 5.54649 13.4169 5.53024 13.3042 5.60009L13.3037 5.60039L13.5511 5.74674M13.6573 5.64075L13.5511 5.74674M13.6573 5.64075C13.6572 5.6407 13.6572 5.64064 13.6571 5.64059L13.5511 5.74674M13.6573 5.64075C13.7514 5.73491 13.7679 5.88143 13.6975 5.99408L13.6975 5.99416L11.4359 9.61225M13.5511 5.74674C13.5959 5.7914 13.6038 5.86105 13.5703 5.91466L11.2852 9.57029M11.4359 9.61225C11.4359 9.59683 11.4356 9.58141 11.4352 9.566L11.2852 9.57029M11.4359 9.61225C11.4371 10.0629 11.2676 10.515 10.9236 10.8591L10.9236 10.8591C10.581 11.2017 10.1308 11.373 9.68123 11.373C9.67891 11.373 9.67661 11.3729 9.67437 11.3729M11.4359 9.61225L11.4124 9.6498L11.2852 9.57029M11.2852 9.57029C11.2975 9.99712 11.1426 10.4279 10.8176 10.753C10.5043 11.0663 10.0928 11.223 9.68123 11.223C9.67231 11.223 9.6634 11.2224 9.65449 11.2218C9.64793 11.2214 9.64136 11.2209 9.63479 11.2207M9.67437 11.3729L8.54489 8.4803C8.2198 8.80538 8.06491 9.23618 8.07714 9.66303L5.79211 13.3187C5.75864 13.3723 5.76653 13.442 5.81126 13.4866C5.83743 13.5128 5.87216 13.5264 5.90728 13.5264C5.93199 13.5264 5.95698 13.5196 5.97918 13.5058L9.63479 11.2207M9.67437 11.3729C9.66414 11.3727 9.65496 11.3721 9.6484 11.3717L9.64416 11.3714C9.63762 11.371 9.63403 11.3708 9.6303 11.3707L9.63479 11.2207M9.67437 11.3729L9.68123 11.3686L9.7143 11.3479L9.68123 11.295L9.63479 11.2207M6.80592 12.492L6.51559 12.6734L8.03786 10.2381C8.05913 10.2946 8.0834 10.3502 8.11067 10.4046M6.80592 12.492L6.62444 12.7823L9.05976 11.26C9.00328 11.2387 8.94769 11.2145 8.89324 11.1872M6.80592 12.492L8.11067 10.4046M6.80592 12.492L8.89324 11.1872M8.89324 11.1872L9.04495 11.0924C8.86322 11.0143 8.69307 10.9012 8.54489 10.753M8.89324 11.1872C8.72918 11.105 8.57541 10.9956 8.43883 10.8591M8.54489 10.753C8.3967 10.6048 8.28359 10.4347 8.2055 10.2529L8.11067 10.4046M8.54489 10.753L8.43882 10.859M8.54489 10.753L8.43883 10.8591M8.11067 10.4046C8.19283 10.5687 8.30223 10.7225 8.43882 10.859M8.43882 10.859C8.43883 10.8591 8.43883 10.8591 8.43883 10.8591M8.43882 10.859L8.43883 10.8591M12.5565 6.74139L12.8468 6.55991L11.3245 8.99523C11.3033 8.93875 11.279 8.88316 11.2517 8.8287M12.5565 6.74139L12.738 6.45106L10.3027 7.97327C10.3592 7.99454 10.4147 8.01881 10.4692 8.04609M12.5565 6.74139L11.2517 8.8287M12.5565 6.74139L10.4692 8.04609M10.4692 8.04609L10.3175 8.14091C10.4992 8.21901 10.6694 8.33213 10.8175 8.4803M10.4692 8.04609C10.6333 8.12826 10.787 8.23767 10.9236 8.37424M10.8175 8.4803C10.9657 8.6285 11.0788 8.79867 11.1569 8.98042L11.2517 8.8287M10.8175 8.4803L10.9236 8.37425M10.8175 8.4803L10.9236 8.37424M11.2517 8.8287C11.1696 8.66463 11.0602 8.51084 10.9236 8.37425M10.9236 8.37425L10.9236 8.37424M10.9236 8.37425L10.9236 8.37424M8.84287 10.455C9.30501 10.9172 10.0575 10.9172 10.5196 10.455C10.9817 9.99281 10.9817 9.24043 10.5195 8.77828C10.2885 8.54727 9.98521 8.43164 9.68117 8.43164C9.3772 8.43164 9.07389 8.54726 8.84287 8.77827C8.84287 8.77827 8.84287 8.77828 8.84287 8.77828M8.84287 10.455L8.7368 8.67221L8.84287 8.77828M8.84287 10.455C8.38072 9.9928 8.38072 9.24049 8.84287 8.77828M8.84287 10.455V8.77828M9.72769 8.01253L9.732 7.86259C9.71659 7.86215 9.70116 7.8619 9.68574 7.86186L9.64818 7.88533L9.72769 8.01253ZM8.43883 8.37423C8.43882 8.37424 8.43882 8.37425 8.43881 8.37426C8.43882 8.37425 8.43882 8.37424 8.43883 8.37423Z" fill="black" stroke="black" stroke-width="0.3"/>
<path d="M8.9937 8.92932L8.99372 8.92929C9.37286 8.55023 9.98941 8.55003 10.3686 8.9293L8.9937 8.92932ZM8.9937 8.92932C8.61461 9.30848 8.61459 9.92504 8.99371 10.3042C9.18335 10.4938 9.43256 10.5886 9.6812 10.5886C9.92977 10.5886 10.179 10.4938 10.3686 10.3042L10.3686 10.3042C10.7478 9.92505 10.7478 9.30849 10.3686 8.92932H8.9937ZM10.0706 9.22728C10.2854 9.44205 10.2854 9.79147 10.0706 10.0062C9.85601 10.2209 9.50645 10.2209 9.29168 10.0062M10.0706 9.22728C9.96323 9.11993 9.82221 9.06625 9.68113 9.06625C9.54012 9.06625 9.3991 9.11993 9.29168 9.22728C9.07698 9.44205 9.07698 9.79147 9.29168 10.0062M10.0706 9.22728L9.96461 9.33338M10.0706 9.22728L9.96458 9.33335M9.29168 10.0062L9.39773 9.9001M9.29168 10.0062L9.39775 9.90011M9.39773 9.9001C9.24165 9.74399 9.24161 9.48958 9.39772 9.33338M9.39773 9.9001C9.39774 9.9001 9.39774 9.90011 9.39775 9.90011M9.39773 9.9001C9.39774 9.9001 9.39774 9.90011 9.39775 9.90011M9.39775 9.90011C9.55399 10.0563 9.80856 10.0563 9.96457 9.9002L9.96458 9.90018C10.1208 9.744 10.1208 9.48957 9.96461 9.33338M9.96461 9.33338C9.9646 9.33337 9.96459 9.33336 9.96458 9.33335M9.96461 9.33338C9.9646 9.33337 9.96459 9.33336 9.96458 9.33335M9.96458 9.33335C9.88651 9.25534 9.78418 9.21625 9.68113 9.21625C9.57817 9.21625 9.47584 9.25533 9.39776 9.33333M9.39776 9.33333L9.29171 9.22731L9.39772 9.33338M9.39776 9.33333C9.39775 9.33335 9.39773 9.33336 9.39772 9.33338M9.39776 9.33333C9.39775 9.33335 9.39773 9.33336 9.39772 9.33338" fill="black" stroke="black" stroke-width="0.3"/>
</g>
<defs>
<clipPath id="clip0_636_18972">
<rect width="19" height="19" fill="white"/>
</clipPath>
</defs>
</svg>
