<svg width="26" height="25" viewBox="0 0 26 25" fill="none" xmlns="http://www.w3.org/2000/svg">
<g clip-path="url(#clip0_636_18398)">
<path d="M18.9962 21.084H19.2462V20.834V9.37565V9.12565H18.9962H14.002V4.16732V3.91732H13.752H6.41017H6.16017V4.16732V20.834V21.084H6.41017H18.9962ZM8.75784 16.9173H16.6485V18.5007H8.75784V16.9173ZM8.75784 12.7507H16.6485V14.334H8.75784V12.7507ZM6.41017 2.33398H14.6978L20.8438 8.43804V20.834C20.8438 21.8401 20.0134 22.6673 18.9962 22.6673H6.39968C5.38405 22.6673 4.5625 21.8418 4.5625 20.834V4.16732C4.5625 3.16117 5.3929 2.33398 6.41017 2.33398Z" fill="black" stroke="white" stroke-width="0.5"/>
</g>
<defs>
<clipPath id="clip0_636_18398">
<rect x="0.117188" width="25.172" height="25" rx="4" fill="white"/>
</clipPath>
</defs>
</svg>
