<svg width="24" height="24" viewBox="0 0 24 24" fill="none" xmlns="http://www.w3.org/2000/svg">
<g clip-path="url(#clip0_636_19039)">
<path d="M16.25 8.82422V11.6931L15.25 12.1931V8.82422V8.66971L15.1118 8.60061L9.1118 5.60061L8.75 5.41971V5.82422V8.07987L7.75 7.57987V4.30295L15.75 0.302946L23.75 4.30295V12.9431L22.75 12.4431V5.82422V5.41971L22.3882 5.60061L16.3882 8.60061L16.25 8.66971V8.82422ZM15.6384 7.74713L15.7504 7.80305L15.8623 7.74679L17.9365 6.70382L18.3524 6.49472L17.9484 6.26349L12.5226 3.15803L12.4061 3.09136L12.2862 3.15161L9.81355 4.39379L9.36737 4.61794L9.81416 4.84088L15.6384 7.74713ZM19.3174 5.90068L19.4336 5.96702L19.5532 5.9072L21.686 4.84079L22.1328 4.61741L21.6862 4.39367L15.862 1.4757L15.7497 1.41947L15.6376 1.47591L13.8915 2.35482L13.4755 2.56423L13.8799 2.79521L19.3174 5.90068ZM13.25 13.1931L12.25 13.6931V13.6814L11.8882 13.8623L7.3882 16.1123L7.25 16.1814V16.3359V21.668V22.0734L7.61227 21.8913L11.75 19.8117V20.9392L6.75019 23.4391L0.25 20.1778V12.5647L6.75 9.31466L13.25 12.5647V13.1931ZM5.88773 21.8913L6.25 22.0734V21.668V16.3359V16.1814L6.1118 16.1123L1.6118 13.8623L1.25 13.6814V14.0859V19.4062V19.5604L1.38773 19.6296L5.88773 21.8913ZM6.63844 15.2589L6.75 15.3145L6.86156 15.2589L11.1858 13.1026L11.6332 12.8795L11.1863 12.6554L6.86205 10.4875L6.75 10.4313L6.63795 10.4875L2.31374 12.6554L1.86676 12.8795L2.31422 13.1026L6.63844 15.2589ZM17.8882 21.997L18.25 22.1779V21.7734V18.1992V18.0447L18.1118 17.9756L15.1118 16.4756L14.75 16.2947V16.6992V20.2734V20.4279L14.8882 20.497L17.8882 21.997ZM22.6118 20.497L22.75 20.4279V20.2734V16.6992V16.2947L22.3882 16.4756L19.3882 17.9756L19.25 18.0447V18.1992V21.7734V22.1779L19.6118 21.997L22.6118 20.497ZM18.6378 17.1219L18.75 17.1782L18.8622 17.1219L21.6864 15.7039L22.1332 15.4795L21.6856 15.2567L18.8614 13.8504L18.75 13.7949L18.6386 13.8504L15.8143 15.2567L15.3668 15.4795L15.8136 15.7039L18.6378 17.1219ZM13.75 15.1779L18.75 12.6779L23.75 15.1779V21.0447L18.75 23.5447L13.75 21.0447V15.1779Z" fill="black" stroke="white" stroke-width="0.5"/>
</g>
<defs>
<clipPath id="clip0_636_19039">
<rect width="24" height="24" fill="white"/>
</clipPath>
</defs>
</svg>
