<svg width="18" height="15" viewBox="0 0 18 15" fill="none" xmlns="http://www.w3.org/2000/svg">
<path d="M14.8075 4.38986C14.7228 4.15868 14.5693 3.95901 14.3677 3.81778C14.166 3.67655 13.9259 3.60054 13.6797 3.6H12.2083L11.6083 0H7.6917L8.2917 3.6H6.80828L6.20828 0H2.2917L2.8917 3.6H1.2V6.9H0V14.4H16.0398L18 8.19247V6.9H15.7203L14.8075 4.38986ZM10.5917 1.2L10.9917 3.6H9.50828L9.1083 1.2H10.5917ZM5.19173 1.2L5.59174 3.6H4.10828L3.7083 1.2H5.19173ZM2.4 4.8H13.6797L14.4434 6.9H2.4V4.8ZM16.7708 8.1L15.1602 13.2H1.2V8.1H16.7708Z" fill="black"/>
</svg>
