<svg width="24" height="24" viewBox="0 0 24 24" fill="none" xmlns="http://www.w3.org/2000/svg">
<g clip-path="url(#clip0_636_19057)">
<path d="M18.7344 22.5073H1.48438V3.75729H12.0219L13.5384 2.29629L13.4994 2.25729H1.48438C0.656 2.25729 -0.015625 2.92891 -0.015625 3.75729V22.5073C-0.015625 23.3357 0.656 24.0073 1.48438 24.0073H18.7344C19.5627 24.0073 20.2344 23.3357 20.2344 22.5073V11.5232L18.7344 12.9549V22.5073ZM22.8331 0.971789C22.1562 0.323039 21.4093 -0.00585938 20.6124 -0.00585938C19.3651 -0.00585938 18.4554 0.799641 18.2079 1.04641C17.8569 1.39291 7.9149 11.3203 7.9149 11.3203C7.8369 11.3998 7.7799 11.4969 7.75065 11.6049C7.4814 12.5998 6.13177 17.0188 6.11827 17.0627C6.04852 17.2892 6.11077 17.5359 6.27765 17.7006C6.33577 17.7589 6.40485 17.8052 6.48093 17.8367C6.55701 17.8683 6.63857 17.8844 6.72092 17.8843C6.78542 17.8843 6.8503 17.8749 6.91402 17.8551C6.95977 17.8397 11.5194 16.3652 12.2698 16.1413C12.3688 16.1121 12.4584 16.0584 12.5326 15.9861C13.0063 15.5188 22.1446 6.52219 22.8841 5.75831C23.6488 4.96931 24.029 4.14916 24.0144 3.31854C24.0005 2.49804 23.6015 1.70829 22.8331 0.971789ZM21.8068 4.71427C21.3894 5.14477 18.1213 8.37427 12.0931 14.3128L11.6319 14.7676C10.9408 14.9814 9.28585 15.5131 8.03485 15.9166C8.4376 14.5865 8.92098 12.9796 9.1366 12.2195C10.4247 10.9333 18.9425 2.42866 19.2661 2.10916C19.3291 2.04614 19.904 1.49377 20.6123 1.49377C21.0144 1.49377 21.4017 1.67714 21.7951 2.05439C22.2654 2.50552 22.5076 2.93902 22.5144 3.34402C22.5219 3.76102 22.2838 4.22189 21.8068 4.71427Z" fill="black"/>
</g>
<defs>
<clipPath id="clip0_636_19057">
<rect width="24" height="24" fill="white"/>
</clipPath>
</defs>
</svg>
