<svg width="28" height="28" viewBox="0 0 28 28" fill="none" xmlns="http://www.w3.org/2000/svg">
<path d="M14 19.0003C13.6085 19.0004 13.2255 18.8857 12.8986 18.6702C12.5717 18.4548 12.3153 18.1481 12.161 17.7883C11.8383 17.7122 11.5207 17.616 11.21 17.5003L11.193 17.4943C10.2806 17.1519 9.43838 16.6455 8.708 16.0003C7.72939 15.137 6.97682 14.0474 6.51591 12.8266C6.055 11.6057 5.89974 10.2906 6.06368 8.99598C6.22761 7.70135 6.70576 6.46648 7.45644 5.39904C8.20711 4.3316 9.20751 3.464 10.3704 2.87189C11.5333 2.27978 12.8234 1.98113 14.1282 2.002C15.433 2.02287 16.7129 2.36261 17.8563 2.9916C18.9997 3.62059 19.9718 4.51974 20.688 5.61064C21.4041 6.70153 21.8425 7.95106 21.965 9.25027C22.004 9.66327 21.665 10.0003 21.25 10.0003C20.836 10.0003 20.505 9.66327 20.457 9.25127C20.3248 8.11456 19.8948 7.0329 19.2106 6.11563C18.5263 5.19836 17.6121 4.478 16.5602 4.02735C15.5082 3.57671 14.356 3.41177 13.2199 3.5492C12.0838 3.68663 11.0042 4.12156 10.09 4.81002C9.17594 5.49849 8.45979 6.41609 8.01399 7.47006C7.5682 8.52402 7.40856 9.67701 7.55122 10.8125C7.69388 11.9479 8.13377 13.0256 8.82644 13.9365C9.51911 14.8474 10.44 15.5593 11.496 16.0003L11.536 16.0173C11.736 16.0993 11.942 16.1713 12.152 16.2343C12.3446 15.7649 12.7085 15.3863 13.1698 15.1751C13.6311 14.9639 14.1555 14.936 14.6366 15.0969C15.1178 15.2579 15.5198 15.5957 15.7613 16.0419C16.0027 16.4881 16.0655 17.0095 15.937 17.5003C15.8261 17.9297 15.5757 18.31 15.2251 18.5816C14.8744 18.8531 14.4435 19.0004 14 19.0003ZM7 17.5003H8.169C7.60966 17.0648 7.10053 16.5684 6.651 16.0203C5.92071 16.1058 5.24727 16.4566 4.75856 17.0059C4.26985 17.5553 3.99991 18.265 4 19.0003V19.7153C4 23.4333 8.21 26.0003 14 26.0003C19.79 26.0003 24 23.2923 24 19.7153V19.0003C24 18.2046 23.6839 17.4416 23.1213 16.879C22.5587 16.3163 21.7956 16.0003 21 16.0003H17.355C17.4999 16.4864 17.5375 16.9982 17.465 17.5003H21L21.145 17.5073C21.516 17.5433 21.8603 17.7162 22.1108 17.9922C22.3612 18.2682 22.5 18.6275 22.5 19.0003V19.7153L22.495 19.8763C22.355 22.3963 18.926 24.5003 14 24.5003C8.889 24.5003 5.5 22.3893 5.5 19.7153V19.0003L5.507 18.8553C5.54303 18.4843 5.71589 18.14 5.99189 17.8895C6.2679 17.639 6.62727 17.5003 7 17.5003ZM19 10.0003C19.0002 10.9061 18.7543 11.7949 18.2886 12.5718C17.8229 13.3487 17.1549 13.9845 16.356 14.4113C15.7121 13.8238 14.8716 13.4988 14 13.5003C14.4596 13.5003 14.9148 13.4097 15.3394 13.2339C15.764 13.058 16.1499 12.8002 16.4749 12.4751C16.7999 12.1501 17.0577 11.7643 17.2336 11.3397C17.4095 10.915 17.5 10.4599 17.5 10.0003C17.5 9.54065 17.4095 9.08552 17.2336 8.66088C17.0577 8.23624 16.7999 7.8504 16.4749 7.5254C16.1499 7.20039 15.764 6.94259 15.3394 6.7667C14.9148 6.5908 14.4596 6.50027 14 6.50027C13.0717 6.50027 12.1815 6.86902 11.5251 7.5254C10.8687 8.18178 10.5 9.07202 10.5 10.0003C10.5 10.9285 10.8687 11.8188 11.5251 12.4751C12.1815 13.1315 13.0717 13.5003 14 13.5003C13.092 13.5003 12.266 13.8463 11.645 14.4123C10.8472 13.9848 10.1797 13.3498 9.713 12.5743C9.31646 11.9137 9.07797 11.1703 9.01613 10.4023C8.95429 9.6343 9.07078 8.86239 9.35651 8.14683C9.64224 7.43127 10.0895 6.79143 10.6633 6.27725C11.2371 5.76307 11.922 5.38846 12.6645 5.18267C13.407 4.97687 14.1871 4.94546 14.9437 5.09089C15.7004 5.23631 16.4132 5.55464 17.0265 6.02101C17.6398 6.48739 18.137 7.0892 18.4794 7.77947C18.8217 8.46973 18.9999 9.22978 19 10.0003Z" fill="black"/>
</svg>
