<svg width="24" height="24" viewBox="0 0 24 24" fill="none" xmlns="http://www.w3.org/2000/svg">
<path fill-rule="evenodd" clip-rule="evenodd" d="M8.66655 17V12.7051H9.53374V14.6123L11.2857 12.7051H12.4517L10.8345 14.3779L12.5396 17H11.4175L10.2369 14.9844L9.53374 15.7022V17H8.66655ZM12.9391 17.2051L13.8796 17.3193C13.8952 17.4287 13.9313 17.5039 13.988 17.5449C14.0661 17.6035 14.1891 17.6328 14.3571 17.6328C14.572 17.6328 14.7331 17.6006 14.8405 17.5361C14.9128 17.4932 14.9675 17.4238 15.0046 17.3281C15.03 17.2598 15.0427 17.1338 15.0427 16.9502V16.4961C14.7966 16.832 14.486 17 14.111 17C13.693 17 13.362 16.8232 13.1179 16.4697C12.9264 16.1904 12.8307 15.8428 12.8307 15.4268C12.8307 14.9053 12.9562 14.5068 13.2072 14.2314C13.4582 13.9561 13.7702 13.8184 14.1432 13.8184C14.528 13.8184 14.8454 13.9873 15.0954 14.3252V13.8887H15.8659V16.6807C15.8659 17.0479 15.8356 17.3223 15.7751 17.5039C15.7145 17.6855 15.6296 17.8281 15.5202 17.9316C15.4108 18.0352 15.2648 18.1162 15.0822 18.1748C14.8996 18.2334 14.6686 18.2627 14.3893 18.2627C13.862 18.2627 13.488 18.1724 13.2673 17.9917C13.0466 17.811 12.9362 17.582 12.9362 17.3047C12.9362 17.2773 12.9372 17.2441 12.9391 17.2051ZM13.6745 15.3799C13.6745 15.71 13.7385 15.9517 13.8664 16.105C13.9943 16.2583 14.152 16.335 14.3395 16.335C14.5407 16.335 14.7106 16.2563 14.8493 16.0991C14.988 15.9419 15.0573 15.709 15.0573 15.4004C15.0573 15.0781 14.9909 14.8389 14.8581 14.6826C14.7253 14.5264 14.5573 14.4482 14.3542 14.4482C14.1569 14.4482 13.9943 14.5249 13.8664 14.6782C13.7385 14.8315 13.6745 15.0654 13.6745 15.3799ZM12.0007 9C10.8961 9 10.0007 8.10457 10.0007 7C10.0007 5.89543 10.8961 5 12.0007 5C13.1052 5 14.0007 5.89543 14.0007 7C14.0007 8.10457 13.1052 9 12.0007 9ZM12.0007 8C12.553 8 13.0007 7.55229 13.0007 7C13.0007 6.44772 12.553 6 12.0007 6C11.4484 6 11.0007 6.44772 11.0007 7C11.0007 7.55229 11.4484 8 12.0007 8ZM8.29151 8.5C8.1011 8.0295 8.00067 7.52202 8.00067 7C8.00067 4.79086 9.79153 3 12.0007 3C14.2098 3 16.0007 4.79086 16.0007 7C16.0007 7.52202 15.9002 8.0295 15.7098 8.5H16.1875C16.898 8.5 17.5111 8.99849 17.656 9.69407L19.7393 19.6941C19.9083 20.5051 19.3878 21.2995 18.5768 21.4685C18.4762 21.4894 18.3736 21.5 18.2709 21.5H5.73047C4.90204 21.5 4.23047 20.8284 4.23047 20C4.23047 19.8972 4.24103 19.7947 4.262 19.6941L6.34533 9.69407C6.49024 8.99849 7.10329 8.5 7.8138 8.5H8.29151ZM9.5381 8.71395C9.76931 9.04541 9.53214 9.5 9.12801 9.5H7.8138C7.57696 9.5 7.37262 9.66616 7.32431 9.89802L5.24098 19.898C5.23399 19.9316 5.23047 19.9657 5.23047 20C5.23047 20.2761 5.45433 20.5 5.73047 20.5H18.2709C18.3051 20.5 18.3393 20.4965 18.3728 20.4895C18.6432 20.4332 18.8167 20.1684 18.7604 19.898L16.677 9.89802C16.6287 9.66616 16.4244 9.5 16.1875 9.5H14.8733C14.4692 9.5 14.232 9.04541 14.4632 8.71395C14.8113 8.21489 15.0007 7.62228 15.0007 7C15.0007 5.34315 13.6575 4 12.0007 4C10.3438 4 9.00067 5.34315 9.00067 7C9.00067 7.62228 9.19 8.21489 9.5381 8.71395Z" fill="black"/>
</svg>
