<svg width="20" height="20" viewBox="0 0 20 20" fill="none" xmlns="http://www.w3.org/2000/svg">
<path d="M15.625 8.125C15.625 6.63316 15.0324 5.20242 13.9775 4.14752C12.9226 3.09263 11.4918 2.5 10 2.5C8.50816 2.5 7.07742 3.09263 6.02252 4.14752C4.96763 5.20242 4.375 6.63316 4.375 8.125C4.375 10.4325 6.22125 13.44 10 17.0425C13.7788 13.44 15.625 10.4325 15.625 8.125ZM10 18.75C5.41625 14.5837 3.125 11.0413 3.125 8.125C3.125 6.30164 3.84933 4.55295 5.13864 3.26364C6.42795 1.97433 8.17664 1.25 10 1.25C11.8234 1.25 13.572 1.97433 14.8614 3.26364C16.1507 4.55295 16.875 6.30164 16.875 8.125C16.875 11.0413 14.5837 14.5837 10 18.75Z" fill="black"/>
<path d="M10 8.75C10.3315 8.75 10.6495 8.6183 10.8839 8.38388C11.1183 8.14946 11.25 7.83152 11.25 7.5C11.25 7.16848 11.1183 6.85054 10.8839 6.61612C10.6495 6.3817 10.3315 6.25 10 6.25C9.66848 6.25 9.35054 6.3817 9.11612 6.61612C8.8817 6.85054 8.75 7.16848 8.75 7.5C8.75 7.83152 8.8817 8.14946 9.11612 8.38388C9.35054 8.6183 9.66848 8.75 10 8.75ZM10 10C9.33696 10 8.70107 9.73661 8.23223 9.26777C7.76339 8.79893 7.5 8.16304 7.5 7.5C7.5 6.83696 7.76339 6.20107 8.23223 5.73223C8.70107 5.26339 9.33696 5 10 5C10.663 5 11.2989 5.26339 11.7678 5.73223C12.2366 6.20107 12.5 6.83696 12.5 7.5C12.5 8.16304 12.2366 8.79893 11.7678 9.26777C11.2989 9.73661 10.663 10 10 10ZM16.75 13.75L18.75 18.75H13.125V17.5H6.875V18.75H1.25L3.25 13.75H16.75ZM15.4037 13.75H4.59625L3.09625 17.5H16.9037L15.4037 13.75Z" fill="black"/>
</svg>
