<svg width="24" height="24" viewBox="0 0 24 24" fill="none" xmlns="http://www.w3.org/2000/svg">
<path d="M10.5 5.5C10.5 5.36739 10.5527 5.24021 10.6464 5.14645C10.7402 5.05268 10.8674 5 11 5H13C13.1326 5 13.2598 5.05268 13.3536 5.14645C13.4473 5.24021 13.5 5.36739 13.5 5.5C13.5 5.63261 13.4473 5.75979 13.3536 5.85355C13.2598 5.94732 13.1326 6 13 6H11C10.8674 6 10.7402 5.94732 10.6464 5.85355C10.5527 5.75979 10.5 5.63261 10.5 5.5Z" fill="black"/>
<path fill-rule="evenodd" clip-rule="evenodd" d="M16.6813 9.26C16.4998 9.4025 16.2643 9.5165 15.9803 9.609C16.0346 10.1645 15.9721 10.7252 15.7968 11.255C15.6214 11.7849 15.3372 12.2722 14.9622 12.6856C14.5873 13.0991 14.1299 13.4294 13.6197 13.6555C13.1094 13.8816 12.5574 13.9984 11.9993 13.9984C11.4412 13.9984 10.8892 13.8816 10.3789 13.6555C9.86867 13.4294 9.41135 13.0991 9.0364 12.6856C8.66144 12.2722 8.37716 11.7849 8.20182 11.255C8.02648 10.7252 7.96397 10.1645 8.0183 9.609C7.7343 9.5165 7.4988 9.4025 7.3178 9.26C7.0828 9.075 6.9253 8.828 6.9068 8.531C6.8893 8.2555 6.9983 8.0215 7.1073 7.8565C7.2149 7.70022 7.34268 7.55883 7.4873 7.436C7.5573 7.3745 7.6263 7.32 7.6903 7.2725C7.6713 7.17 7.6503 7.046 7.6293 6.9025C7.54072 6.27224 7.49728 5.63645 7.4993 5C7.4993 4.843 7.5663 4.726 7.5973 4.6765C7.6363 4.614 7.6823 4.5605 7.7243 4.5175C7.8078 4.43 7.9158 4.341 8.0343 4.2555C8.2743 4.0815 8.6043 3.886 8.9963 3.703C9.7778 3.338 10.8513 3 11.9993 3C13.1478 3 14.2208 3.3385 15.0023 3.703C15.3393 3.85714 15.6613 4.04209 15.9643 4.2555C16.0828 4.341 16.1908 4.4305 16.2743 4.5175C16.3163 4.5605 16.3623 4.614 16.4013 4.6765C16.4323 4.726 16.4993 4.843 16.4993 5C16.4993 5.801 16.4343 6.45 16.3693 6.9025C16.3483 7.046 16.3273 7.17 16.3083 7.2725C16.3723 7.32 16.4418 7.3745 16.5118 7.436C16.6368 7.5455 16.7798 7.688 16.8913 7.8565C17.0008 8.0215 17.1093 8.2555 17.0923 8.5315C17.0738 8.828 16.9163 9.075 16.6813 9.26ZM8.5003 5.159C8.5078 5.833 8.5638 6.378 8.6193 6.759C8.6323 6.849 8.6453 6.929 8.6573 7H15.3413C15.3538 6.929 15.3663 6.8485 15.3793 6.759C15.4343 6.378 15.4908 5.833 15.4983 5.159C15.4594 5.1261 15.4192 5.09474 15.3778 5.065C15.1973 4.9345 14.9233 4.77 14.5793 4.6095C13.8878 4.2865 12.9613 4 11.9993 4C11.0373 4 10.1108 4.2865 9.4193 4.6095C9.0753 4.77 8.8013 4.9345 8.6213 5.0645C8.57973 5.09456 8.53937 5.12625 8.5003 5.1595M8.3933 8L8.3918 8.001C8.3055 8.0585 8.22285 8.12129 8.1443 8.189C8.0553 8.267 7.9843 8.343 7.9413 8.409C7.93107 8.42384 7.92188 8.43938 7.9138 8.4555C7.92088 8.46196 7.92822 8.46813 7.9358 8.474C8.0108 8.533 8.1718 8.6195 8.4858 8.705C8.5478 8.722 8.6143 8.738 8.6853 8.754L8.6898 8.755C8.9408 8.8105 9.2498 8.86 9.6263 8.899C10.1598 8.9545 10.8313 8.991 11.6703 8.999L11.9993 9C13.6128 9 14.6563 8.8995 15.3093 8.755L15.3133 8.754C15.3848 8.738 15.4513 8.722 15.5133 8.705C15.8268 8.62 15.9883 8.533 16.0628 8.474C16.0704 8.46813 16.0777 8.46196 16.0848 8.4555C16.0769 8.4394 16.0679 8.42386 16.0578 8.409C15.9996 8.32727 15.9313 8.25334 15.8543 8.189C15.7759 8.1213 15.6934 8.05851 15.6073 8.001L15.6053 8H8.3933ZM11.8633 10C13.1843 10 14.2083 9.93 14.9933 9.808C15.0191 10.2157 14.9614 10.6243 14.8237 11.0089C14.686 11.3934 14.4712 11.7458 14.1925 12.0444C13.9138 12.3431 13.577 12.5816 13.2029 12.7455C12.8287 12.9094 12.425 12.9951 12.0166 12.9975C11.6081 12.9998 11.2035 12.9187 10.8274 12.7592C10.4514 12.5996 10.1119 12.365 9.82981 12.0696C9.54769 11.7742 9.32886 11.4243 9.18674 11.0413C9.04462 10.6584 8.98219 10.2504 9.0033 9.8425C9.7348 9.9435 10.6723 10 11.8633 10ZM8.0383 19.4385C8.01225 19.6245 7.99922 19.8122 7.9993 20V20.5C7.99936 20.6099 7.96319 20.7168 7.8964 20.8041C7.82961 20.8914 7.73591 20.9542 7.62981 20.9829C7.5237 21.0116 7.4111 21.0045 7.30942 20.9628C7.20774 20.9211 7.12264 20.847 7.0673 20.752C6.73032 20.9348 6.33599 20.9812 5.9658 20.8815L4.9998 20.6225C4.61568 20.5194 4.28823 20.268 4.08946 19.9235C3.89068 19.579 3.83685 19.1697 3.9398 18.7855L4.3278 17.3365C4.4308 16.9523 4.6822 16.6247 5.02669 16.4258C5.37119 16.227 5.78057 16.1731 6.1648 16.276L7.1308 16.5345C7.4668 16.6245 7.7458 16.822 7.9398 17.08C8.40266 16.4357 9.01236 15.911 9.7184 15.5493C10.4244 15.1876 11.2065 14.9993 11.9998 15C12.7927 14.9995 13.5743 15.1878 14.2799 15.5493C14.9856 15.9108 15.595 16.4352 16.0578 17.079C16.2588 16.8125 16.5432 16.6209 16.8658 16.535L17.8318 16.2765C18.216 16.1735 18.6253 16.2274 18.9698 16.4262C19.3143 16.6249 19.5657 16.9524 19.6688 17.3365L20.0573 18.786C20.1083 18.9763 20.1212 19.1747 20.0955 19.37C20.0698 19.5653 20.0058 19.7537 19.9073 19.9242C19.8088 20.0948 19.6776 20.2443 19.5213 20.3642C19.365 20.4841 19.1866 20.5721 18.9963 20.623L18.0308 20.8815C17.6613 20.9812 17.2676 20.9354 16.9308 20.7535C16.8753 20.8483 16.7901 20.9222 16.6883 20.9638C16.5866 21.0053 16.474 21.0122 16.368 20.9834C16.262 20.9545 16.1684 20.8915 16.1018 20.8041C16.0351 20.7168 15.9991 20.6099 15.9993 20.5V20C15.9994 19.8122 15.9864 19.6245 15.9603 19.4385L13.3583 20.136C13.2375 20.3945 13.0455 20.6132 12.8048 20.7665C12.5641 20.9197 12.2846 21.0011 11.9993 21.0011C11.714 21.0011 11.4345 20.9197 11.1938 20.7665C10.9531 20.6132 10.7611 20.3945 10.6403 20.136L8.0383 19.4385ZM10.5593 19.0785C10.6264 18.8506 10.7466 18.6418 10.91 18.4692C11.0734 18.2967 11.2753 18.1654 11.4993 18.086V16.031C10.798 16.1197 10.1326 16.3924 9.57084 16.8215C9.00906 17.2506 8.57087 17.8207 8.3008 18.474L10.5593 19.0785ZM15.6978 18.4735C15.4277 17.8203 14.9894 17.2503 14.4277 16.8213C13.8659 16.3923 13.2006 16.1196 12.4993 16.031V18.0855C12.9513 18.2455 13.3043 18.6155 13.4393 19.079L15.6978 18.4735ZM16.7713 18.1135C16.7543 18.0501 16.7499 17.9839 16.7585 17.9188C16.7671 17.8537 16.7884 17.7909 16.8212 17.734C16.854 17.6771 16.8977 17.6273 16.9498 17.5873C17.0019 17.5473 17.0614 17.518 17.1248 17.501L18.0908 17.242C18.2188 17.2078 18.3552 17.2258 18.47 17.2921C18.5847 17.3584 18.6685 17.4675 18.7028 17.5955L19.0913 19.0445C19.1083 19.1079 19.1127 19.1741 19.1041 19.2392C19.0956 19.3043 19.0743 19.3671 19.0414 19.424C19.0086 19.4809 18.9649 19.5307 18.9128 19.5707C18.8607 19.6107 18.8012 19.64 18.7378 19.657L17.7718 19.916C17.7083 19.933 17.6421 19.9373 17.577 19.9287C17.5119 19.9202 17.4491 19.8988 17.3922 19.8659C17.3353 19.8331 17.2855 19.7893 17.2455 19.7371C17.2055 19.685 17.1762 19.6255 17.1593 19.562L16.7713 18.1135ZM5.9063 17.242C5.84284 17.2249 5.77663 17.2205 5.71146 17.229C5.6463 17.2375 5.58345 17.2588 5.52651 17.2917C5.46958 17.3245 5.41968 17.3682 5.37966 17.4204C5.33964 17.4725 5.3103 17.532 5.2933 17.5955L4.9053 19.044C4.88829 19.1074 4.88393 19.1736 4.89249 19.2387C4.90105 19.3038 4.92235 19.3666 4.95518 19.4235C4.988 19.4804 5.03171 19.5302 5.08381 19.5702C5.13591 19.6102 5.19537 19.6395 5.2588 19.6565L6.2248 19.9155C6.28823 19.9325 6.35439 19.9369 6.4195 19.9283C6.48461 19.9198 6.5474 19.8985 6.60428 19.8656C6.66115 19.8328 6.71101 19.7891 6.75099 19.737C6.79097 19.6849 6.8203 19.6254 6.8373 19.562L7.2253 18.113C7.24239 18.0495 7.2468 17.9833 7.23828 17.9182C7.22976 17.853 7.20847 17.7901 7.17564 17.7332C7.14281 17.6763 7.09907 17.6264 7.04694 17.5864C6.9948 17.5463 6.93529 17.517 6.8718 17.5L5.9063 17.242ZM12.4993 19.5C12.4993 19.6326 12.4466 19.7598 12.3529 19.8536C12.2591 19.9473 12.1319 20 11.9993 20C11.8667 20 11.7395 19.9473 11.6457 19.8536C11.552 19.7598 11.4993 19.6326 11.4993 19.5C11.4993 19.3674 11.552 19.2402 11.6457 19.1464C11.7395 19.0527 11.8667 19 11.9993 19C12.1319 19 12.2591 19.0527 12.3529 19.1464C12.4466 19.2402 12.4993 19.3674 12.4993 19.5Z" fill="black"/>
</svg>
