<svg width="24" height="24" viewBox="0 0 24 24" fill="none" xmlns="http://www.w3.org/2000/svg">
<path d="M13.0035 7.75444C13.0035 7.55553 13.0825 7.36477 13.2232 7.22411C13.3638 7.08346 13.5546 7.00444 13.7535 7.00444H18.9855C19.1337 7.00457 19.2786 7.04863 19.4018 7.13105C19.5251 7.21347 19.6211 7.33056 19.6778 7.46752C19.7345 7.60448 19.7494 7.75518 19.7205 7.90058C19.6916 8.04598 19.6203 8.17956 19.5155 8.28444L16.7395 11.0614C17.2895 11.1584 17.7965 11.3144 18.2315 11.5444C19.1365 12.0214 19.7355 12.8284 19.7355 13.9624C19.7355 14.9284 19.2645 15.7124 18.5635 16.2324C17.8765 16.7434 16.9765 17.0024 16.0425 17.0024C14.6755 17.0024 13.7685 16.4744 13.3755 16.2464C13.2035 16.1463 13.0783 15.982 13.0275 15.7896C12.9767 15.5972 13.0044 15.3924 13.1045 15.2204C13.2046 15.0485 13.369 14.9233 13.5614 14.8725C13.7538 14.8216 13.9585 14.8493 14.1305 14.9494C14.4615 15.1424 15.0835 15.5024 16.0425 15.5024C16.7155 15.5024 17.2855 15.3144 17.6695 15.0294C18.0395 14.7544 18.2355 14.3944 18.2355 13.9624C18.2355 13.4624 18.0165 13.1264 17.5325 12.8714C16.9945 12.5874 16.1575 12.4284 15.0615 12.4284C14.9133 12.4283 14.7684 12.3843 14.6452 12.3018C14.522 12.2194 14.4259 12.1023 14.3692 11.9654C14.3125 11.8284 14.2977 11.6777 14.3265 11.5323C14.3554 11.3869 14.4267 11.2533 14.5315 11.1484L17.1745 8.50444H13.7535C13.5546 8.50444 13.3638 8.42543 13.2232 8.28477C13.0825 8.14412 13.0035 7.95336 13.0035 7.75444ZM7.8805 15.2154C7.58234 15.1805 7.28084 15.2423 7.02048 15.3917C6.76011 15.5412 6.55469 15.7703 6.4345 16.0454C6.35095 16.2229 6.20118 16.3606 6.0173 16.429C5.83342 16.4973 5.63008 16.4909 5.45087 16.4112C5.27166 16.3314 5.13084 16.1845 5.05862 16.0021C4.98639 15.8197 4.9885 15.6163 5.0645 15.4354C5.31435 14.8689 5.73904 14.3972 6.27636 14.0895C6.81369 13.7818 7.43542 13.6542 8.0505 13.7254C8.6395 13.7854 9.1895 14.0484 9.6075 14.4684C10.0415 14.9144 10.2925 15.5264 10.2925 16.2464C10.2925 17.8874 9.0385 18.6834 8.1725 19.2324C7.6345 19.5734 6.9925 19.9264 6.6775 20.5054H9.7505C9.94942 20.5054 10.1402 20.5845 10.2808 20.7251C10.4215 20.8658 10.5005 21.0565 10.5005 21.2554C10.5005 21.4544 10.4215 21.6451 10.2808 21.7858C10.1402 21.9264 9.94942 22.0054 9.7505 22.0054H5.7505C5.55159 22.0054 5.36083 21.9264 5.22017 21.7858C5.07952 21.6451 5.0005 21.4544 5.0005 21.2554C5.0005 19.4564 6.3375 18.6254 7.2435 18.0454C8.2755 17.3864 8.7935 17.0144 8.7935 16.2454C8.7935 15.8904 8.6775 15.6614 8.5335 15.5134C8.35685 15.3422 8.12562 15.2369 7.8805 15.2154ZM8.1145 2.09444C8.23152 2.1594 8.32903 2.25449 8.3969 2.36984C8.46478 2.48519 8.50055 2.6166 8.5005 2.75044V9.00044H9.7525C9.95142 9.00044 10.1422 9.07946 10.2828 9.22011C10.4235 9.36077 10.5025 9.55153 10.5025 9.75044C10.5025 9.94936 10.4235 10.1401 10.2828 10.2808C10.1422 10.4214 9.95142 10.5004 9.7525 10.5004H5.7505C5.55159 10.5004 5.36083 10.4214 5.22017 10.2808C5.07952 10.1401 5.0005 9.94936 5.0005 9.75044C5.0005 9.55153 5.07952 9.36077 5.22017 9.22011C5.36083 9.07946 5.55159 9.00044 5.7505 9.00044H7.0005V4.10344L6.1475 4.63644C5.97883 4.74187 5.77518 4.77597 5.58136 4.73124C5.38754 4.68651 5.21943 4.56662 5.114 4.39794C5.00858 4.22927 4.97448 4.02562 5.01921 3.8318C5.06394 3.63798 5.18383 3.46987 5.3525 3.36444L7.3525 2.11444C7.4661 2.04321 7.59673 2.00378 7.73077 2.00026C7.86481 1.99674 7.99733 2.02927 8.1145 2.09444Z" fill="black"/>
</svg>
