<svg width="22" height="22" viewBox="0 0 22 22" fill="none" xmlns="http://www.w3.org/2000/svg">
<g clip-path="url(#clip0_636_19028)">
<path d="M4.26367 17.875C4.26367 17.875 6.87476 17.875 8.24975 16.5" stroke="black" stroke-linecap="round" stroke-linejoin="round"/>
<path d="M8.25 16.5C8.25 16.5 9.625 17.875 11 17.875" stroke="black" stroke-linecap="round" stroke-linejoin="round"/>
<path d="M17.7361 17.875C17.7361 17.875 15.125 17.875 13.75 16.5" stroke="black" stroke-linecap="round" stroke-linejoin="round"/>
<path d="M13.75 16.5C13.75 16.5 12.375 17.875 11 17.875" stroke="black" stroke-linecap="round" stroke-linejoin="round"/>
<path d="M11 4.125C13.75 4.125 15.125 5.49999 15.125 9.62498C15.125 13.0625 12.375 15.125 11 15.125" stroke="black" stroke-linecap="round" stroke-linejoin="round"/>
<path d="M11 4.125C8.24999 4.125 6.875 5.49999 6.875 9.62498C6.875 13.0625 9.62499 15.125 11 15.125" stroke="black" stroke-linecap="round" stroke-linejoin="round"/>
<path d="M13.7506 16.4996L13.1133 14.1211" stroke="black" stroke-linecap="round" stroke-linejoin="round"/>
<path d="M8.25 16.4996L8.88731 14.1211" stroke="black" stroke-linecap="round" stroke-linejoin="round"/>
<path d="M10.9999 20.6248C16.3156 20.6248 20.6248 16.3156 20.6248 10.9999C20.6248 5.68422 16.3156 1.375 10.9999 1.375C5.68422 1.375 1.375 5.68422 1.375 10.9999C1.375 16.3156 5.68422 20.6248 10.9999 20.6248Z" stroke="black" stroke-linecap="round" stroke-linejoin="round"/>
</g>
<defs>
<clipPath id="clip0_636_19028">
<rect width="22" height="22" fill="white"/>
</clipPath>
</defs>
</svg>
