<svg width="24" height="13" viewBox="0 0 24 13" fill="none" xmlns="http://www.w3.org/2000/svg">
<path d="M22.774 0H1.22606C0.550014 0 0 0.550446 0 1.2269V11.5035C0 12.18 0.550014 12.7304 1.22606 12.7304H22.774C23.45 12.7304 24 12.18 24 11.5035V1.2269C24 0.550391 23.45 0 22.774 0ZM23.1414 11.5035C23.1414 11.7063 22.9766 11.8713 22.7739 11.8713H1.22606C1.02345 11.8713 0.858581 11.7063 0.858581 11.5035V9.86654H23.1414V11.5035ZM23.1414 9.00737H0.858581V3.72307H23.1414V9.00737ZM23.1414 2.8639H0.858581V1.2269C0.858581 1.02415 1.02345 0.859169 1.22606 0.859169H22.774C22.9766 0.859169 23.1414 1.02415 23.1414 1.2269V2.8639Z" fill="black"/>
<path d="M3.48432 4.2474H2.47061L1.76541 8.65781H2.40136L2.52099 7.85765H3.37098L3.49061 8.65781H4.18952L3.48432 4.2474ZM2.60911 7.25904L2.94284 5.02862L3.27657 7.25904H2.60911Z" fill="black"/>
<path d="M6.37426 6.30758C6.68277 6.16269 6.82127 5.87285 6.82127 5.41918V5.26164C6.82127 4.58119 6.51276 4.24724 5.79498 4.24724H4.74982V8.65765H5.83907C6.53163 8.6577 6.89053 8.29227 6.89053 7.61182V7.25263C6.89058 6.78643 6.74579 6.45247 6.37426 6.30758ZM5.44244 4.87738H5.77617C6.02172 4.87738 6.12876 5.01598 6.12876 5.33105V5.57672C6.12876 5.92956 5.97134 6.04303 5.7132 6.04303H5.44244V4.87738ZM6.19802 7.59299C6.19802 7.9206 6.07209 8.02772 5.83913 8.02772H5.44244V6.67306H5.75095C6.06575 6.67306 6.19796 6.79907 6.19796 7.20862V7.59299H6.19802Z" fill="black"/>
<path d="M9.55384 5.73425V5.30582C9.55384 4.60013 9.20124 4.19693 8.52126 4.19693C7.84128 4.19693 7.48868 4.60019 7.48868 5.30582V7.59923C7.48868 8.30492 7.84122 8.70812 8.52126 8.70812C9.20124 8.70812 9.55384 8.30486 9.55384 7.59923V7.01332H8.89902V7.64335C8.89902 7.95837 8.76052 8.07173 8.54013 8.07173C8.31974 8.07173 8.18124 7.95837 8.18124 7.64335V5.2617C8.18124 4.94668 8.31974 4.82697 8.54013 4.82697C8.76052 4.82697 8.89902 4.94668 8.89902 5.2617V5.73425H9.55384Z" fill="black"/>
<path d="M12.6578 6.1374H11.3985V6.76743H12.6578V6.1374Z" fill="black"/>
<path d="M15.7744 4.24735C15.6673 4.54348 15.5477 4.80179 15.0125 4.80179V5.29323H15.5477V8.65776H16.2403V4.24735H15.7744Z" fill="black"/>
<path d="M18.0095 8.02767C18.0032 7.99614 18.0032 7.96466 18.0032 7.93314C18.0032 7.20857 19.3822 6.69189 19.3822 5.30582C19.3822 4.60013 19.0296 4.19693 18.3496 4.19693C17.6696 4.19693 17.317 4.60019 17.317 5.30582V5.73425H17.9718V5.2617C17.9718 4.94668 18.1103 4.82697 18.3307 4.82697C18.5511 4.82697 18.6896 4.93409 18.6896 5.331C18.6896 6.60371 17.3171 6.81796 17.3171 8.11585V8.6577H19.3192V8.02767H18.0095Z" fill="black"/>
<path d="M22.0769 5.41923V5.30582C22.0769 4.60013 21.7243 4.19693 21.0443 4.19693C20.3643 4.19693 20.0117 4.60019 20.0117 5.30582V5.54524H20.6665V5.2617C20.6665 4.94668 20.805 4.82697 21.0254 4.82697C21.2458 4.82697 21.3843 4.93409 21.3843 5.331V5.57666C21.3843 5.9295 21.2269 6.04297 20.9688 6.04297H20.6981V6.67301H20.931C21.2458 6.67301 21.3844 6.82431 21.3844 7.23375V7.58029C21.3844 7.9709 21.2459 8.07803 21.0255 8.07803C20.8051 8.07803 20.6665 7.95831 20.6665 7.6433V7.23375H20.0118V7.59918C20.0118 8.30486 20.3644 8.70806 21.0444 8.70806C21.7243 8.70806 22.0769 8.30481 22.0769 7.59918V7.25263C22.0769 6.80531 21.9384 6.47765 21.5921 6.32646C21.9258 6.18792 22.0769 5.89179 22.0769 5.41923Z" fill="black"/>
<path d="M5.04963 2.33967C5.30938 2.33967 5.51995 2.12896 5.51995 1.86903C5.51995 1.60911 5.30938 1.39839 5.04963 1.39839C4.78988 1.39839 4.57932 1.60911 4.57932 1.86903C4.57932 2.12896 4.78988 2.33967 5.04963 2.33967Z" fill="black"/>
<path d="M5.04963 11.3415C5.30938 11.3415 5.51995 11.1308 5.51995 10.8709C5.51995 10.6109 5.30938 10.4002 5.04963 10.4002C4.78988 10.4002 4.57932 10.6109 4.57932 10.8709C4.57932 11.1308 4.78988 11.3415 5.04963 11.3415Z" fill="black"/>
<path d="M18.9506 2.33967C19.2104 2.33967 19.421 2.12896 19.421 1.86903C19.421 1.60911 19.2104 1.39839 18.9506 1.39839C18.6909 1.39839 18.4803 1.60911 18.4803 1.86903C18.4803 2.12896 18.6909 2.33967 18.9506 2.33967Z" fill="black"/>
<path d="M18.9506 11.3415C19.2104 11.3415 19.421 11.1308 19.421 10.8709C19.421 10.6109 19.2104 10.4002 18.9506 10.4002C18.6909 10.4002 18.4803 10.6109 18.4803 10.8709C18.4803 11.1308 18.6909 11.3415 18.9506 11.3415Z" fill="black"/>
</svg>
