<svg width="86" height="86" viewBox="0 0 86 86" fill="none" xmlns="http://www.w3.org/2000/svg">
<mask id="path-1-inside-1_3667_7860" fill="white">
<path fill-rule="evenodd" clip-rule="evenodd" d="M4.10243 43.3302C2.9471 43.3302 2.9471 41.5747 4.10243 41.5747H6.3118V29.5981L1.75545 30.3779V56.0627L6.3118 56.8951V43.3302H4.10243ZM15.0155 43.3302C13.8601 43.3302 13.8601 41.5747 15.0155 41.5747H17.2248V27.7299L13.4894 28.3692L13.5505 58.2186L17.2248 58.8904V43.3302H15.0155ZM74.9426 29.7376C74.9704 29.7395 74.9971 29.7433 75.0239 29.7472L81.5383 30.5394C81.9912 30.5738 82.3486 30.9522 82.3486 31.4147V54.3206H82.3457C82.3467 54.7535 82.0256 55.13 81.5841 55.1874L28.8212 62.1624C28.3386 62.1624 27.9468 61.7715 27.9468 61.288L27.8445 25.0714C27.8197 24.4722 28.2946 24.0651 28.8212 24.1291L35.3785 24.9261C35.4053 24.928 35.4321 24.9319 35.4579 24.9357L41.9722 25.7279C41.999 25.7298 42.0258 25.7336 42.0516 25.7374L48.565 26.5296C48.5927 26.5315 48.6195 26.5354 48.6462 26.5392L61.7524 28.1331C61.7801 28.1351 61.8078 28.1389 61.8355 28.1437L68.348 28.9359C68.3748 28.9378 68.4015 28.9416 68.4273 28.9454L74.9426 29.7376ZM75.7549 31.603V54.1955L80.5941 53.5552V32.1916L75.7549 31.603ZM74.0004 54.4277V31.3899L69.1612 30.8012V55.0679L74.0004 54.4277ZM62.5666 29.9994V55.9404L67.4058 55.3001V30.5881L62.5666 29.9994ZM60.8121 56.1726V29.7863L55.971 29.1977L56.0187 56.8071L60.8121 56.1726ZM49.3792 28.3959V57.6863L54.2709 57.0393L54.2222 28.9855L49.3792 28.3959ZM47.6237 57.9185V28.1828L42.7855 27.5942V58.5588L47.6237 57.9185ZM36.1908 26.7924V59.4312L41.03 58.791V27.3801L36.1908 26.7924ZM34.4363 59.6644V26.5793L29.5971 25.9907L29.6936 60.2922L34.4363 59.6644ZM18.9803 44.0077H21.1897C22.345 44.0077 22.345 45.7632 21.1897 45.7632H18.9803V59.2114L24.2925 60.1823L24.197 26.5373L18.9793 27.4298L18.9803 44.0077ZM8.06725 25.4001V27.5196L17.2258 25.9524V23.4449L8.06725 25.4001ZM8.06725 29.298V44.0087H10.2766C11.4319 44.0087 11.4319 45.7641 10.2766 45.7641H8.06725V57.2161L11.8027 57.8984L11.7425 28.6683L8.06725 29.298ZM8.06725 58.9945V60.6554L17.2258 62.7434V60.6687L8.06725 58.9945ZM7.0629 62.2216C7.01608 62.2149 6.97021 62.2044 6.9253 62.1901L0.751108 60.7825C0.326818 60.7213 0 60.3553 0 59.9138V26.0394C0 25.6342 0.28286 25.2701 0.695683 25.1822L24.8735 20.0191C24.9701 19.999 25.0656 19.9952 25.1583 20.0057L85.226 27.3094C85.6722 27.362 86.001 27.7413 86 28.18V57.521C86 57.9911 85.6302 58.3743 85.1657 58.3973L25.3217 66.3183L24.9892 66.3088L7.0629 62.2216ZM6.3118 60.255V58.6734L1.75545 57.8411V59.2162L6.3118 60.255ZM6.3118 27.8197V25.7747L1.75545 26.7475V28.5995L6.3118 27.8197ZM18.9803 23.0694V25.6514L24.1922 24.7589L24.1845 21.957L18.9803 23.0694ZM18.9803 60.9889V63.1428L24.304 64.3564L24.2973 61.9598L18.9803 60.9889ZM26.0432 61.0825L26.0528 64.4577L84.2455 56.7555V28.9569L25.9324 21.8663L26.0432 61.0825Z"/>
</mask>
<path fill-rule="evenodd" clip-rule="evenodd" d="M4.10243 43.3302C2.9471 43.3302 2.9471 41.5747 4.10243 41.5747H6.3118V29.5981L1.75545 30.3779V56.0627L6.3118 56.8951V43.3302H4.10243ZM15.0155 43.3302C13.8601 43.3302 13.8601 41.5747 15.0155 41.5747H17.2248V27.7299L13.4894 28.3692L13.5505 58.2186L17.2248 58.8904V43.3302H15.0155ZM74.9426 29.7376C74.9704 29.7395 74.9971 29.7433 75.0239 29.7472L81.5383 30.5394C81.9912 30.5738 82.3486 30.9522 82.3486 31.4147V54.3206H82.3457C82.3467 54.7535 82.0256 55.13 81.5841 55.1874L28.8212 62.1624C28.3386 62.1624 27.9468 61.7715 27.9468 61.288L27.8445 25.0714C27.8197 24.4722 28.2946 24.0651 28.8212 24.1291L35.3785 24.9261C35.4053 24.928 35.4321 24.9319 35.4579 24.9357L41.9722 25.7279C41.999 25.7298 42.0258 25.7336 42.0516 25.7374L48.565 26.5296C48.5927 26.5315 48.6195 26.5354 48.6462 26.5392L61.7524 28.1331C61.7801 28.1351 61.8078 28.1389 61.8355 28.1437L68.348 28.9359C68.3748 28.9378 68.4015 28.9416 68.4273 28.9454L74.9426 29.7376ZM75.7549 31.603V54.1955L80.5941 53.5552V32.1916L75.7549 31.603ZM74.0004 54.4277V31.3899L69.1612 30.8012V55.0679L74.0004 54.4277ZM62.5666 29.9994V55.9404L67.4058 55.3001V30.5881L62.5666 29.9994ZM60.8121 56.1726V29.7863L55.971 29.1977L56.0187 56.8071L60.8121 56.1726ZM49.3792 28.3959V57.6863L54.2709 57.0393L54.2222 28.9855L49.3792 28.3959ZM47.6237 57.9185V28.1828L42.7855 27.5942V58.5588L47.6237 57.9185ZM36.1908 26.7924V59.4312L41.03 58.791V27.3801L36.1908 26.7924ZM34.4363 59.6644V26.5793L29.5971 25.9907L29.6936 60.2922L34.4363 59.6644ZM18.9803 44.0077H21.1897C22.345 44.0077 22.345 45.7632 21.1897 45.7632H18.9803V59.2114L24.2925 60.1823L24.197 26.5373L18.9793 27.4298L18.9803 44.0077ZM8.06725 25.4001V27.5196L17.2258 25.9524V23.4449L8.06725 25.4001ZM8.06725 29.298V44.0087H10.2766C11.4319 44.0087 11.4319 45.7641 10.2766 45.7641H8.06725V57.2161L11.8027 57.8984L11.7425 28.6683L8.06725 29.298ZM8.06725 58.9945V60.6554L17.2258 62.7434V60.6687L8.06725 58.9945ZM7.0629 62.2216C7.01608 62.2149 6.97021 62.2044 6.9253 62.1901L0.751108 60.7825C0.326818 60.7213 0 60.3553 0 59.9138V26.0394C0 25.6342 0.28286 25.2701 0.695683 25.1822L24.8735 20.0191C24.9701 19.999 25.0656 19.9952 25.1583 20.0057L85.226 27.3094C85.6722 27.362 86.001 27.7413 86 28.18V57.521C86 57.9911 85.6302 58.3743 85.1657 58.3973L25.3217 66.3183L24.9892 66.3088L7.0629 62.2216ZM6.3118 60.255V58.6734L1.75545 57.8411V59.2162L6.3118 60.255ZM6.3118 27.8197V25.7747L1.75545 26.7475V28.5995L6.3118 27.8197ZM18.9803 23.0694V25.6514L24.1922 24.7589L24.1845 21.957L18.9803 23.0694ZM18.9803 60.9889V63.1428L24.304 64.3564L24.2973 61.9598L18.9803 60.9889ZM26.0432 61.0825L26.0528 64.4577L84.2455 56.7555V28.9569L25.9324 21.8663L26.0432 61.0825Z" fill="#17A0B5" stroke="#17A0B5" stroke-width="2" mask="url(#path-1-inside-1_3667_7860)"/>
</svg>
