<svg width="74" height="74" viewBox="0 0 74 74" fill="none" xmlns="http://www.w3.org/2000/svg">
<path d="M64.75 65.5H65.7405L65.4719 64.5466C65.3018 63.9427 64.8609 63.3767 64.3195 62.8648C63.764 62.3396 63.0327 61.8065 62.1712 61.2796C60.4465 60.2246 58.1282 59.1508 55.4659 58.1883C50.1436 56.264 43.35 54.75 37 54.75C30.6734 54.75 23.9146 56.2524 18.6036 58.1709C15.947 59.1305 13.6292 60.2027 11.8949 61.2594C11.0286 61.7872 10.291 62.3214 9.72615 62.8478C9.17407 63.3624 8.72612 63.9253 8.53557 64.5218L8.22308 65.5H9.25H64.75ZM47 18.5C47 12.9983 42.5017 8.5 37 8.5C31.4983 8.5 27 12.9983 27 18.5C27 24.0017 31.4983 28.5 37 28.5C42.5017 28.5 47 24.0017 47 18.5ZM19.25 18.5C19.25 8.69296 27.193 0.75 37 0.75C46.807 0.75 54.75 8.69296 54.75 18.5C54.75 28.307 46.807 36.25 37 36.25C27.193 36.25 19.25 28.307 19.25 18.5ZM0.75 64.75C0.75 61.9498 2.14676 59.4416 4.55338 57.2204C6.96509 54.9945 10.3407 53.108 14.1481 51.5828C21.7642 48.5318 30.9194 47 37 47C43.0806 47 52.2358 48.5318 59.8519 51.5828C63.6593 53.108 67.0349 54.9945 69.4466 57.2204C71.8532 59.4416 73.25 61.9498 73.25 64.75V73.25H0.75V64.75Z" fill="#1B9FE8" stroke="white" stroke-width="1.5"/>
</svg>
