<svg width="347" height="306" viewBox="0 0 347 306" fill="none" xmlns="http://www.w3.org/2000/svg">
<path fill-rule="evenodd" clip-rule="evenodd" d="M38.3018 120.78C50.7303 120.78 61.7467 126.125 68.7414 134.369C78.8329 128.638 90.7495 125.273 103.566 125.273C106.58 125.273 109.512 125.517 112.402 125.873C110.957 121.514 110.148 116.903 110.148 112.122C110.148 85.5674 134.13 64.0393 163.727 64.0393C176.899 64.0393 188.947 68.3242 198.279 75.4038C212.227 54.5207 237.596 40.5022 266.682 40.5022C310.747 40.5022 346.464 72.5645 346.464 112.122C346.464 150.7 312.465 182.066 269.911 183.6C269.911 183.689 269.927 183.778 269.927 183.875C269.927 216.234 240.701 242.476 204.654 242.476C184.273 242.476 166.089 234.085 154.106 220.948C142.14 234.085 123.956 242.476 103.566 242.476C69.6498 242.476 41.7867 219.228 38.6156 189.516C38.5 189.516 38.4009 189.531 38.3018 189.531C17.1443 189.531 0.000366211 174.148 0.000366211 155.156C0.000366211 136.178 17.1443 120.78 38.3018 120.78Z" fill="#0C5A8E" fill-opacity="0.07"/>
<path d="M82 66C82 61.0294 86.0294 57 91 57H179.395C177.893 57.3125 176.513 58.0571 175.427 59.1431C174.325 60.2452 173.575 61.6494 173.271 63.1782C172.967 64.7069 173.123 66.2914 173.719 67.7314C174.316 69.1714 175.326 70.4022 176.622 71.2682C177.918 72.1341 179.441 72.5963 181 72.5963C183.09 72.5963 185.095 71.7661 186.573 70.2881C188.05 68.8102 188.881 66.8057 188.881 64.7156C188.881 63.1569 188.419 61.6333 187.553 60.3373C186.687 59.0413 185.456 58.0312 184.016 57.4348C183.558 57.2451 183.086 57.1 182.605 57H271C275.971 57 280 61.0294 280 66V262.055C280 267.026 275.971 271.055 271 271.055H91C86.0294 271.055 82 267.026 82 262.055V66Z" fill="white" stroke="#888888" stroke-width="2"/>
<path d="M255.42 101H105.58C104.365 101 103.2 100.684 102.342 100.121C101.483 99.5587 101 98.7956 101 98C101 97.2044 101.483 96.4413 102.342 95.8787C103.2 95.3161 104.365 95 105.58 95H255.42C256.635 95 257.8 95.3161 258.658 95.8787C259.517 96.4413 260 97.2044 260 98C260 98.7956 259.517 99.5587 258.658 100.121C257.8 100.684 256.635 101 255.42 101Z" fill="#DDDDDD"/>
<path d="M255.42 134H105.58C104.365 134 103.2 133.684 102.342 133.121C101.483 132.559 101 131.796 101 131C101 130.204 101.483 129.441 102.342 128.879C103.2 128.316 104.365 128 105.58 128H255.42C256.635 128 257.8 128.316 258.658 128.879C259.517 129.441 260 130.204 260 131C260 131.796 259.517 132.559 258.658 133.121C257.8 133.684 256.635 134 255.42 134Z" fill="#DDDDDD"/>
<path d="M255.42 167H105.58C104.365 167 103.2 166.684 102.342 166.121C101.483 165.559 101 164.796 101 164C101 163.204 101.483 162.441 102.342 161.879C103.2 161.316 104.365 161 105.58 161H255.42C256.635 161 257.8 161.316 258.658 161.879C259.517 162.441 260 163.204 260 164C260 164.796 259.517 165.559 258.658 166.121C257.8 166.684 256.635 167 255.42 167Z" fill="#DDDDDD"/>
<path d="M255.42 200H105.58C104.365 200 103.2 199.684 102.342 199.121C101.483 198.559 101 197.796 101 197C101 196.204 101.483 195.441 102.342 194.879C103.2 194.316 104.365 194 105.58 194H255.42C256.635 194 257.8 194.316 258.658 194.879C259.517 195.441 260 196.204 260 197C260 197.796 259.517 198.559 258.658 199.121C257.8 199.684 256.635 200 255.42 200Z" fill="#DDDDDD"/>
<path d="M255.42 233H105.58C104.365 233 103.2 232.684 102.342 232.121C101.483 231.559 101 230.796 101 230C101 229.204 101.483 228.441 102.342 227.879C103.2 227.316 104.365 227 105.58 227H255.42C256.635 227 257.8 227.316 258.658 227.879C259.517 228.441 260 229.204 260 230C260 230.796 259.517 231.559 258.658 232.121C257.8 232.684 256.635 233 255.42 233Z" fill="#DDDDDD"/>
<path d="M229.436 101H105.564C104.353 101 103.193 100.684 102.337 100.121C101.481 99.5587 101 98.7956 101 98C101 97.2044 101.481 96.4413 102.337 95.8787C103.193 95.3161 104.353 95 105.564 95H229.436C230.647 95 231.807 95.3161 232.663 95.8787C233.519 96.4413 234 97.2044 234 98C234 98.7956 233.519 99.5587 232.663 100.121C231.807 100.684 230.647 101 229.436 101Z" fill="#3498DB"/>
<path d="M190.462 134H105.538C104.334 134 103.18 133.684 102.329 133.121C101.478 132.559 101 131.796 101 131C101 130.204 101.478 129.441 102.329 128.879C103.18 128.316 104.334 128 105.538 128H190.462C191.666 128 192.82 128.316 193.671 128.879C194.522 129.441 195 130.204 195 131C195 131.796 194.522 132.559 193.671 133.121C192.82 133.684 191.666 134 190.462 134Z" fill="#FF9B63"/>
<path d="M143.493 167H105.507C104.312 167 103.165 166.684 102.32 166.121C101.475 165.559 101 164.796 101 164C101 163.204 101.475 162.441 102.32 161.879C103.165 161.316 104.312 161 105.507 161H143.493C144.688 161 145.835 161.316 146.68 161.879C147.525 162.441 148 163.204 148 164C148 164.796 147.525 165.559 146.68 166.121C145.835 166.684 144.688 167 143.493 167Z" fill="#FF0016"/>
<path d="M241.428 200H105.572C104.359 200 103.197 199.684 102.339 199.121C101.482 198.559 101 197.796 101 197C101 196.204 101.482 195.441 102.339 194.879C103.197 194.316 104.359 194 105.572 194H241.428C242.641 194 243.803 194.316 244.661 194.879C245.518 195.441 246 196.204 246 197C246 197.796 245.518 198.559 244.661 199.121C243.803 199.684 242.641 200 241.428 200Z" fill="#2ECC71"/>
<path d="M211.426 233H105.574C104.361 233 103.197 232.684 102.34 232.121C101.482 231.559 101 230.796 101 230C101 229.204 101.482 228.441 102.34 227.879C103.197 227.316 104.361 227 105.574 227H211.426C212.639 227 213.803 227.316 214.66 227.879C215.518 228.441 216 229.204 216 230C216 230.796 215.518 231.559 214.66 232.121C213.803 232.684 212.639 233 211.426 233Z" fill="#F4D03F"/>
<g filter="url(#filter0_d_2964_7199)">
<path d="M58.0926 157.026C58.0926 164.348 52.4844 170.062 45.8329 170.062C39.1814 170.062 33.5732 164.348 33.5732 157.026C33.5732 149.704 39.1814 143.989 45.8329 143.989C52.4844 143.989 58.0926 149.704 58.0926 157.026Z" stroke="#8E44AD" stroke-width="5"/>
</g>
<g filter="url(#filter1_d_2964_7199)">
<path d="M290.5 176.421C290.5 185.336 283.665 192.342 275.5 192.342C267.335 192.342 260.5 185.336 260.5 176.421C260.5 167.506 267.335 160.5 275.5 160.5C283.665 160.5 290.5 167.506 290.5 176.421Z" stroke="#4BE447" stroke-width="5"/>
</g>
<g filter="url(#filter2_d_2964_7199)">
<circle cx="215.536" cy="25.5365" r="15.5365" fill="#E74C3C"/>
</g>
<g filter="url(#filter3_d_2964_7199)">
<circle cx="269.652" cy="283.652" r="11.6524" fill="#2980B9"/>
</g>
<g filter="url(#filter4_d_2964_7199)">
<circle cx="144.652" cy="69.6524" r="11.6524" fill="#184EA2"/>
</g>
<g filter="url(#filter5_d_2964_7199)">
<circle cx="123" cy="246" r="15" fill="#EC8E37"/>
</g>
<g filter="url(#filter6_d_2964_7199)">
<circle cx="282.764" cy="93.3261" r="17.7511" stroke="#FF8F01" stroke-width="8"/>
</g>
<defs>
<filter id="filter0_d_2964_7199" x="21.0732" y="131.489" width="49.5195" height="51.0729" filterUnits="userSpaceOnUse" color-interpolation-filters="sRGB">
<feFlood flood-opacity="0" result="BackgroundImageFix"/>
<feColorMatrix in="SourceAlpha" type="matrix" values="0 0 0 0 0 0 0 0 0 0 0 0 0 0 0 0 0 0 127 0" result="hardAlpha"/>
<feOffset/>
<feGaussianBlur stdDeviation="5"/>
<feColorMatrix type="matrix" values="0 0 0 0 0.368627 0 0 0 0 0.462745 0 0 0 0 0.980392 0 0 0 0.25 0"/>
<feBlend mode="normal" in2="BackgroundImageFix" result="effect1_dropShadow_2964_7199"/>
<feBlend mode="normal" in="SourceGraphic" in2="effect1_dropShadow_2964_7199" result="shape"/>
</filter>
<filter id="filter1_d_2964_7199" x="248" y="148" width="55" height="56.8421" filterUnits="userSpaceOnUse" color-interpolation-filters="sRGB">
<feFlood flood-opacity="0" result="BackgroundImageFix"/>
<feColorMatrix in="SourceAlpha" type="matrix" values="0 0 0 0 0 0 0 0 0 0 0 0 0 0 0 0 0 0 127 0" result="hardAlpha"/>
<feOffset/>
<feGaussianBlur stdDeviation="5"/>
<feColorMatrix type="matrix" values="0 0 0 0 0.368627 0 0 0 0 0.462745 0 0 0 0 0.980392 0 0 0 0.25 0"/>
<feBlend mode="normal" in2="BackgroundImageFix" result="effect1_dropShadow_2964_7199"/>
<feBlend mode="normal" in="SourceGraphic" in2="effect1_dropShadow_2964_7199" result="shape"/>
</filter>
<filter id="filter2_d_2964_7199" x="190" y="0" width="51.0732" height="51.073" filterUnits="userSpaceOnUse" color-interpolation-filters="sRGB">
<feFlood flood-opacity="0" result="BackgroundImageFix"/>
<feColorMatrix in="SourceAlpha" type="matrix" values="0 0 0 0 0 0 0 0 0 0 0 0 0 0 0 0 0 0 127 0" result="hardAlpha"/>
<feOffset/>
<feGaussianBlur stdDeviation="5"/>
<feColorMatrix type="matrix" values="0 0 0 0 0.368627 0 0 0 0 0.462745 0 0 0 0 0.980392 0 0 0 0.25 0"/>
<feBlend mode="normal" in2="BackgroundImageFix" result="effect1_dropShadow_2964_7199"/>
<feBlend mode="normal" in="SourceGraphic" in2="effect1_dropShadow_2964_7199" result="shape"/>
</filter>
<filter id="filter3_d_2964_7199" x="248" y="262" width="43.3047" height="43.3047" filterUnits="userSpaceOnUse" color-interpolation-filters="sRGB">
<feFlood flood-opacity="0" result="BackgroundImageFix"/>
<feColorMatrix in="SourceAlpha" type="matrix" values="0 0 0 0 0 0 0 0 0 0 0 0 0 0 0 0 0 0 127 0" result="hardAlpha"/>
<feOffset/>
<feGaussianBlur stdDeviation="5"/>
<feColorMatrix type="matrix" values="0 0 0 0 0.368627 0 0 0 0 0.462745 0 0 0 0 0.980392 0 0 0 0.25 0"/>
<feBlend mode="normal" in2="BackgroundImageFix" result="effect1_dropShadow_2964_7199"/>
<feBlend mode="normal" in="SourceGraphic" in2="effect1_dropShadow_2964_7199" result="shape"/>
</filter>
<filter id="filter4_d_2964_7199" x="123" y="48" width="43.3047" height="43.3047" filterUnits="userSpaceOnUse" color-interpolation-filters="sRGB">
<feFlood flood-opacity="0" result="BackgroundImageFix"/>
<feColorMatrix in="SourceAlpha" type="matrix" values="0 0 0 0 0 0 0 0 0 0 0 0 0 0 0 0 0 0 127 0" result="hardAlpha"/>
<feOffset/>
<feGaussianBlur stdDeviation="5"/>
<feColorMatrix type="matrix" values="0 0 0 0 0.368627 0 0 0 0 0.462745 0 0 0 0 0.980392 0 0 0 0.25 0"/>
<feBlend mode="normal" in2="BackgroundImageFix" result="effect1_dropShadow_2964_7199"/>
<feBlend mode="normal" in="SourceGraphic" in2="effect1_dropShadow_2964_7199" result="shape"/>
</filter>
<filter id="filter5_d_2964_7199" x="98" y="221" width="50" height="50" filterUnits="userSpaceOnUse" color-interpolation-filters="sRGB">
<feFlood flood-opacity="0" result="BackgroundImageFix"/>
<feColorMatrix in="SourceAlpha" type="matrix" values="0 0 0 0 0 0 0 0 0 0 0 0 0 0 0 0 0 0 127 0" result="hardAlpha"/>
<feOffset/>
<feGaussianBlur stdDeviation="5"/>
<feColorMatrix type="matrix" values="0 0 0 0 0.368627 0 0 0 0 0.462745 0 0 0 0 0.980392 0 0 0 0.25 0"/>
<feBlend mode="normal" in2="BackgroundImageFix" result="effect1_dropShadow_2964_7199"/>
<feBlend mode="normal" in="SourceGraphic" in2="effect1_dropShadow_2964_7199" result="shape"/>
</filter>
<filter id="filter6_d_2964_7199" x="251.013" y="61.5751" width="63.502" height="63.5021" filterUnits="userSpaceOnUse" color-interpolation-filters="sRGB">
<feFlood flood-opacity="0" result="BackgroundImageFix"/>
<feColorMatrix in="SourceAlpha" type="matrix" values="0 0 0 0 0 0 0 0 0 0 0 0 0 0 0 0 0 0 127 0" result="hardAlpha"/>
<feOffset/>
<feGaussianBlur stdDeviation="5"/>
<feColorMatrix type="matrix" values="0 0 0 0 0.368627 0 0 0 0 0.462745 0 0 0 0 0.980392 0 0 0 0.25 0"/>
<feBlend mode="normal" in2="BackgroundImageFix" result="effect1_dropShadow_2964_7199"/>
<feBlend mode="normal" in="SourceGraphic" in2="effect1_dropShadow_2964_7199" result="shape"/>
</filter>
</defs>
</svg>
