<svg width="493" height="350" viewBox="0 0 493 350" fill="none" xmlns="http://www.w3.org/2000/svg">
<path fill-rule="evenodd" clip-rule="evenodd" d="M54.428 177.065C72.0895 177.065 87.7442 184.661 97.6839 196.375C112.024 188.232 128.958 183.449 147.171 183.449C151.454 183.449 155.62 183.797 159.728 184.303C157.674 178.108 156.524 171.556 156.524 164.761C156.524 127.026 190.603 96.4342 232.662 96.4342C251.38 96.4342 268.501 102.523 281.762 112.584C301.583 82.9078 337.633 62.9871 378.964 62.9871C441.583 62.9871 492.338 108.549 492.338 164.761C492.338 219.583 444.024 264.154 383.553 266.335C383.553 266.461 383.576 266.588 383.576 266.725C383.576 312.708 342.045 350 290.821 350C261.859 350 236.018 338.075 218.99 319.408C201.986 338.075 176.145 350 147.171 350C98.9747 350 59.3802 316.964 54.874 274.741C54.7097 274.741 54.5688 274.763 54.428 274.763C24.3625 274.763 0.000274658 252.903 0.000274658 225.914C0.000274658 198.946 24.3625 177.065 54.428 177.065Z" fill="#0C5A8E" fill-opacity="0.07"/>
<g filter="url(#filter0_d_2964_7422)">
<circle cx="300.26" cy="45.3246" r="8.83117" fill="#FFC71B"/>
<circle cx="300.26" cy="45.3246" r="6.33117" stroke="#FFC71B" stroke-width="5"/>
</g>
<g filter="url(#filter1_d_2964_7422)">
<circle cx="125.844" cy="230.779" r="13.2468" fill="#F39C12"/>
</g>
<g filter="url(#filter2_d_2964_7422)">
<circle cx="390.779" cy="199.87" r="19.0779" stroke="#E74C3C" stroke-width="6"/>
</g>
<g filter="url(#filter3_d_2964_7422)">
<circle cx="176.623" cy="29.8701" r="17.3701" stroke="#2ECC71" stroke-width="5"/>
</g>
<path d="M289.117 154.11C250.69 137.022 208.589 146.99 192.342 154.11C188.811 159.569 183.866 176.61 192.342 201.102C200.819 225.595 206.235 264.945 207.883 281.558C207.883 281.558 218.571 288.182 237.337 288.182C256.104 288.182 266.513 281.558 266.513 281.558L274.99 255.214C294.768 202.811 292.649 165.977 289.117 154.11Z" fill="#8E44AD"/>
<path d="M280.002 216.539C269.522 186.336 281.943 163.405 289.464 155.714C297.033 155.714 307.174 177.621 311.298 188.574L289.464 239.61L280.002 216.539Z" fill="#6C3483"/>
<path d="M317.777 259.413C298.447 260.541 290.685 247.192 289.221 240.377C292.15 219.507 321.194 164.937 335.35 140.26L344.136 152.246C345.601 187.498 341.94 258.003 317.777 259.413Z" fill="#8E44AD"/>
<path d="M207.001 167.237C210.412 181.138 196.577 192.819 189.233 196.922C176.914 200.3 148.154 203.583 131.665 189.681C115.176 175.78 95.8925 133.208 88.3115 113.659L97.5508 107.143C110.344 122.106 136.782 152.756 140.194 155.652C143.605 158.548 149.67 159.755 152.276 159.997L192.786 152.032C196.103 151.308 203.589 153.336 207.001 167.237Z" fill="#6C3483"/>
<path d="M356.028 153.609C356.579 156.484 347.541 157.682 342.953 157.922C332.494 144.696 317.492 100.177 311.299 79.5711L347.77 65.1948L364.286 107.605L342.953 114.074C342.953 127.876 351.67 146.181 356.028 153.609Z" fill="#2980B9"/>
<path d="M313.506 115.974L322.337 111.898L314.865 89.4805L304.675 92.1978L313.506 115.974Z" fill="#2471A3"/>
<path d="M382.267 25.4546L346.623 65.1949L364.285 108.247L412.857 115.974L382.267 25.4546Z" fill="#2471A3"/>
<path d="M345.671 140.43C349.528 144.777 352.329 138.618 353.247 134.995C351.594 126.843 347.508 124.805 345.671 124.805C344.065 128.202 341.815 136.082 345.671 140.43Z" fill="#F8B2A3"/>
<path d="M336.03 131.598V142.468C331.622 141.381 330.98 134.769 331.209 131.598C331.898 129.334 334.102 124.805 337.407 124.805C341.539 124.805 336.03 129.56 336.03 131.598Z" fill="#F8B2A3"/>
<path d="M93.3021 90.8854C96.8466 92.8122 97.3108 103.731 97.0998 108.949L87.5821 113.766C74.9232 104.132 76.6345 91.6883 78.7443 87.2727C81.0651 90.6847 85.9599 98.2314 86.9726 101.122C87.9853 104.012 91.6142 103.129 93.3021 102.326C91.8252 97.7095 89.7576 88.9586 93.3021 90.8854Z" fill="#F8B2A3"/>
<path d="M201.322 110.321C202.096 105.5 202.929 100.56 205.548 96.4538C207.869 92.7639 211.737 89.4905 211.499 85.0864C211.38 82.9439 210.249 80.9203 210.071 78.7778C209.833 75.3259 212.332 72.0526 215.606 70.9813C218.343 70.0886 220.843 70.3861 223.164 71.636L223.224 71.5169C226.675 61.1613 244.173 57.2333 253.457 59.1973C263.515 61.2803 272.145 69.0768 275.24 78.8968C275.954 81.0989 276.37 83.42 277.323 85.503C281.31 94.5493 290.178 93.7756 293.035 108.535C295.415 121.034 288.452 134.603 281.429 139.305C263.158 151.386 230.127 148.292 218.522 144.304C197.989 137.341 200.548 115.439 201.382 110.321H201.322Z" fill="#F7622E"/>
<path d="M207.455 115.496C207.455 115.496 206.264 130.494 214.835 142.814C215.965 143.349 217.156 143.885 218.465 144.301C229.059 147.872 257.507 150.848 276.313 142.099C280.42 135.374 282.324 126.506 280.658 115.496H207.455Z" fill="#CB4335"/>
<path d="M252.329 129.427H236.379C237.272 137.045 235.01 142.937 228.106 147.877C232.392 152.459 238.522 155.316 245.247 155.316C251.674 155.316 257.447 152.757 261.673 148.591C253.936 143.532 251.377 137.402 252.329 129.427Z" fill="#F5959D"/>
<path d="M223.583 110.557C226.261 115.675 225.13 121.508 221.083 123.65C217.036 125.793 211.561 123.353 208.942 118.234C206.264 113.116 207.395 107.284 211.442 105.141C215.489 102.999 220.964 105.439 223.583 110.557Z" fill="#F27681"/>
<path d="M264.534 110.557C261.856 115.675 262.986 121.508 267.033 123.65C271.08 125.793 276.556 123.353 279.234 118.234C281.912 113.116 280.781 107.284 276.734 105.141C272.687 102.999 267.212 105.439 264.534 110.557Z" fill="#F27681"/>
<path d="M244.24 140.614C262.035 139.602 269.415 129.365 269.415 115.439V99.8457C269.415 89.5496 261.023 81.158 250.727 81.158H237.812C227.516 81.158 225.017 86.9905 223.172 101.631C222.696 105.202 219.065 109.666 219.125 115.439C219.244 129.306 233.468 141.209 244.3 140.614H244.24Z" fill="#F8B2A3"/>
<path d="M247.923 127.164C245.602 127.164 243.697 125.676 243.697 125.676C243.697 125.676 243.995 125.676 244.53 125.676C246.197 125.676 250.125 125.378 252.208 122.7C252.208 122.7 252.386 126.033 249.47 126.926C248.935 127.104 248.458 127.164 247.982 127.164H247.923Z" fill="#F59593"/>
<path d="M256.742 108.53C256.742 110.494 256.028 112.042 255.195 112.042C254.362 112.042 253.647 110.435 253.647 108.53C253.647 106.566 254.362 105.019 255.195 105.019C256.028 105.019 256.742 106.626 256.742 108.53Z" fill="#3D342F"/>
<path d="M231.983 108.53C231.983 110.494 232.698 112.042 233.531 112.042C234.364 112.042 235.078 110.435 235.078 108.53C235.078 106.566 234.364 105.019 233.531 105.019C232.698 105.019 231.983 106.626 231.983 108.53Z" fill="#3D342F"/>
<path d="M225.851 104.372C225.851 104.372 233.766 100.146 237.992 99.6108C237.992 99.6108 236.444 95.0281 231.564 96.8136C225.791 98.8966 225.851 104.372 225.851 104.372Z" fill="#E74C3C"/>
<path d="M262.623 104.372C262.623 104.372 254.708 100.146 250.482 99.6108C250.482 99.6108 252.03 95.0281 256.91 96.8136C262.683 98.8966 262.623 104.372 262.623 104.372Z" fill="#E74C3C"/>
<path d="M248.105 115.795C248.105 117.461 246.796 118.771 245.189 118.771C243.582 118.771 242.272 117.461 242.272 115.795C242.272 114.128 243.582 109.784 245.189 109.784C246.796 109.784 248.105 114.128 248.105 115.795Z" fill="#F27681"/>
<path d="M231.979 120.492C231.86 120.492 231.8 120.492 231.681 120.432C231.324 120.254 231.205 119.896 231.384 119.539L233.526 115.254C233.705 114.957 234.121 114.778 234.419 114.957C234.776 115.135 234.895 115.492 234.717 115.849L232.574 120.135C232.455 120.373 232.217 120.492 231.979 120.492Z" fill="#F27681"/>
<path d="M227.693 120.492C227.574 120.492 227.514 120.492 227.395 120.432C227.038 120.254 226.919 119.896 227.098 119.539L229.24 115.254C229.419 114.957 229.835 114.778 230.133 114.957C230.49 115.135 230.609 115.492 230.431 115.849L228.288 120.135C228.169 120.373 227.931 120.492 227.693 120.492Z" fill="#F27681"/>
<path d="M258.043 120.492C257.805 120.492 257.567 120.373 257.448 120.135L255.306 115.849C255.127 115.552 255.306 115.135 255.603 114.957C255.96 114.778 256.377 114.957 256.496 115.254L258.638 119.539C258.817 119.837 258.638 120.254 258.341 120.432C258.222 120.492 258.162 120.492 258.043 120.492Z" fill="#F27681"/>
<path d="M261.384 120.082C261.146 120.082 260.908 119.963 260.789 119.725L258.646 115.499C258.468 115.202 258.646 114.785 258.944 114.606C259.301 114.428 259.718 114.606 259.837 114.904L261.979 119.189C262.158 119.487 261.979 119.903 261.682 120.082C261.563 120.141 261.503 120.141 261.384 120.141V120.082Z" fill="#F27681"/>
<path d="M244.119 123.892C241.679 123.892 239.834 123.297 239.655 123.297C239.239 123.178 239 122.702 239.12 122.286C239.239 121.869 239.715 121.631 240.131 121.75C240.191 121.75 247.63 124.012 251.499 119.072C251.796 118.715 252.272 118.655 252.689 118.953C253.046 119.25 253.106 119.726 252.808 120.143C250.368 123.238 246.856 124.012 244.119 124.012V123.892Z" fill="#F27681"/>
<path d="M263.698 77.6483L245.546 73.0657L220.431 81.2193L219.3 112.941C223.287 108.12 227.691 93.0033 229.893 84.8497C236.143 96.0385 256.08 96.9313 265.543 96.6337C265.662 110.322 269.292 115.441 269.292 115.441L270.661 96.3361L263.757 77.5888L263.698 77.6483Z" fill="#F7622E"/>
<path d="M412.857 62.9871L474.676 43.1169" stroke="#F39C12" stroke-width="3" stroke-linecap="round"/>
<path d="M406.233 45.3247L421.688 25.4546" stroke="#F39C12" stroke-width="3" stroke-linecap="round"/>
<path d="M419.48 87.2727H450.39" stroke="#F39C12" stroke-width="3" stroke-linecap="round"/>
<path fill-rule="evenodd" clip-rule="evenodd" d="M33.7012 14.4155C30.9397 14.4155 28.7012 16.6541 28.7012 19.4155V68.4164C28.7012 71.1778 30.9398 73.4164 33.7012 73.4164H104.911V73.417H128.675L113.925 57.8473H113.925V19.4155C113.925 16.6541 111.686 14.4155 108.925 14.4155H33.7012Z" fill="#F4D03F"/>
<circle cx="50.7796" cy="43.1168" r="6.62338" fill="white"/>
<circle cx="70.6497" cy="43.1168" r="6.62338" fill="white"/>
<circle cx="92.7269" cy="43.1168" r="6.62338" fill="white"/>
<path fill-rule="evenodd" clip-rule="evenodd" d="M223.294 304.994C221.182 305.244 218.993 305.375 216.75 305.375C199.146 305.375 184.875 297.288 184.875 287.312C184.875 277.337 199.146 269.25 216.75 269.25C228.439 269.25 238.658 272.815 244.206 278.131C246.318 277.881 248.507 277.75 250.75 277.75C268.354 277.75 282.625 285.837 282.625 295.812C282.625 305.788 268.354 313.875 250.75 313.875C239.061 313.875 228.842 310.31 223.294 304.994Z" fill="#DFE2FA"/>
<defs>
<filter id="filter0_d_2964_7422" x="281.429" y="26.4934" width="37.6621" height="37.6624" filterUnits="userSpaceOnUse" color-interpolation-filters="sRGB">
<feFlood flood-opacity="0" result="BackgroundImageFix"/>
<feColorMatrix in="SourceAlpha" type="matrix" values="0 0 0 0 0 0 0 0 0 0 0 0 0 0 0 0 0 0 127 0" result="hardAlpha"/>
<feOffset/>
<feGaussianBlur stdDeviation="5"/>
<feColorMatrix type="matrix" values="0 0 0 0 0.368627 0 0 0 0 0.462745 0 0 0 0 0.980392 0 0 0 0.25 0"/>
<feBlend mode="normal" in2="BackgroundImageFix" result="effect1_dropShadow_2964_7422"/>
<feBlend mode="normal" in="SourceGraphic" in2="effect1_dropShadow_2964_7422" result="shape"/>
</filter>
<filter id="filter1_d_2964_7422" x="102.598" y="207.532" width="46.4932" height="46.4934" filterUnits="userSpaceOnUse" color-interpolation-filters="sRGB">
<feFlood flood-opacity="0" result="BackgroundImageFix"/>
<feColorMatrix in="SourceAlpha" type="matrix" values="0 0 0 0 0 0 0 0 0 0 0 0 0 0 0 0 0 0 127 0" result="hardAlpha"/>
<feOffset/>
<feGaussianBlur stdDeviation="5"/>
<feColorMatrix type="matrix" values="0 0 0 0 0.368627 0 0 0 0 0.462745 0 0 0 0 0.980392 0 0 0 0.25 0"/>
<feBlend mode="normal" in2="BackgroundImageFix" result="effect1_dropShadow_2964_7422"/>
<feBlend mode="normal" in="SourceGraphic" in2="effect1_dropShadow_2964_7422" result="shape"/>
</filter>
<filter id="filter2_d_2964_7422" x="358.701" y="167.792" width="64.1562" height="64.1558" filterUnits="userSpaceOnUse" color-interpolation-filters="sRGB">
<feFlood flood-opacity="0" result="BackgroundImageFix"/>
<feColorMatrix in="SourceAlpha" type="matrix" values="0 0 0 0 0 0 0 0 0 0 0 0 0 0 0 0 0 0 127 0" result="hardAlpha"/>
<feOffset/>
<feGaussianBlur stdDeviation="5"/>
<feColorMatrix type="matrix" values="0 0 0 0 0.368627 0 0 0 0 0.462745 0 0 0 0 0.980392 0 0 0 0.25 0"/>
<feBlend mode="normal" in2="BackgroundImageFix" result="effect1_dropShadow_2964_7422"/>
<feBlend mode="normal" in="SourceGraphic" in2="effect1_dropShadow_2964_7422" result="shape"/>
</filter>
<filter id="filter3_d_2964_7422" x="146.753" y="0" width="59.7402" height="59.7402" filterUnits="userSpaceOnUse" color-interpolation-filters="sRGB">
<feFlood flood-opacity="0" result="BackgroundImageFix"/>
<feColorMatrix in="SourceAlpha" type="matrix" values="0 0 0 0 0 0 0 0 0 0 0 0 0 0 0 0 0 0 127 0" result="hardAlpha"/>
<feOffset/>
<feGaussianBlur stdDeviation="5"/>
<feColorMatrix type="matrix" values="0 0 0 0 0.368627 0 0 0 0 0.462745 0 0 0 0 0.980392 0 0 0 0.25 0"/>
<feBlend mode="normal" in2="BackgroundImageFix" result="effect1_dropShadow_2964_7422"/>
<feBlend mode="normal" in="SourceGraphic" in2="effect1_dropShadow_2964_7422" result="shape"/>
</filter>
</defs>
</svg>
