<svg width="369" height="352" viewBox="0 0 369 352" fill="none" xmlns="http://www.w3.org/2000/svg">
<path fill-rule="evenodd" clip-rule="evenodd" d="M58.883 229.361C71.3904 229.361 82.4766 234.736 89.5157 243.026C99.6712 237.263 111.663 233.879 124.561 233.879C127.595 233.879 130.545 234.125 133.454 234.483C131.999 230.099 131.185 225.462 131.185 220.653C131.185 193.949 155.319 172.3 185.104 172.3C198.359 172.3 210.484 176.609 219.875 183.728C233.912 162.727 259.442 148.63 288.712 148.63C333.057 148.63 369 180.873 369 220.653C369 259.45 334.785 290.992 291.961 292.536C291.961 292.625 291.978 292.714 291.978 292.811C291.978 325.353 262.567 351.744 226.291 351.744C205.781 351.744 187.481 343.305 175.422 330.094C163.38 343.305 145.08 351.744 124.561 351.744C90.4298 351.744 62.39 328.365 59.1987 298.485C59.0824 298.485 58.9827 298.5 58.883 298.5C37.5913 298.5 20.3386 283.03 20.3386 263.93C20.3386 244.845 37.5913 229.361 58.883 229.361Z" fill="#0C5A8E" fill-opacity="0.07"/>
<g filter="url(#filter0_d_2964_7134)">
<circle cx="314.679" cy="308.867" r="8.1463" fill="#3498DB"/>
</g>
<g filter="url(#filter1_d_2964_7134)">
<circle cx="114.36" cy="266.9" r="11.1202" stroke="#2ECC71" stroke-width="6"/>
</g>
<g filter="url(#filter2_d_2964_7134)">
<path d="M230.835 288.937C210.577 280.801 203.934 270.671 205.595 256.059H183.344C185.087 270.671 178.362 280.801 158.104 288.937C137.845 297.074 135.105 305.958 135.105 305.958H253.75C253.75 305.958 251.01 297.074 230.752 288.937H230.835Z" fill="#F27881"/>
<path d="M230.835 288.938C223.778 286.115 218.464 283.043 214.479 279.639L195.798 296.991L174.792 279.473C170.807 282.96 165.327 286.115 158.187 288.938C137.928 297.074 135.188 305.958 135.188 305.958C135.188 305.958 144.549 321.06 193.942 321.06C243.336 321.06 253.833 305.958 253.833 305.958C253.833 305.958 251.093 297.074 230.835 288.938Z" fill="#3498DB"/>
<path d="M165.653 229.572C169.389 236.712 167.811 244.932 162.166 247.838C156.52 250.827 148.881 247.423 145.145 240.283C141.409 233.142 142.987 224.923 148.632 222.017C154.278 219.028 161.916 222.432 165.653 229.572Z" fill="#F27881"/>
<path d="M222.943 229.572C219.207 236.712 220.784 244.932 226.43 247.838C232.076 250.827 239.714 247.423 243.451 240.283C247.187 233.142 245.609 224.923 239.963 222.017C234.318 219.028 226.679 222.432 222.943 229.572Z" fill="#F27881"/>
<path d="M238.723 199.267C243.29 189.221 248.935 171.453 226.186 161.075C226.269 161.075 225.605 160.494 224.277 159.996C220.624 158.418 211.823 156.841 198.871 167.966C193.225 172.865 185.752 175.024 178.612 172.699C171.472 170.374 162.173 170.623 156.859 183.492C155.448 186.979 155.033 190.051 155.199 192.791C153.538 190.716 151.297 189.387 149.221 192.708C147.56 195.365 148.889 206.906 153.04 217.367C153.04 217.367 155.448 242.524 166.905 246.427L178.197 230.901C187.579 230.651 199.203 230.402 208.834 230.153L220.707 246.427C228.926 243.604 232.496 229.987 233.825 222.432C234.24 221.934 234.738 221.436 235.153 220.937C240.467 215.125 242.459 206.989 239.221 200.347C239.055 200.015 238.889 199.599 238.64 199.267H238.723Z" fill="#542F41"/>
<path d="M183.919 188.969C170.801 188.969 160.091 199.514 160.008 212.632L159.759 235.464C159.759 256.304 175.285 273.242 194.381 273.242C213.477 273.242 229.003 256.304 229.003 235.464L228.92 211.221C228.92 198.933 220.949 181.912 208.661 181.912L183.919 188.886V188.969Z" fill="#F7A592"/>
<path d="M200.272 258.707C198.03 258.707 197.117 256.963 197.117 256.963C197.117 256.963 197.117 256.963 197.2 256.963C197.947 256.963 203.51 256.797 205.503 252.231C205.503 252.231 207.246 255.801 203.012 257.96C201.933 258.541 201.019 258.707 200.272 258.707Z" fill="#F5938B"/>
<path d="M159.842 223.417L159.925 212.624L159.842 223.417Z" fill="#522D38"/>
<path d="M204.852 242.016C205.267 243.095 205.516 244.34 205.516 245.586C205.516 251.149 201.116 255.632 195.719 255.632C190.986 255.632 187.001 252.228 186.088 247.579L204.935 242.016H204.852Z" fill="#372C2E"/>
<path d="M195.625 255.639C193.965 255.639 192.387 255.224 190.976 254.476C191.889 250.076 195.957 246.838 200.939 246.838C202.433 246.838 203.928 247.17 205.256 247.751C204.343 252.318 200.358 255.722 195.625 255.722V255.639Z" fill="#EE3B4A"/>
<path d="M199.277 236.045C199.277 239.283 197.035 241.94 194.295 241.94C191.555 241.94 189.313 239.283 189.313 236.045C189.313 232.807 191.555 228.656 194.295 228.656C197.035 228.656 199.277 232.724 199.277 236.045Z" fill="#F1626C"/>
<path d="M212.151 225.507C212.151 228.246 211.238 230.405 210.076 230.405C208.913 230.405 208 228.163 208 225.507C208 222.767 208.913 220.608 210.076 220.608C211.238 220.608 212.151 222.85 212.151 225.507Z" fill="#392C2E"/>
<path d="M219.787 220.097C220.036 219.931 208.662 212.791 201.687 213.04C201.604 213.123 201.853 206.73 211.152 210.134C220.202 213.87 219.787 220.263 219.87 220.18L219.787 220.097Z" fill="#542F41"/>
<path d="M176.539 225.507C176.539 228.246 177.452 230.405 178.615 230.405C179.777 230.405 180.69 228.163 180.69 225.507C180.69 222.767 179.777 220.608 178.615 220.608C177.452 220.608 176.539 222.85 176.539 225.507Z" fill="#392C2E"/>
<path d="M167.906 220.097C167.657 219.931 179.032 212.791 186.006 213.04C186.089 213.123 185.84 206.73 176.541 210.134C167.491 213.87 167.906 220.263 167.823 220.18L167.906 220.097Z" fill="#542F41"/>
<path d="M173.62 242.193C173.454 242.193 173.371 242.193 173.205 242.11C172.79 241.861 172.541 241.363 172.79 240.865L175.696 234.887C175.945 234.471 176.443 234.222 176.941 234.471C177.356 234.721 177.605 235.219 177.356 235.717L174.45 241.695C174.284 242.027 173.952 242.193 173.62 242.193Z" fill="#F1626C"/>
<path d="M167.904 242.193C167.738 242.193 167.655 242.193 167.489 242.11C167.074 241.861 166.825 241.363 167.074 240.865L169.98 234.887C170.229 234.471 170.727 234.222 171.225 234.471C171.64 234.721 171.89 235.219 171.64 235.717L168.735 241.695C168.568 242.027 168.236 242.193 167.904 242.193Z" fill="#F1626C"/>
<path d="M214.471 242.193C214.139 242.193 213.807 242.027 213.641 241.695L210.735 235.717C210.486 235.302 210.735 234.721 211.15 234.471C211.565 234.222 212.147 234.471 212.396 234.887L215.302 240.865C215.551 241.28 215.302 241.861 214.886 242.11C214.72 242.193 214.637 242.193 214.471 242.193Z" fill="#F1626C"/>
<path d="M220.208 242.193C219.875 242.193 219.543 242.027 219.377 241.695L216.471 235.717C216.222 235.302 216.471 234.721 216.887 234.471C217.302 234.222 217.883 234.471 218.132 234.887L221.038 240.865C221.287 241.28 221.038 241.861 220.623 242.11C220.457 242.193 220.374 242.193 220.208 242.193Z" fill="#F1626C"/>
<path d="M230.413 201.416L214.139 173.602L174.868 185.475L153.779 210.964C158.346 214.368 159.84 216.859 159.84 216.859C159.84 216.859 162.082 203.74 187.488 203.408C204.176 203.159 209.656 192.781 211.898 184.312C212.396 194.192 217.128 204.322 222.94 209.054C227.258 212.541 231.409 212.624 234.73 211.462L230.33 201.25L230.413 201.416Z" fill="#542F41"/>
<path d="M190.478 87.0652L171.775 173.777C180.092 185.789 215.204 183.017 220.749 173.777L194.347 86.9053C193.747 84.9311 190.913 85.0482 190.478 87.0652Z" fill="#FDC51C"/>
<path d="M177.32 149.753L174.548 161.765C177.012 162.073 182.125 161.58 182.864 157.145C183.603 152.71 179.476 150.369 177.32 149.753Z" fill="#F7622E"/>
<path d="M210.585 141.436L204.117 120.184C198.573 120.184 190.256 127.576 193.952 135.892C196.909 142.545 206.273 142.36 210.585 141.436Z" fill="#6C3483"/>
<circle cx="201.344" cy="164.537" r="9.24023" fill="#8E44AD"/>
<circle cx="191.179" cy="111.868" r="2.77207" fill="#2ECC71"/>
</g>
<path d="M288.319 117.607C285.464 118.268 282.965 119.987 281.014 122.117C279.043 124.251 277.515 126.756 276.294 129.38C273.861 134.638 272.501 140.406 272.361 146.181C272.319 149.061 272.591 151.977 273.515 154.675C273.995 156.009 274.649 157.292 275.595 158.314C276.525 159.346 277.768 160.052 279.123 160.304C280.481 160.541 281.906 160.386 283.26 159.98C284.616 159.577 285.918 158.966 287.164 158.259C289.65 156.864 291.947 154.97 293.108 152.407C293.689 151.146 293.963 149.744 293.833 148.371C293.705 147.006 293.177 145.656 292.262 144.656C291.371 143.651 290.01 143.05 288.745 143.4C287.475 143.73 286.484 144.83 285.811 146.038C285.125 147.263 284.679 148.634 284.357 150.028C284.032 151.424 283.835 152.856 283.711 154.295C283.59 155.733 283.545 157.182 283.548 158.63C283.556 160.078 283.545 161.566 283.409 163.028C283.152 165.958 282.519 168.863 281.459 171.609C280.403 174.356 278.922 176.933 277.108 179.24C275.287 181.544 273.144 183.568 270.861 185.385C269.726 186.303 268.535 187.149 267.418 188.078C267.143 188.314 266.87 188.556 266.648 188.838C266.54 188.98 266.439 189.135 266.412 189.305C266.38 189.478 266.472 189.645 266.612 189.752C267.208 190.16 267.971 190.244 268.677 190.376C267.965 190.259 267.21 190.201 266.579 189.794C266.429 189.687 266.314 189.493 266.346 189.297C266.373 189.103 266.477 188.939 266.584 188.791C266.807 188.494 267.077 188.243 267.348 187.998C268.45 187.036 269.618 186.164 270.727 185.221C272.958 183.356 275.032 181.298 276.773 178.981C278.528 176.679 279.95 174.126 280.949 171.416C281.953 168.708 282.535 165.852 282.747 162.974C282.861 161.529 282.853 160.1 282.825 158.633C282.815 157.168 282.853 155.699 282.971 154.233C283.09 152.767 283.285 151.303 283.614 149.858C283.942 148.415 284.396 146.982 285.13 145.655C285.852 144.358 286.943 143.061 288.543 142.625C289.326 142.408 290.186 142.47 290.932 142.759C291.688 143.04 292.34 143.527 292.867 144.1C293.929 145.255 294.518 146.765 294.669 148.29C294.82 149.822 294.525 151.381 293.886 152.763C292.601 155.563 290.126 157.545 287.569 158.969C286.278 159.693 284.923 160.325 283.481 160.747C282.047 161.168 280.496 161.342 278.978 161.07C277.461 160.785 276.05 159.968 275.036 158.827C274 157.696 273.315 156.322 272.816 154.92C271.852 152.088 271.622 149.097 271.706 146.164C271.931 140.288 273.378 134.482 275.918 129.2C277.217 126.576 278.823 124.081 280.864 121.974C282.884 119.869 285.448 118.198 288.319 117.607Z" fill="#3498DB"/>
<path d="M335.313 83.3039C328.896 101.792 302.836 128.491 284.348 122.073C265.859 115.655 261.944 78.5528 268.361 60.0647C274.779 41.5766 294.969 31.7912 313.457 38.2089C331.946 44.6257 341.731 64.8158 335.313 83.3039Z" fill="#F7622E"/>
<path d="M330.518 88.2626C324.402 103.951 300.693 125.876 285.618 120C270.546 114.123 294.89 112.628 301.006 96.9392C307.122 81.2516 312.899 72.0881 323.206 69.1915C339.002 64.7523 336.634 72.574 330.518 88.2626Z" fill="#FA8258"/>
<path d="M308.117 47.1913C307.951 47.1913 307.786 47.1809 307.619 47.1592C306.922 47.0691 306.218 47.0016 305.527 46.9583C303.4 46.8258 301.782 44.9929 301.915 42.8655C302.047 40.7373 303.894 39.1279 306.009 39.2535C306.868 39.3072 307.741 39.3903 308.605 39.5021C310.72 39.774 312.212 41.71 311.94 43.8244C311.689 45.7707 310.029 47.1913 308.117 47.1913Z" fill="#F5F8F9"/>
<path d="M278.019 64.0967C277.854 64.0967 277.688 64.0854 277.521 64.0638C275.406 63.7918 273.913 61.8567 274.185 59.7423C275.474 49.7369 286.474 40.6765 294.573 40.278C296.686 40.1645 298.513 41.8138 298.618 43.9437C298.723 46.0737 297.082 47.8841 294.952 47.9897C290.185 48.2245 282.6 54.8526 281.842 60.7289C281.592 62.6761 279.931 64.0967 278.019 64.0967Z" fill="#F5F8F9"/>
<path d="M263.694 103.37C261.044 106.774 259.36 110.819 258.743 115.011C258.12 119.208 258.388 123.501 259.228 127.663C260.051 131.837 261.45 135.892 263.15 139.81C264.002 141.771 264.958 143.689 266.003 145.56C267.016 147.45 268.157 149.272 269.345 151.069C267.955 149.42 266.716 147.648 265.537 145.837C264.388 144.005 263.337 142.111 262.379 140.167C260.471 136.277 259.012 132.149 258.145 127.88C257.31 123.614 257.063 119.167 257.909 114.866C258.332 112.723 259.006 110.626 259.97 108.672C260.961 106.733 262.194 104.922 263.694 103.37Z" fill="#3498DB"/>
<path d="M285.232 31.541C293.044 55.5251 287.079 103.24 263.095 111.051C239.111 118.862 206.191 83.8116 198.379 59.8275C190.569 35.8433 203.679 10.0688 227.663 2.25747C251.647 -5.55389 277.421 7.55688 285.232 31.541Z" fill="#F4D03F"/>
<path d="M284.17 40.3682C290.109 61.2418 282.841 102.224 262.785 107.931C242.729 113.637 266.563 93.1387 260.624 72.2651C254.684 51.3906 253.48 37.4812 261.806 26.4788C274.569 9.61653 278.231 19.4938 284.17 40.3682Z" fill="#FADE89"/>
<path d="M223.584 18.2526C221.973 18.2526 220.392 17.4712 219.434 16.0282C217.914 13.7379 218.539 10.6508 220.828 9.13064C221.758 8.51478 222.719 7.92056 223.686 7.36619C226.07 5.99933 229.111 6.82135 230.478 9.20513C231.845 11.5889 231.022 14.6293 228.638 15.997C227.858 16.4448 227.081 16.9247 226.33 17.4227C225.484 17.984 224.529 18.2526 223.584 18.2526Z" fill="#F5F8F9"/>
<path d="M208.427 57.4613C206.703 57.4613 205.026 56.563 204.107 54.9606C197.638 43.681 201.876 25.8105 209.884 19.0923C211.988 17.3261 215.126 17.6015 216.893 19.7064C218.66 21.8112 218.384 24.9504 216.279 26.7157C211.566 30.6699 208.939 43.3839 212.739 50.0094C214.106 52.3932 213.282 55.4335 210.898 56.8013C210.118 57.2482 209.267 57.4613 208.427 57.4613Z" fill="#F5F8F9"/>
<path d="M113.504 201.962C106.907 198.375 100.483 194.532 93.6494 191.295C86.806 188.051 79.6575 185.655 72.239 183.701C65.0716 181.812 57.6619 180.537 50.2333 180.079C42.3077 179.59 34.6994 180.293 26.9205 181.282C22.418 181.854 21.8314 175.15 26.6276 174.953C27.9286 174.9 29.2068 174.717 30.5113 174.71C33.2875 174.697 34.4698 177.938 32.1538 179.214C31.066 179.813 29.8829 180.255 28.7667 180.815C27.7319 178.902 26.6988 176.991 25.665 175.078C40.9814 172.298 57.8581 174.299 72.6271 179.016C80.2338 181.445 87.471 184.818 94.4044 188.489C101.421 192.203 108.129 196.402 113.788 201.614C113.976 201.786 113.762 202.102 113.504 201.962Z" fill="#3498DB"/>
<path d="M114.249 177.144C112.919 173.951 110.506 170.826 108.674 167.807C106.604 164.396 104.576 160.984 102.324 157.654C98.134 151.463 93.4547 145.478 88.3853 139.79C83.4999 134.308 78.2963 129.008 73.0745 123.762C67.5254 118.188 61.5523 112.914 56.0628 107.302C52.9192 104.089 59.3841 100.051 61.9267 103.573C62.8398 104.843 63.3842 106.21 64.1922 107.519C65.1965 109.146 62.8127 110.846 61.0668 110.093C59.8557 109.572 58.7171 108.934 57.5487 108.339C58.7837 106.55 60.0181 104.759 61.2522 102.97C72.8706 113.36 83.409 125.084 92.411 137.23C96.8314 143.195 100.973 149.291 104.671 155.606C106.578 158.87 108.331 162.197 109.977 165.56C111.823 169.334 112.606 173.355 114.3 177.127C114.311 177.156 114.262 177.173 114.249 177.144Z" fill="#3498DB"/>
<path d="M31.2297 120.336C50.1083 129.124 70.1346 141.505 81.5537 150.847C89.8822 157.66 96.9437 165.129 103.355 172.693C109.843 180.35 115.518 188.272 118.953 196.509C119.069 196.783 118.523 196.948 118.29 196.664C112.266 189.377 106.685 181.956 100.058 174.853C93.4243 167.741 85.6898 161.234 77.232 154.974C69.0609 148.928 47.8618 135.938 38.1755 131.066C33.7674 128.849 28.569 126.769 23.9699 124.937C20.7911 120.336 25.4226 117.673 31.2297 120.336Z" fill="#3498DB"/>
<path d="M90.638 178.319C87.8665 176.218 84.1967 174.718 81.0803 173.02C77.5597 171.1 74.0755 169.159 70.44 167.401C63.679 164.134 56.6006 161.293 49.338 158.904C42.3398 156.6 35.1616 154.617 27.9928 152.688C20.3773 150.638 12.5481 149.062 4.96476 146.95C0.622448 145.741 4.12429 138.993 8.10665 140.773C9.54048 141.415 10.7057 142.327 12.0681 143.058C13.7614 143.964 12.5787 146.636 10.6933 146.859C9.38487 147.015 8.0805 147.033 6.77289 147.104C6.92145 144.932 7.06999 142.759 7.22036 140.588C22.5133 143.767 37.5568 148.645 51.4954 154.663C58.3406 157.617 65.014 160.825 71.414 164.447C74.7194 166.319 77.9238 168.325 81.0553 170.417C84.5687 172.763 87.292 175.857 90.6739 178.28C90.698 178.298 90.663 178.338 90.638 178.319Z" fill="#3498DB"/>
<g filter="url(#filter3_d_2964_7134)">
<circle cx="128.521" cy="105.277" r="11.2064" stroke="#FF8F01" stroke-width="8"/>
</g>
<g filter="url(#filter4_d_2964_7134)">
<circle cx="278.168" cy="241.85" r="10.8617" fill="#F7622E"/>
</g>
<g filter="url(#filter5_d_2964_7134)">
<circle cx="282.907" cy="203.006" r="5.43086" fill="#2ECC71"/>
</g>
<defs>
<filter id="filter0_d_2964_7134" x="296.532" y="290.72" width="36.293" height="36.2926" filterUnits="userSpaceOnUse" color-interpolation-filters="sRGB">
<feFlood flood-opacity="0" result="BackgroundImageFix"/>
<feColorMatrix in="SourceAlpha" type="matrix" values="0 0 0 0 0 0 0 0 0 0 0 0 0 0 0 0 0 0 127 0" result="hardAlpha"/>
<feOffset/>
<feGaussianBlur stdDeviation="5"/>
<feColorMatrix type="matrix" values="0 0 0 0 0.368627 0 0 0 0 0.462745 0 0 0 0 0.980392 0 0 0 0.25 0"/>
<feBlend mode="normal" in2="BackgroundImageFix" result="effect1_dropShadow_2964_7134"/>
<feBlend mode="normal" in="SourceGraphic" in2="effect1_dropShadow_2964_7134" result="shape"/>
</filter>
<filter id="filter1_d_2964_7134" x="90.2402" y="242.779" width="48.2402" height="48.2405" filterUnits="userSpaceOnUse" color-interpolation-filters="sRGB">
<feFlood flood-opacity="0" result="BackgroundImageFix"/>
<feColorMatrix in="SourceAlpha" type="matrix" values="0 0 0 0 0 0 0 0 0 0 0 0 0 0 0 0 0 0 127 0" result="hardAlpha"/>
<feOffset/>
<feGaussianBlur stdDeviation="5"/>
<feColorMatrix type="matrix" values="0 0 0 0 0.368627 0 0 0 0 0.462745 0 0 0 0 0.980392 0 0 0 0.25 0"/>
<feBlend mode="normal" in2="BackgroundImageFix" result="effect1_dropShadow_2964_7134"/>
<feBlend mode="normal" in="SourceGraphic" in2="effect1_dropShadow_2964_7134" result="shape"/>
</filter>
<filter id="filter2_d_2964_7134" x="125.105" y="75.4867" width="138.728" height="255.573" filterUnits="userSpaceOnUse" color-interpolation-filters="sRGB">
<feFlood flood-opacity="0" result="BackgroundImageFix"/>
<feColorMatrix in="SourceAlpha" type="matrix" values="0 0 0 0 0 0 0 0 0 0 0 0 0 0 0 0 0 0 127 0" result="hardAlpha"/>
<feOffset/>
<feGaussianBlur stdDeviation="5"/>
<feColorMatrix type="matrix" values="0 0 0 0 0.368627 0 0 0 0 0.462745 0 0 0 0 0.980392 0 0 0 0.25 0"/>
<feBlend mode="normal" in2="BackgroundImageFix" result="effect1_dropShadow_2964_7134"/>
<feBlend mode="normal" in="SourceGraphic" in2="effect1_dropShadow_2964_7134" result="shape"/>
</filter>
<filter id="filter3_d_2964_7134" x="103.314" y="80.0709" width="50.4131" height="50.4128" filterUnits="userSpaceOnUse" color-interpolation-filters="sRGB">
<feFlood flood-opacity="0" result="BackgroundImageFix"/>
<feColorMatrix in="SourceAlpha" type="matrix" values="0 0 0 0 0 0 0 0 0 0 0 0 0 0 0 0 0 0 127 0" result="hardAlpha"/>
<feOffset/>
<feGaussianBlur stdDeviation="5"/>
<feColorMatrix type="matrix" values="0 0 0 0 0.368627 0 0 0 0 0.462745 0 0 0 0 0.980392 0 0 0 0.25 0"/>
<feBlend mode="normal" in2="BackgroundImageFix" result="effect1_dropShadow_2964_7134"/>
<feBlend mode="normal" in="SourceGraphic" in2="effect1_dropShadow_2964_7134" result="shape"/>
</filter>
<filter id="filter4_d_2964_7134" x="257.307" y="220.989" width="41.7236" height="41.7235" filterUnits="userSpaceOnUse" color-interpolation-filters="sRGB">
<feFlood flood-opacity="0" result="BackgroundImageFix"/>
<feColorMatrix in="SourceAlpha" type="matrix" values="0 0 0 0 0 0 0 0 0 0 0 0 0 0 0 0 0 0 127 0" result="hardAlpha"/>
<feOffset/>
<feGaussianBlur stdDeviation="5"/>
<feColorMatrix type="matrix" values="0 0 0 0 0.368627 0 0 0 0 0.462745 0 0 0 0 0.980392 0 0 0 0.25 0"/>
<feBlend mode="normal" in2="BackgroundImageFix" result="effect1_dropShadow_2964_7134"/>
<feBlend mode="normal" in="SourceGraphic" in2="effect1_dropShadow_2964_7134" result="shape"/>
</filter>
<filter id="filter5_d_2964_7134" x="267.477" y="187.575" width="30.8613" height="30.8617" filterUnits="userSpaceOnUse" color-interpolation-filters="sRGB">
<feFlood flood-opacity="0" result="BackgroundImageFix"/>
<feColorMatrix in="SourceAlpha" type="matrix" values="0 0 0 0 0 0 0 0 0 0 0 0 0 0 0 0 0 0 127 0" result="hardAlpha"/>
<feOffset/>
<feGaussianBlur stdDeviation="5"/>
<feColorMatrix type="matrix" values="0 0 0 0 0.368627 0 0 0 0 0.462745 0 0 0 0 0.980392 0 0 0 0.25 0"/>
<feBlend mode="normal" in2="BackgroundImageFix" result="effect1_dropShadow_2964_7134"/>
<feBlend mode="normal" in="SourceGraphic" in2="effect1_dropShadow_2964_7134" result="shape"/>
</filter>
</defs>
</svg>
