<svg width="417" height="405" viewBox="0 0 417 405" fill="none" xmlns="http://www.w3.org/2000/svg">
<path fill-rule="evenodd" clip-rule="evenodd" d="M70.5305 199.824C84.504 199.824 96.8898 205.833 104.754 215.102C116.1 208.659 129.498 204.875 143.908 204.875C147.297 204.875 150.593 205.15 153.842 205.55C152.218 200.649 151.308 195.465 151.308 190.089C151.308 160.234 178.271 136.03 211.547 136.03C226.356 136.03 239.903 140.847 250.395 148.807C266.076 125.328 294.599 109.567 327.3 109.567C376.843 109.567 417 145.615 417 190.089C417 233.463 378.775 268.728 330.93 270.453C330.93 270.553 330.949 270.653 330.949 270.761C330.949 307.143 298.09 336.648 257.562 336.648C234.648 336.648 214.203 327.213 200.73 312.444C187.277 327.213 166.832 336.648 143.908 336.648C105.775 336.648 74.4486 310.51 70.8832 277.104C70.7532 277.104 70.6419 277.121 70.5305 277.121C46.7429 277.121 27.4678 259.826 27.4678 238.473C27.4678 217.135 46.7429 199.824 70.5305 199.824Z" fill="#0C5A8E" fill-opacity="0.07"/>
<g filter="url(#filter0_d_2964_7304)">
<circle cx="106.073" cy="50.176" r="14.9678" stroke="#F4D03F" stroke-width="5"/>
</g>
<g filter="url(#filter1_d_2964_7304)">
<circle cx="27.4678" cy="156.73" r="17.4678" fill="#E74C3C"/>
</g>
<g filter="url(#filter2_d_2964_7304)">
<circle cx="315.687" cy="345.382" r="8.7339" fill="#2980B9"/>
</g>
<g filter="url(#filter3_d_2964_7304)">
<circle cx="157.603" cy="381.101" r="13.1009" fill="#9B59B6"/>
</g>
<g filter="url(#filter4_d_2964_7304)">
<circle cx="366.344" cy="34.4549" r="20.4549" stroke="#2ECC71" stroke-width="8"/>
</g>
<defs>
<filter id="filter0_d_2964_7304" x="78.6055" y="22.7081" width="54.9355" height="54.9356" filterUnits="userSpaceOnUse" color-interpolation-filters="sRGB">
<feFlood flood-opacity="0" result="BackgroundImageFix"/>
<feColorMatrix in="SourceAlpha" type="matrix" values="0 0 0 0 0 0 0 0 0 0 0 0 0 0 0 0 0 0 127 0" result="hardAlpha"/>
<feOffset/>
<feGaussianBlur stdDeviation="5"/>
<feColorMatrix type="matrix" values="0 0 0 0 0.368627 0 0 0 0 0.462745 0 0 0 0 0.980392 0 0 0 0.25 0"/>
<feBlend mode="normal" in2="BackgroundImageFix" result="effect1_dropShadow_2964_7304"/>
<feBlend mode="normal" in="SourceGraphic" in2="effect1_dropShadow_2964_7304" result="shape"/>
</filter>
<filter id="filter1_d_2964_7304" x="0" y="129.262" width="54.9355" height="54.9356" filterUnits="userSpaceOnUse" color-interpolation-filters="sRGB">
<feFlood flood-opacity="0" result="BackgroundImageFix"/>
<feColorMatrix in="SourceAlpha" type="matrix" values="0 0 0 0 0 0 0 0 0 0 0 0 0 0 0 0 0 0 127 0" result="hardAlpha"/>
<feOffset/>
<feGaussianBlur stdDeviation="5"/>
<feColorMatrix type="matrix" values="0 0 0 0 0.368627 0 0 0 0 0.462745 0 0 0 0 0.980392 0 0 0 0.25 0"/>
<feBlend mode="normal" in2="BackgroundImageFix" result="effect1_dropShadow_2964_7304"/>
<feBlend mode="normal" in="SourceGraphic" in2="effect1_dropShadow_2964_7304" result="shape"/>
</filter>
<filter id="filter2_d_2964_7304" x="296.953" y="326.648" width="37.4678" height="37.4678" filterUnits="userSpaceOnUse" color-interpolation-filters="sRGB">
<feFlood flood-opacity="0" result="BackgroundImageFix"/>
<feColorMatrix in="SourceAlpha" type="matrix" values="0 0 0 0 0 0 0 0 0 0 0 0 0 0 0 0 0 0 127 0" result="hardAlpha"/>
<feOffset/>
<feGaussianBlur stdDeviation="5"/>
<feColorMatrix type="matrix" values="0 0 0 0 0.368627 0 0 0 0 0.462745 0 0 0 0 0.980392 0 0 0 0.25 0"/>
<feBlend mode="normal" in2="BackgroundImageFix" result="effect1_dropShadow_2964_7304"/>
<feBlend mode="normal" in="SourceGraphic" in2="effect1_dropShadow_2964_7304" result="shape"/>
</filter>
<filter id="filter3_d_2964_7304" x="134.502" y="358" width="46.2021" height="46.2017" filterUnits="userSpaceOnUse" color-interpolation-filters="sRGB">
<feFlood flood-opacity="0" result="BackgroundImageFix"/>
<feColorMatrix in="SourceAlpha" type="matrix" values="0 0 0 0 0 0 0 0 0 0 0 0 0 0 0 0 0 0 127 0" result="hardAlpha"/>
<feOffset/>
<feGaussianBlur stdDeviation="5"/>
<feColorMatrix type="matrix" values="0 0 0 0 0.368627 0 0 0 0 0.462745 0 0 0 0 0.980392 0 0 0 0.25 0"/>
<feBlend mode="normal" in2="BackgroundImageFix" result="effect1_dropShadow_2964_7304"/>
<feBlend mode="normal" in="SourceGraphic" in2="effect1_dropShadow_2964_7304" result="shape"/>
</filter>
<filter id="filter4_d_2964_7304" x="331.889" y="0" width="68.9102" height="68.9099" filterUnits="userSpaceOnUse" color-interpolation-filters="sRGB">
<feFlood flood-opacity="0" result="BackgroundImageFix"/>
<feColorMatrix in="SourceAlpha" type="matrix" values="0 0 0 0 0 0 0 0 0 0 0 0 0 0 0 0 0 0 127 0" result="hardAlpha"/>
<feOffset/>
<feGaussianBlur stdDeviation="5"/>
<feColorMatrix type="matrix" values="0 0 0 0 0.368627 0 0 0 0 0.462745 0 0 0 0 0.980392 0 0 0 0.25 0"/>
<feBlend mode="normal" in2="BackgroundImageFix" result="effect1_dropShadow_2964_7304"/>
<feBlend mode="normal" in="SourceGraphic" in2="effect1_dropShadow_2964_7304" result="shape"/>
</filter>
</defs>
</svg>
